<?xml version="1.0" encoding="UTF-8" standalone="no"?>
<!-- Created with Inkscape (http://www.inkscape.org/) -->

<svg
   width="11in"
   height="8.5in"
   viewBox="0 0 279.4 215.9"
   version="1.1"
   id="svg1"
   inkscape:version="1.4.3 (fcd0343856, 2026-01-01)"
   sodipodi:docname="NameplateCrackle.svg"
   xmlns:inkscape="http://www.inkscape.org/namespaces/inkscape"
   xmlns:sodipodi="http://sodipodi.sourceforge.net/DTD/sodipodi-0.dtd"
   xmlns="http://www.w3.org/2000/svg"
   xmlns:svg="http://www.w3.org/2000/svg">
  <sodipodi:namedview
     id="namedview1"
     pagecolor="#ffffff"
     bordercolor="#666666"
     borderopacity="1.0"
     inkscape:showpageshadow="2"
     inkscape:pageopacity="0.0"
     inkscape:pagecheckerboard="0"
     inkscape:deskcolor="#d1d1d1"
     inkscape:document-units="mm"
     inkscape:zoom="0.49764326"
     inkscape:cx="361.70489"
     inkscape:cy="375.77119"
     inkscape:window-width="1920"
     inkscape:window-height="995"
     inkscape:window-x="1920"
     inkscape:window-y="24"
     inkscape:window-maximized="1"
     inkscape:current-layer="layer1" />
  <defs
     id="defs1" />
  <g
     inkscape:label="Layer 1"
     inkscape:groupmode="layer"
     id="layer1">
    <text
       xml:space="preserve"
       style="font-size:12.7px;line-height:1.25;font-family:Sans;-inkscape-font-specification:'Sans, Normal';text-align:center;letter-spacing:0px;word-spacing:0px;text-anchor:middle;stroke-width:0.264583"
       x="75.53624"
       y="60.791553"
       id="text1-5"><tspan
         sodipodi:role="line"
         style="font-style:normal;font-variant:normal;font-weight:normal;font-stretch:normal;font-size:49.3889px;font-family:Uroob;-inkscape-font-specification:'Uroob, Normal';font-variant-ligatures:normal;font-variant-caps:normal;font-variant-numeric:normal;font-variant-east-asian:normal;stroke-width:0.264583"
         x="75.53624"
         y="60.791553"
         id="tspan2-1">Crackle</tspan></text>
    <text
       xml:space="preserve"
       style="font-size:12.7px;line-height:1.25;font-family:Sans;-inkscape-font-specification:'Sans, Normal';text-align:start;letter-spacing:0px;word-spacing:0px;text-anchor:start;stroke-width:0.264583"
       x="26.057415"
       y="122.31591"
       id="text3"><tspan
         sodipodi:role="line"
         id="tspan3"
         style="stroke-width:0.264583"
         x="26.057415"
         y="122.31591">Gweike</tspan><tspan
         sodipodi:role="line"
         style="stroke-width:0.264583"
         x="26.057415"
         y="138.1909"
         id="tspan4">150W Laser Cutter/Engraver</tspan><tspan
         sodipodi:role="line"
         style="stroke-width:0.264583"
         x="26.057415"
         y="154.0659"
         id="tspan5">Ruida Controller</tspan></text>
    <path
       d="m 176.16663,53.318301 c -2.35,-2.964339 -4.17718,-6.674228 -5.13293,-10.422023 l -0.75624,-2.965533 -0.60738,0.813799 c -1.18538,1.588244 -2.6044,4.664969 -3.19695,6.931665 -0.33044,1.264126 -0.72382,2.291901 -0.8741,2.283906 -0.42905,-0.02285 -2.32971,-3.570426 -3.21153,-5.994416 -0.98233,-2.700275 -1.53872,-5.906854 -1.51465,-8.729401 0.01,-1.172221 -0.12974,-2.139167 -0.31051,-2.148766 -0.48812,-0.02606 -2.90551,3.855212 -3.37656,5.421342 -0.33,1.097167 -0.52008,1.332908 -0.98534,1.222002 -0.76554,-0.182463 -4.62962,-5.092069 -6.09294,-7.745793 -1.73539,-3.143002 -2.82236,-7.887998 -2.55664,-11.160284 l 0.22588,-2.781723 1.93785,0.08 c 1.06584,0.04398 2.18617,-0.11643 2.48962,-0.356472 0.30353,-0.240072 1.71537,-2.203895 3.13756,-4.364087 1.42222,-2.160222 2.67278,-3.9230298 2.77906,-3.9173868 0.10647,0.0055 -0.14661,1.5292448 -0.56197,3.3857508 -0.96445,4.310825 -1.30533,11.120045 -0.7101,14.184676 0.25441,1.309856 0.54931,2.381637 0.6553,2.381737 0.10591,2.39e-4 1.02335,-1.059205 2.03855,-2.353986 1.01519,-1.294788 2.78149,-3.134012 3.92513,-4.087175 l 2.07936,-1.733078 -0.65123,3.752975 c -0.35817,2.064137 -0.66347,5.012986 -0.67842,6.552991 -0.0284,2.927536 0.73303,8.706773 1.15013,8.728947 0.13287,0.0072 0.87876,-1.108139 1.65737,-2.478257 1.49518,-2.631129 4.43911,-6.770376 5.48216,-7.70804 l 0.6203,-0.557628 -0.21592,0.932549 c -0.32364,1.397732 0.009,7.97111 0.56533,11.186851 0.58777,3.394659 1.88678,7.706761 3.40792,11.31292 l 1.11583,2.64535 z"
       style="fill:#000000;stroke-width:1.02393"
       id="path1" />
    <path
       d="m 191.3934,53.647269 c 1.1564,-3.60174 3.22319,-7.183676 5.80617,-10.062499 l 2.04386,-2.277921 -1.01413,-0.05212 c -1.97922,-0.101707 -5.32538,0.430325 -7.53868,1.198645 -1.23434,0.428508 -2.30727,0.673249 -2.38421,0.543912 -0.21965,-0.369268 1.67138,-3.921989 3.19534,-6.003062 1.69767,-2.318273 4.053,-4.564182 6.41205,-6.114102 0.97973,-0.643689 1.70558,-1.297642 1.61301,-1.453209 -0.24984,-0.420143 -4.81992,-0.270304 -6.38344,0.209328 -1.09534,0.336009 -1.39698,0.309165 -1.56359,-0.139173 -0.27417,-0.737684 1.6567,-6.679663 3.04814,-9.371768 1.64674,-3.190347 4.98545,-6.732871 7.85266,-8.332118 l 2.43736,-1.3595 1.01137,1.654933 c 0.55628,0.910221 1.31272,1.752042 1.68099,1.870709 0.36834,0.118716 2.78563,0.199722 5.37188,0.180107 2.58629,-0.01961 4.74683,0.03917 4.80125,0.130636 0.0547,0.09154 -1.35241,0.728739 -3.12627,1.416161 -4.11892,1.596216 -9.96728,5.100273 -12.18304,7.299507 -0.94705,0.939978 -1.67372,1.781186 -1.61485,1.869324 0.0587,0.08815 1.44944,0.26131 3.09012,0.384817 1.64069,0.123495 4.15159,0.568375 5.57981,0.988632 l 2.59682,0.764086 -3.4811,1.546235 c -1.91461,0.850435 -4.53504,2.236891 -5.82316,3.08103 -2.44871,1.604718 -6.82799,5.451957 -6.61442,5.810918 0.0679,0.114426 1.40968,0.113932 2.98138,-0.0011 3.01821,-0.220896 8.09554,-0.07665 9.45493,0.268637 l 0.80843,0.205339 -0.89508,0.339252 c -1.34159,0.508471 -6.61933,4.441075 -8.98232,6.69203 -2.49418,2.376599 -5.3552,5.854559 -7.50601,9.124466 l -1.57776,2.398668 z"
       style="fill:#000000;stroke-width:1.02393"
       id="path1-0" />
    <path
       d="m 174.57618,66.14247 c -3.24174,1.949592 -7.15567,3.284889 -10.99521,3.751112 l -3.03812,0.36889 0.729,0.706919 c 1.42275,1.379649 4.29162,3.182273 6.46337,4.061185 1.21119,0.490148 2.17989,1.012339 2.15264,1.16036 -0.0778,0.422557 -3.8402,1.851581 -6.35741,2.414603 -2.80412,0.627191 -6.05561,0.766915 -8.85166,0.380337 -1.16122,-0.160555 -2.1381,-0.146227 -2.17086,0.03181 -0.0886,0.480726 3.44989,3.376835 4.9425,4.045226 1.04566,0.468258 1.25503,0.687057 1.08525,1.1342 -0.27932,0.735752 -5.64477,3.936889 -8.46453,5.047072 -3.33995,1.31711 -8.18528,1.785324 -11.39629,1.101306 l -2.72963,-0.581464 0.32835,-1.911508 c 0.18058,-1.051352 0.16547,-2.183002 -0.0336,-2.514783 -0.19909,-0.33187 -1.96519,-1.984357 -3.92472,-3.672346 -1.95956,-1.688025 -3.54705,-3.154743 -3.52779,-3.259414 0.0191,-0.104921 1.49772,0.341903 3.28546,0.992384 4.15115,1.510412 10.86011,2.723474 13.97582,2.526988 1.3317,-0.08397 2.43249,-0.238699 2.4462,-0.343801 0.0139,-0.104972 -0.91891,-1.150974 -2.0725,-2.324139 -1.15361,-1.173166 -2.7506,-3.161161 -3.5489,-4.417807 l -1.4515,-2.284823 3.63817,1.128097 c 2.001,0.620453 4.88616,1.302155 6.41148,1.514873 2.89962,0.404366 8.72878,0.391899 8.80437,-0.01889 0.0242,-0.130834 -0.98602,-1.013872 -2.24475,-1.962082 -2.41717,-1.820888 -6.1438,-5.272315 -6.93965,-6.427212 l -0.47329,-0.686811 0.89706,0.333961 c 1.34455,0.500569 7.90618,1.015385 11.16675,0.876907 3.44205,-0.146676 7.88532,-0.880803 11.65705,-1.925924 l 2.76681,-0.766645 z"
       style="fill:#000000;stroke-width:1.02393"
       id="path1-0-4"
       inkscape:transform-center-x="1.1431629"
       inkscape:transform-center-y="-2.4472183" />
    <path
       d="m 213.22608,70.406599 c 3.38338,1.691891 6.60843,4.28051 9.0599,7.272121 l 1.93976,2.367191 0.20609,-0.994331 c 0.40221,-1.940592 0.38644,-5.328748 -0.0355,-7.633296 -0.23535,-1.285236 -0.31369,-2.382929 -0.17412,-2.439253 0.39844,-0.160801 3.6214,2.249663 5.44586,4.073027 2.03241,2.031193 3.89306,4.701342 5.06529,7.269072 0.48683,1.066403 1.0225,1.883446 1.19036,1.815676 0.45332,-0.182883 1.00183,-4.722403 0.76613,-6.340756 -0.16512,-1.133759 -0.0926,-1.427782 0.37588,-1.524101 0.77085,-0.15853 6.34908,2.655498 8.79763,4.441026 2.90206,2.113793 5.89428,5.953466 7.0378,9.03094 l 0.9721,2.616106 -1.78976,0.747298 c -0.98438,0.411036 -1.93166,1.030318 -2.10508,1.376192 -0.17347,0.345948 -0.62199,2.722644 -0.99682,5.281656 -0.37484,2.559063 -0.76226,4.685393 -0.86095,4.725233 -0.0988,0.0401 -0.51408,-1.44768 -0.92308,-3.305597 -0.94973,-4.314096 -3.52139,-10.628224 -5.35719,-13.153314 -0.78464,-1.079266 -1.50525,-1.925671 -1.60133,-1.880917 -0.0961,0.04453 -0.47919,1.392667 -0.85134,2.995347 -0.37214,1.6027 -1.19455,4.016441 -1.82759,5.363922 l -1.15099,2.449999 -0.99755,-3.676109 c -0.54866,-2.021867 -1.51949,-4.823004 -2.15742,-6.224743 -1.21272,-2.6647 -4.34748,-7.579231 -4.7348,-7.422875 -0.12344,0.04967 -0.32747,1.375842 -0.45336,2.946718 -0.24174,3.016606 -1.15822,8.012623 -1.70668,9.303498 l -0.32617,0.767677 -0.19885,-0.936331 c -0.29803,-1.40341 -3.38021,-7.218914 -5.24468,-9.897403 -1.96865,-2.827296 -4.96987,-6.185011 -7.87373,-8.80911 l -2.13014,-1.924948 z"
       style="fill:#000000;stroke-width:1.02393"
       id="path1-0-4-9"
       inkscape:transform-center-x="3.7490712"
       inkscape:transform-center-y="5.5030979" />
    <path
       d="m 184.57126,64.793692 c 0,-0.15201 0.4347,-2.72164 0.96601,-5.71029 0.53131,-2.98867 0.96601,-5.64006 0.96601,-5.892 0,-0.49988 -0.36223,-0.46724 -1.55635,0.14025 -0.54897,0.27926 -0.59036,0.26971 -0.59036,-0.13631 0,-0.24014 0.24356,-1.46741 0.54126,-2.72726 0.29767,-1.259857 0.46107,-2.37083 0.36306,-2.468823 -0.0979,-0.09798 -0.75211,0.05628 -1.45358,0.342776 -0.7015,0.286521 -1.3041,0.442871 -1.33913,0.347449 -0.035,-0.09543 0.23047,-1.270884 0.59002,-2.612126 0.35954,-1.341239 0.65385,-2.559367 0.65403,-2.706954 4.6e-4,-0.372336 -0.69781,-0.330544 -2.56099,0.153291 -0.87741,0.227851 -1.66182,0.373159 -1.74314,0.322902 -0.13849,-0.08565 2.52229,-9.609158 3.04036,-10.881773 0.24153,-0.593275 3.57986,-3.933563 3.75559,-3.757813 0.0893,0.08937 -1.83789,5.922616 -3.30546,10.004715 l -0.64657,1.79844 0.99863,-0.133081 c 0.54921,-0.07319 1.40914,-0.194862 1.91095,-0.270337 1.1147,-0.167682 1.11143,-0.192538 0.36428,2.754934 -0.30144,1.189163 -0.50135,2.28388 -0.44424,2.432703 0.0812,0.211441 0.31565,0.194434 1.07283,-0.07786 0.53296,-0.191659 1.03406,-0.283402 1.11355,-0.203885 0.0794,0.07951 -0.0954,1.187738 -0.3888,2.462735 -0.29334,1.275003 -0.46853,2.391042 -0.38934,2.480096 0.0792,0.08905 0.65548,0.0099 1.28058,-0.175599 0.6251,-0.185637 1.1841,-0.289983 1.24218,-0.231886 0.0961,0.09598 -4.17713,14.723546 -4.36223,14.932646 -0.0435,0.0492 -0.0792,-0.0349 -0.0792,-0.18692 z"
       style="fill:#000000;stroke-width:0.596796"
       id="path1-9" />
    <path
       d="m 188.98031,74.143055 c 0.12565,0.08555 2.00505,1.891043 4.17645,4.012214 2.17141,2.121182 4.11839,3.972688 4.32665,4.114479 0.4132,0.281329 0.59008,-0.03646 0.75997,-1.365408 0.0781,-0.610943 0.10931,-0.639781 0.44492,-0.411276 0.1985,0.135149 1.07589,1.027175 1.94973,1.982288 0.87387,0.955092 1.70024,1.715406 1.8364,1.689541 0.13609,-0.02578 0.37676,-0.653367 0.53473,-1.394438 0.15796,-0.741111 0.36786,-1.327211 0.46645,-1.302464 0.0986,0.02478 0.9208,0.905751 1.82712,1.957796 0.90632,1.052035 1.74758,1.980865 1.86948,2.064074 0.30751,0.209929 0.66595,-0.39078 1.31459,-2.203179 0.30546,-0.853499 0.62681,-1.583668 0.71412,-1.622603 0.14874,-0.06627 6.52338,7.492887 7.28376,8.637341 0.35447,0.53354 1.23675,5.172887 0.99258,5.219234 -0.12413,0.02352 -3.86127,-4.852403 -6.40959,-8.36287 l -1.1227,-1.546603 -0.45202,0.900362 c -0.24859,0.495167 -0.63198,1.274459 -0.85201,1.731731 -0.48874,1.015779 -0.46635,1.027065 -2.48223,-1.249345 -0.81331,-0.918422 -1.6057,-1.699766 -1.76086,-1.736316 -0.22047,-0.05188 -0.33836,0.15149 -0.53942,0.930618 -0.14152,0.548408 -0.3477,1.014248 -0.45816,1.035203 -0.11041,0.02088 -0.9281,-0.747308 -1.81688,-1.707391 -0.88883,-0.960037 -1.71275,-1.732948 -1.83093,-1.717609 -0.11818,0.01535 -0.37708,0.536247 -0.57555,1.157351 -0.19835,0.621181 -0.4267,1.141975 -0.50741,1.157287 -0.13342,0.02542 -9.81959,-11.739117 -9.88826,-12.0098 -0.0162,-0.06365 0.0734,-0.04583 0.19908,0.03973 z"
       style="fill:#000000;stroke-width:0.596796"
       id="path1-9-75" />
    <path
       d="m 196.91513,69.085817 c 0.0809,-0.111466 1.76829,-1.764206 3.74962,-3.672751 1.98135,-1.908559 3.71222,-3.621252 3.8464,-3.805994 0.26624,-0.366552 -0.0168,-0.535539 -1.21593,-0.726061 -0.55128,-0.0876 -0.57655,-0.116649 -0.36031,-0.414375 0.12791,-0.17609 0.96014,-0.946304 1.84943,-1.711573 0.88926,-0.765291 1.60078,-1.492919 1.5811,-1.616975 -0.0196,-0.123988 -0.58148,-0.359301 -1.24844,-0.522817 -0.66699,-0.163515 -1.19214,-0.369808 -1.16701,-0.458436 0.0252,-0.08862 0.84587,-0.809167 1.82386,-1.601179 0.97797,-0.792015 1.84255,-1.528495 1.92129,-1.636623 0.19864,-0.272781 -0.33564,-0.61403 -1.95956,-1.251562 -0.76475,-0.300226 -1.41733,-0.611446 -1.45019,-0.691609 -0.0559,-0.136564 6.96732,-5.702846 8.02501,-6.360108 0.49308,-0.3064 4.72003,-0.977791 4.75528,-0.755324 0.0179,0.113094 -4.50204,3.364086 -7.75227,5.575789 l -1.43196,0.974401 0.80315,0.434278 c 0.4417,0.238837 1.13708,0.607612 1.54524,0.819528 0.9067,0.470725 0.91754,0.450757 -1.20014,2.214152 -0.85438,0.711444 -1.58402,1.407707 -1.6214,1.547253 -0.053,0.198291 0.1279,0.310687 0.82816,0.514289 0.49288,0.143312 0.90919,0.342921 0.92512,0.443566 0.0159,0.100591 -0.70253,0.820135 -1.59673,1.598801 -0.89416,0.778703 -1.61702,1.503767 -1.60638,1.611245 0.0107,0.10748 0.47538,0.356364 1.03255,0.553266 0.55724,0.196801 1.02272,0.418006 1.03436,0.491541 0.0194,0.121563 -10.90468,8.571766 -11.15178,8.626511 -0.0581,0.01291 -0.0395,-0.06777 0.0415,-0.179246 z"
       style="fill:#000000;stroke-width:0.540868"
       id="path1-9-7" />
    <circle
       style="opacity:1;fill:#000000;fill-opacity:1;fill-rule:evenodd;stroke:#000000;stroke-width:0.333274;stroke-linecap:butt;stroke-linejoin:miter;stroke-miterlimit:4;stroke-dasharray:none;stroke-dashoffset:0;stroke-opacity:1"
       id="path2"
       cx="185.82182"
       cy="69.427879"
       r="5.8453674" />
    <rect
       style="fill:#000000;fill-rule:evenodd;stroke:#000000;stroke-width:0.499999;stroke-linecap:square;stroke-linejoin:round;stroke-dasharray:none;paint-order:markers stroke fill;fill-opacity:1"
       id="rect2"
       width="7.8949366"
       height="26.692406"
       x="181.8428"
       y="77.333092" />
    <ellipse
       style="opacity:1;fill:#000000;fill-opacity:1;fill-rule:evenodd;stroke:#000000;stroke-width:0.499999;stroke-linecap:butt;stroke-linejoin:miter;stroke-miterlimit:4;stroke-dasharray:none;stroke-dashoffset:0;stroke-opacity:1"
       id="path3"
       cx="185.02209"
       cy="83.273232"
       rx="9.0384359"
       ry="1.2627227" />
    <ellipse
       style="fill:#000000;fill-opacity:1;fill-rule:evenodd;stroke:#000000;stroke-width:0.499999;stroke-linecap:butt;stroke-linejoin:miter;stroke-miterlimit:4;stroke-dasharray:none;stroke-dashoffset:0;stroke-opacity:1"
       id="path3-9"
       cx="185.3392"
       cy="87.924866"
       rx="9.0384359"
       ry="1.2627227" />
    <ellipse
       style="fill:#000000;fill-opacity:1;fill-rule:evenodd;stroke:#000000;stroke-width:0.499999;stroke-linecap:butt;stroke-linejoin:miter;stroke-miterlimit:4;stroke-dasharray:none;stroke-dashoffset:0;stroke-opacity:1"
       id="path3-8"
       cx="185.5022"
       cy="93.081108"
       rx="9.0384359"
       ry="1.2627227" />
  </g>
</svg>
