<?xml version="1.0" encoding="UTF-8" standalone="no"?>
<!-- Created with Inkscape (http://www.inkscape.org/) -->

<svg
   width="11in"
   height="8.5in"
   viewBox="0 0 279.4 215.9"
   version="1.1"
   id="svg1"
   inkscape:version="1.4.3 (fcd0343856, 2026-01-01)"
   sodipodi:docname="NameplatePop.svg"
   xmlns:inkscape="http://www.inkscape.org/namespaces/inkscape"
   xmlns:sodipodi="http://sodipodi.sourceforge.net/DTD/sodipodi-0.dtd"
   xmlns="http://www.w3.org/2000/svg"
   xmlns:svg="http://www.w3.org/2000/svg">
  <sodipodi:namedview
     id="namedview1"
     pagecolor="#ffffff"
     bordercolor="#666666"
     borderopacity="1.0"
     inkscape:showpageshadow="2"
     inkscape:pageopacity="0.0"
     inkscape:pagecheckerboard="0"
     inkscape:deskcolor="#d1d1d1"
     inkscape:document-units="mm"
     inkscape:zoom="0.70377385"
     inkscape:cx="397.14462"
     inkscape:cy="561.25984"
     inkscape:window-width="1920"
     inkscape:window-height="995"
     inkscape:window-x="1920"
     inkscape:window-y="24"
     inkscape:window-maximized="1"
     inkscape:current-layer="layer1" />
  <defs
     id="defs1" />
  <g
     inkscape:label="Layer 1"
     inkscape:groupmode="layer"
     id="layer1">
    <text
       xml:space="preserve"
       style="font-size:12.7px;line-height:1.25;font-family:Sans;-inkscape-font-specification:'Sans, Normal';text-align:center;letter-spacing:0px;word-spacing:0px;text-anchor:middle;stroke-width:0.264583"
       x="77.821526"
       y="69.174683"
       id="text1"><tspan
         sodipodi:role="line"
         style="font-style:normal;font-variant:normal;font-weight:normal;font-stretch:normal;font-size:49.3889px;font-family:Uroob;-inkscape-font-specification:'Uroob, Normal';font-variant-ligatures:normal;font-variant-caps:normal;font-variant-numeric:normal;font-variant-east-asian:normal;stroke-width:0.264583"
         x="77.821526"
         y="69.174683"
         id="tspan2">Pop</tspan></text>
    <g
       id="g51"
       transform="matrix(0.26458333,0,0,0.26458333,122.06205,2.3076402)">
      <g
         id="g17">
        <path
           d="m 237.38,158.27 c -1.41,2.77 -2.76,5.56 -4.12,8.35 -2.66,5.61 -5.2,11.26 -7.41,17.06 -0.06,0.17 0.01,0.36 0.17,0.44 0.17,0.09 0.38,0.01 0.47,-0.16 l 0.01,-0.01 c 5.47,-11.05 11.61,-21.78 18.24,-32.15 6.57,-10.41 13.6,-20.51 21.05,-30.26 l 2.8,-3.65 c 0.93,-1.22 1.95,-2.37 2.92,-3.55 l 5.91,-7.04 c 2.04,-2.29 4.05,-4.59 6.01,-6.94 1.93,-2.38 3.93,-4.69 5.92,-7 7.71,-9.54 16.02,-18.49 23.84,-28.26 l 0.01,-0.01 c 0.09,-0.12 0.11,-0.28 0.02,-0.41 -0.11,-0.16 -0.33,-0.21 -0.49,-0.1 -2.62,1.7 -5.13,3.55 -7.66,5.39 l -3.75,2.83 c -1.24,0.96 -2.39,2.01 -3.58,3.02 -2.36,2.04 -4.69,4.13 -7,6.23 -2.27,2.14 -4.41,4.41 -6.6,6.65 l -3.22,3.4 c -1.07,1.14 -2.03,2.37 -3.05,3.56 -1.99,2.4 -3.94,4.85 -5.86,7.31 l -5.44,7.62 c -1.84,2.52 -3.58,5.1 -5.33,7.68 -3.58,5.1 -6.88,10.37 -10.22,15.62 l -4.76,8.02 c -1.56,2.69 -3.04,5.42 -4.56,8.13 -1.49,2.71 -2.88,5.49 -4.32,8.23 z"
           id="path1" />
        <path
           d="m 276.32,181.83 c 4.17,-1.67 8.44,-3.1 12.67,-4.57 4.28,-1.34 8.66,-2.47 13.04,-3.4 2.16,-0.54 4.3,-1.1 6.42,-1.67 2.11,-0.59 4.17,-1.32 6.22,-2.09 4.13,-1.34 8.19,-3.13 12.37,-4.67 4.16,-1.86 8.41,-3.29 12.9,-5.75 l 0.07,-0.04 c 0.16,-0.09 0.28,-0.21 0.35,-0.38 0.17,-0.4 -0.06,-0.84 -0.52,-0.98 -4.82,-1.56 -9.94,-2.55 -14.93,-2.6 -5.08,-0.29 -9.99,0.29 -14.92,0.98 -4.79,0.95 -9.55,2.22 -13.85,4.28 -4.4,1.9 -8.49,4.22 -12.75,6.19 -4.15,2.14 -8.31,4.23 -12.29,6.53 l -2.98,1.74 -2.92,1.81 c -1.94,1.21 -3.89,2.4 -5.77,3.67 -7.54,5.06 -14.81,10.34 -21.43,16.26 -0.25,0.22 -0.31,0.57 -0.12,0.85 0.23,0.34 0.73,0.45 1.12,0.25 l 0.02,-0.01 c 8.09,-4.09 16.33,-7.9 24.69,-11.38 2.06,-0.91 4.17,-1.73 6.27,-2.58 l 3.14,-1.26 z"
           id="path2" />
        <path
           d="m 336.51,187.79 c -4.21,0.22 -8.35,0.79 -12.42,1.69 -4.07,0.9 -8.12,1.91 -12.21,2.68 l -12.26,2.39 -12.23,2.56 c -8.14,1.78 -16.27,3.54 -24.37,5.52 -0.29,0.07 -0.5,0.29 -0.49,0.55 0.01,0.31 0.33,0.54 0.71,0.53 8.45,-0.26 16.85,-0.73 25.26,-1.18 l 12.59,-0.77 12.55,-0.92 c 4.18,-0.33 8.41,-0.42 12.61,-0.62 4.2,-0.2 8.34,-0.71 12.41,-1.58 4.07,-0.86 8.1,-1.91 12.08,-3.2 3.98,-1.29 7.92,-2.8 11.77,-4.8 l 0.02,-0.01 c 0.14,-0.07 0.25,-0.19 0.31,-0.33 0.12,-0.32 -0.1,-0.65 -0.49,-0.75 -4.46,-1.12 -8.8,-1.53 -13.11,-1.79 -4.27,-0.21 -8.53,-0.2 -12.73,0.03 z"
           id="path3" />
        <path
           d="m 377.13,284.83 c -6.93,-10.39 -16.17,-19.2 -26.33,-26.51 -10.15,-7.44 -21.7,-12.54 -33.18,-17.26 -5.76,-2.35 -11.58,-4.51 -17.48,-6.43 -5.91,-1.89 -11.87,-3.59 -17.87,-5.1 -6.01,-1.48 -12.06,-2.77 -18.13,-3.86 -6.08,-1.1 -12.18,-2 -18.34,-2.54 -0.18,-0.01 -0.34,0.11 -0.37,0.29 -0.03,0.19 0.09,0.37 0.28,0.41 h 0.01 c 12.06,2.21 23.96,5.3 35.59,9.07 5.82,1.86 11.58,3.9 17.26,6.12 5.69,2.18 11.29,4.6 16.79,7.18 5.52,2.56 10.84,5.49 16.04,8.57 5.23,3.04 10.36,6.2 15.49,9.37 5.16,3.14 10.12,6.57 15.08,10.06 4.97,3.5 9.7,7.32 14.64,11.11 l 0.01,0.01 c 0.12,0.09 0.28,0.1 0.41,0.01 0.16,-0.12 0.21,-0.34 0.1,-0.5 z"
           id="path4" />
        <path
           d="m 304.03,264.76 c -0.56,-0.66 -1.1,-1.34 -1.69,-1.98 -0.59,-0.62 -1.21,-1.22 -1.83,-1.82 -1.24,-1.19 -2.49,-2.39 -3.82,-3.48 -1.34,-1.06 -2.72,-2.09 -4.11,-3.11 -1.37,-1.04 -2.87,-1.88 -4.35,-2.73 -1.5,-0.82 -3,-1.66 -4.58,-2.31 l -4.72,-2 c -1.59,-0.61 -3.18,-1.23 -4.75,-1.87 -1.56,-0.66 -3.17,-1.22 -4.76,-1.8 -1.59,-0.58 -3.18,-1.17 -4.8,-1.67 -3.22,-1.05 -6.47,-1.98 -9.72,-2.86 -3.28,-0.82 -6.56,-1.59 -9.86,-2.25 -3.3,-0.69 -6.61,-1.24 -9.96,-1.63 -0.17,-0.02 -0.33,0.08 -0.38,0.25 -0.05,0.19 0.05,0.38 0.24,0.44 h 0.01 c 6.4,1.87 12.71,4.03 18.85,6.52 3.08,1.23 6.14,2.5 9.14,3.88 1.52,0.64 3.01,1.35 4.5,2.06 1.49,0.71 2.99,1.39 4.43,2.17 1.46,0.77 2.91,1.52 4.34,2.34 l 4.2,2.55 c 1.43,0.8 2.78,1.71 4.2,2.52 1.4,0.83 2.88,1.53 4.28,2.35 5.83,2.99 11.39,6.27 17.74,9.12 l 0.01,0.01 c 0.11,0.05 0.24,0.04 0.34,-0.03 0.17,-0.11 0.22,-0.33 0.11,-0.5 -0.91,-1.46 -1.99,-2.8 -3.06,-4.17 z"
           id="path5" />
        <path
           d="m 290.58,301.65 c 0.2,-0.05 0.31,-0.26 0.26,-0.45 -0.4,-1.5 -0.96,-2.91 -1.51,-4.34 -0.55,-1.43 -1.24,-2.78 -1.96,-4.1 -0.73,-1.32 -1.45,-2.66 -2.28,-3.91 -0.83,-1.25 -1.7,-2.48 -2.58,-3.69 -0.87,-1.23 -1.88,-2.33 -2.88,-3.44 -1.02,-1.1 -2.06,-2.17 -3.19,-3.15 l -3.37,-2.95 c -1.15,-0.95 -2.28,-1.92 -3.4,-2.89 -1.11,-0.99 -2.27,-1.92 -3.4,-2.87 -1.14,-0.95 -2.28,-1.9 -3.45,-2.81 -2.33,-1.83 -4.71,-3.59 -7.1,-5.33 -2.42,-1.7 -4.86,-3.37 -7.34,-4.98 -2.46,-1.63 -4.98,-3.17 -7.55,-4.62 -0.14,-0.08 -0.33,-0.05 -0.44,0.08 -0.13,0.15 -0.11,0.37 0.04,0.49 l 0.01,0.01 c 4.47,3.79 8.86,7.66 13.05,11.72 2.11,2.01 4.21,4.03 6.24,6.11 1.04,1.01 2.06,2.05 3.06,3.09 1.01,1.05 2.03,2.07 3,3.14 0.98,1.07 1.95,2.14 2.9,3.24 l 2.75,3.36 c 0.94,1.09 1.85,2.21 2.8,3.28 0.95,1.08 2,2.07 2.98,3.11 4.13,4.03 8.14,8.1 13.04,11.84 0.09,0.06 0.21,0.09 0.32,0.06 z"
           id="path6" />
        <path
           d="m 274.52,328.75 c -1.19,-3.14 -2.36,-6.28 -3.6,-9.38 -1.26,-3.09 -2.57,-6.13 -3.89,-9.16 -2.71,-6.02 -5.48,-11.97 -8.56,-17.7 -0.13,-0.24 -0.36,-0.37 -0.57,-0.3 -0.27,0.1 -0.4,0.47 -0.31,0.84 v 0.01 c 1.66,6.53 3.34,13.02 4.89,19.53 0.8,3.24 1.59,6.48 2.32,9.73 0.8,3.22 1.53,6.46 2.27,9.68 0.71,3.23 1.24,6.53 1.75,9.8 0.57,3.26 1.28,6.41 2.36,9.46 0.98,3.07 2.2,6.09 3.46,9.12 1.37,3.03 2.71,6.06 4.67,9.16 l 0.02,0.03 c 0.06,0.1 0.15,0.18 0.24,0.24 0.3,0.17 0.63,-0.01 0.73,-0.41 0.88,-3.53 1.23,-7.15 1.22,-10.69 0.05,-3.58 -0.29,-7.06 -0.76,-10.54 -0.55,-3.43 -1.37,-6.8 -2.59,-9.97 -1.17,-3.19 -2.53,-6.27 -3.65,-9.45 z"
           id="path7" />
        <path
           d="m 231.16,317.19 c -1.06,-5.08 -2.29,-10.11 -3.69,-15.08 -1.43,-4.97 -3.05,-9.87 -4.79,-14.71 -1.78,-4.83 -3.71,-9.61 -5.77,-14.31 -2.07,-4.7 -4.27,-9.34 -6.76,-13.84 -0.08,-0.15 -0.27,-0.22 -0.44,-0.15 -0.18,0.07 -0.26,0.28 -0.19,0.46 v 0.01 c 3.89,9.43 7.16,19.1 9.82,28.91 1.36,4.89 2.58,9.82 3.61,14.77 1.07,4.95 1.96,9.92 2.69,14.91 1.41,10 1.42,20.04 1.75,29.97 0.09,4.98 0,9.95 -0.22,14.97 -0.27,5.01 -0.8,10.02 -1.33,15.19 v 0.01 c -0.01,0.14 0.06,0.28 0.19,0.35 0.17,0.09 0.39,0.03 0.48,-0.15 2.47,-4.6 4.24,-9.57 5.55,-14.66 1.22,-5.1 2,-10.32 2.33,-15.57 0.28,-5.24 0.1,-10.5 -0.56,-15.68 -0.71,-5.2 -1.66,-10.32 -2.67,-15.4 z"
           id="path8" />
        <path
           d="m 188.98,262.11 c -2.61,6.42 -4.92,12.97 -7.27,19.52 -1.12,3.29 -2.23,6.6 -3.31,9.92 -1.04,3.33 -2.07,6.67 -3.06,10.04 l -3.05,10.09 c -0.96,3.4 -1.74,6.85 -2.16,10.42 -0.2,1.79 -0.43,3.55 -0.52,5.36 -0.09,1.81 -0.16,3.62 -0.17,5.43 0.06,1.84 0.15,3.66 0.31,5.48 0.25,1.84 0.56,3.66 1,5.43 0.03,0.12 0.11,0.22 0.21,0.27 0.19,0.08 0.4,-0.02 0.47,-0.23 l 0.01,-0.04 c 0.61,-1.74 1.01,-3.43 1.48,-5.1 0.52,-1.68 0.98,-3.34 1.4,-5 0.5,-1.66 0.94,-3.32 1.36,-4.98 0.42,-1.66 0.89,-3.32 1.29,-4.98 0.39,-1.67 0.79,-3.34 1.13,-5.03 0.34,-1.69 0.6,-3.4 0.89,-5.11 l 0.79,-5.16 c 0.28,-1.72 0.61,-3.43 0.93,-5.14 0.67,-3.41 1.39,-6.82 2.12,-10.22 0.7,-3.42 1.44,-6.82 2.19,-10.23 1.43,-6.84 3.04,-13.63 4.59,-20.46 0.04,-0.18 -0.04,-0.38 -0.19,-0.46 -0.15,-0.11 -0.36,-0.02 -0.44,0.18 z"
           id="path9" />
        <path
           d="m 157.5,285.49 c 0.11,-0.22 0.09,-0.51 -0.09,-0.7 -0.21,-0.23 -0.57,-0.24 -0.79,-0.01 -4.19,4.31 -8.15,8.82 -12.1,13.37 l -5.79,6.93 c -1.87,2.36 -3.73,4.74 -5.58,7.14 -1.82,2.42 -3.83,4.71 -5.73,7.11 -1.89,2.41 -3.5,5.04 -4.74,7.92 -1.24,2.88 -2.28,5.93 -2.95,9.18 -0.17,0.81 -0.32,1.63 -0.42,2.49 -0.12,0.83 -0.18,1.71 -0.22,2.59 -0.04,0.86 0,1.8 0.1,2.69 0.07,0.48 0.15,0.93 0.24,1.38 0.14,0.48 0.3,0.95 0.5,1.35 0.05,0.1 0.12,0.18 0.21,0.24 0.28,0.19 0.64,0.11 0.82,-0.19 l 0.07,-0.12 c 0.79,-1.3 1.83,-2.35 2.78,-3.46 l 2.9,-3.29 c 1.9,-2.21 3.73,-4.48 5.44,-6.85 1.72,-2.36 3.2,-4.9 4.44,-7.62 1.24,-2.72 2.44,-5.51 3.86,-8.15 l 8.54,-15.92 c 2.83,-5.34 5.72,-10.66 8.51,-16.08 z"
           id="path10" />
        <path
           d="m 174.54,252.71 v 0 c 0.16,-0.1 0.22,-0.29 0.14,-0.46 -0.08,-0.17 -0.29,-0.25 -0.47,-0.16 -5.78,2.82 -11.42,5.91 -16.98,9.13 -5.57,3.22 -11.05,6.59 -16.47,10.08 -10.76,7.07 -21.2,14.68 -31.17,22.93 -1.27,1.01 -2.48,2.08 -3.72,3.12 -1.24,1.04 -2.47,2.09 -3.68,3.18 l -3.65,3.22 -3.59,3.3 c -4.71,4.48 -9.17,9.26 -13.16,14.43 -3.94,5.2 -7.67,10.59 -10.79,16.34 -3.11,5.75 -5.75,11.76 -7.52,18.02 -0.04,0.14 0.01,0.3 0.15,0.39 0.16,0.11 0.38,0.06 0.49,-0.1 v 0 c 3.58,-5.39 7.2,-10.59 11.01,-15.63 0.99,-1.24 1.97,-2.47 2.92,-3.73 0.96,-1.25 2,-2.44 3,-3.66 0.51,-0.6 0.99,-1.22 1.49,-1.83 l 1.54,-1.79 c 1.04,-1.18 2.03,-2.4 3.11,-3.56 8.42,-9.33 16.73,-18.88 26.1,-27.49 9.33,-8.62 19.22,-16.69 29.49,-24.27 10.2,-7.66 20.8,-14.84 31.76,-21.46 z"
           id="path11" />
        <path
           d="m 171.1,229.89 c 0.17,-0.01 0.31,-0.14 0.33,-0.32 0.02,-0.19 -0.12,-0.36 -0.31,-0.38 -3.82,-0.37 -7.65,-0.63 -11.48,-0.78 -3.83,-0.18 -7.67,-0.28 -11.51,-0.34 -3.84,-0.01 -7.68,0 -11.53,0.12 -3.84,0.1 -7.69,0.35 -11.53,0.59 -1.92,0.14 -3.85,0.28 -5.78,0.39 -1.93,0.11 -3.85,0.3 -5.79,0.45 l -2.89,0.3 c -0.96,0.15 -1.92,0.28 -2.87,0.45 -1.91,0.35 -3.81,0.69 -5.69,1.18 -3.75,1.02 -7.48,2.1 -11.1,3.6 -3.64,1.38 -7.14,3.21 -10.48,5.26 -0.11,0.07 -0.18,0.19 -0.17,0.33 0.01,0.2 0.18,0.35 0.38,0.34 h 0.01 c 7.85,-0.51 15.25,-1.63 22.72,-2.66 1.86,-0.26 3.73,-0.53 5.58,-0.87 l 5.55,-1.08 c 1.85,-0.38 3.69,-0.82 5.55,-1.16 1.86,-0.35 3.73,-0.66 5.59,-0.97 3.75,-0.54 7.5,-1.1 11.27,-1.51 3.76,-0.5 7.55,-0.89 11.33,-1.26 7.58,-0.8 15.19,-1.32 22.82,-1.68 z"
           id="path12" />
        <path
           d="m 170.77,209.48 1.63,0.73 c 0.54,0.25 0.98,0.56 1.49,0.85 l 0.74,0.44 c 0.23,0.15 0.42,0.33 0.64,0.5 0.42,0.34 0.87,0.67 1.17,1.06 0.36,0.36 0.65,0.8 0.82,1.14 l 0.07,0.14 c 0.11,0.22 0.41,0.35 0.73,0.31 0.36,-0.04 0.6,-0.3 0.54,-0.56 -0.52,-2.32 -2.43,-3.95 -4.38,-5.51 l -1.6,-1.03 c -0.54,-0.34 -1.07,-0.71 -1.67,-0.98 -1.17,-0.57 -2.34,-1.17 -3.53,-1.72 -2.47,-0.92 -4.95,-1.98 -7.56,-2.65 l -3.89,-1.13 c -1.31,-0.34 -2.63,-0.6 -3.95,-0.91 l -3.99,-0.86 c -1.33,-0.3 -2.68,-0.46 -4.02,-0.69 -2.68,-0.41 -5.38,-0.93 -8.08,-1.25 -5.41,-0.56 -10.85,-1.25 -16.28,-1.53 -2.72,-0.2 -5.44,-0.4 -8.16,-0.65 l -8.16,-0.49 c -2.72,-0.12 -5.45,-0.23 -8.17,-0.22 -2.72,0.05 -5.42,0.24 -8.12,0.47 -5.4,0.5 -10.79,1.07 -16.08,2.14 -5.3,1.03 -10.57,2.23 -15.73,3.97 -0.18,0.06 -0.33,0.19 -0.39,0.34 -0.1,0.28 0.12,0.57 0.5,0.65 h 0.02 c 5.51,1.11 10.91,1.68 16.28,2.08 5.36,0.32 10.68,0.71 15.97,0.8 2.65,0.06 5.29,0.03 7.92,-0.05 2.63,-0.01 5.25,-0.15 7.88,-0.3 2.63,-0.18 5.27,-0.39 7.9,-0.55 2.62,-0.11 5.25,-0.16 7.88,-0.21 10.52,-0.14 21.03,0.12 31.32,1.22 1.28,0.14 2.6,0.24 3.87,0.42 l 3.78,0.62 c 2.59,0.34 4.93,1.05 7.43,1.59 1.17,0.36 2.32,0.76 3.51,1.14 0.61,0.18 1.12,0.45 1.67,0.68 z"
           id="path13" />
        <path
           d="m 108.9,157.86 c 5.41,2.09 10.81,4.26 16.08,6.74 5.28,2.46 10.51,5.03 15.69,7.71 5.2,2.66 10.35,5.42 15.46,8.27 10.25,5.64 20.31,11.66 30.18,17.98 h 0.01 c 0.15,0.1 0.35,0.06 0.46,-0.08 0.12,-0.15 0.09,-0.37 -0.06,-0.49 -4.63,-3.64 -9.37,-7.11 -14.18,-10.49 -4.81,-3.39 -9.67,-6.7 -14.6,-9.92 -4.94,-3.2 -9.95,-6.31 -15.01,-9.34 -5.08,-2.99 -10.24,-5.87 -15.45,-8.65 -5.22,-2.78 -10.48,-5.51 -15.83,-8.09 -5.35,-2.58 -10.92,-4.73 -16.62,-6.51 -5.7,-1.78 -11.55,-3.14 -17.49,-3.99 -5.93,-0.82 -11.97,-1.18 -17.92,-0.47 -0.14,0.02 -0.27,0.13 -0.3,0.28 -0.04,0.19 0.08,0.38 0.27,0.42 11.53,2.59 22.38,6.19 33.16,10.37 z"
           id="path14" />
        <path
           d="m 181.4,171.37 c 0.1,-0.26 -0.07,-0.86 -0.36,-1.35 -3.56,-5.82 -7.16,-11.34 -10.78,-16.85 -3.62,-5.49 -7.27,-10.81 -10.95,-15.97 -1.84,-2.57 -3.69,-5.45 -5.56,-8.17 -1.87,-2.71 -3.75,-5.02 -5.63,-6.8 -1.87,-1.8 -3.76,-3.27 -5.58,-4.34 -0.92,-0.5 -1.83,-0.9 -2.69,-1.13 -0.87,-0.15 -1.71,-0.25 -2.42,0.11 -0.01,0.01 -0.02,0.01 -0.03,0.02 -0.21,0.17 -0.1,0.87 0.24,1.55 l 0.04,0.09 c 1.07,2.13 2,3.74 2.93,5.42 0.94,1.7 1.84,3.22 2.71,4.65 1.8,2.99 3.52,5.59 5.28,8.08 0.87,1.2 1.74,2.36 2.62,3.4 0.88,1.04 1.74,1.93 2.63,2.81 1.76,1.7 3.54,3.29 5.33,5.25 3.57,3.9 7.18,7.78 10.81,11.63 3.63,3.83 7.28,7.75 10.95,11.52 l 0.01,0.01 c 0.21,0.21 0.39,0.25 0.45,0.07 z"
           id="path15" />
        <path
           d="m 201.49,179.94 c 0.19,-0.03 0.32,-0.21 0.29,-0.4 -0.92,-5.53 -1.95,-11.04 -3.07,-16.54 -1.1,-5.5 -2.26,-10.98 -3.48,-16.46 -1.24,-5.47 -2.55,-10.93 -3.92,-16.38 -1.4,-5.44 -2.86,-10.86 -4.42,-16.27 -1.56,-5.4 -3.06,-10.84 -4.74,-16.23 -1.69,-5.39 -3.66,-10.7 -6.03,-15.85 -2.36,-5.15 -4.99,-10.21 -8.02,-15.05 -3.06,-4.81 -6.49,-9.48 -10.73,-13.35 -0.11,-0.1 -0.27,-0.12 -0.4,-0.05 -0.17,0.09 -0.24,0.3 -0.15,0.48 v 0 c 5.13,10.01 8.95,20.28 12.83,30.64 1.94,5.17 3.89,10.35 5.97,15.5 2.09,5.14 4.11,10.34 5.93,15.6 1.84,5.26 3.59,10.55 5.28,15.87 1.73,5.3 3.4,10.63 5.01,15.98 3.3,10.68 6.32,21.45 9.24,32.25 0.06,0.18 0.23,0.29 0.41,0.26 z"
           id="path16" />
        <path
           d="m 237.36,109.71 c -0.55,0.49 -1.05,1.02 -1.57,1.55 -1.03,1.05 -2.02,2.14 -2.99,3.25 -0.93,1.13 -1.78,2.32 -2.65,3.51 -1.77,2.35 -3.04,5 -4.27,7.64 -1.06,2.73 -2.15,5.43 -3.13,8.17 -1.06,2.7 -1.94,5.47 -2.83,8.21 l -1.18,4.17 -1.04,4.2 c -0.31,1.41 -0.59,2.82 -0.88,4.23 -0.26,1.42 -0.52,2.83 -0.75,4.25 -0.46,2.84 -0.82,5.68 -0.99,8.56 -0.01,0.16 0.1,0.32 0.26,0.36 0.19,0.05 0.38,-0.06 0.43,-0.25 v -0.02 c 1.45,-5.48 3.18,-10.87 5.27,-16.11 l 1.56,-3.92 1.68,-3.86 c 1.16,-2.55 2.29,-5.11 3.59,-7.58 2.49,-5.01 5.85,-9.48 8.26,-14.44 2.4,-5.02 5.07,-9.84 7.09,-15.51 v -0.01 c 0.04,-0.1 0.03,-0.22 -0.03,-0.32 -0.11,-0.17 -0.33,-0.23 -0.51,-0.12 -1.28,0.79 -2.44,1.7 -3.62,2.61 -0.57,0.47 -1.14,0.94 -1.7,1.43 z"
           id="path17" />
      </g>
      <g
         id="g50">
        <polygon
           points="350.49,230.59 358.36,230.14 363.19,236.36 365.19,228.74 372.6,226.06 365.97,221.81 365.71,213.94 359.62,218.93 352.05,216.74 354.92,224.08 "
           id="polygon17" />
        <polygon
           points="313.75,223.93 316.88,227.96 318.17,223.03 322.97,221.3 318.68,218.54 318.51,213.45 314.57,216.68 309.67,215.26 311.52,220.01 308.66,224.23 "
           id="polygon18" />
        <polygon
           points="273.27,219.87 275.74,223.05 276.76,219.16 280.55,217.79 277.16,215.62 277.03,211.59 273.91,214.14 270.04,213.02 271.51,216.77 269.25,220.11 "
           id="polygon19" />
        <polygon
           points="300.83,119.8 295.49,115.25 295.14,122.27 289.18,125.96 295.73,128.46 297.39,135.28 301.78,129.81 308.77,130.33 304.93,124.46 307.59,117.96 "
           id="polygon20" />
        <polygon
           points="270.45,149.1 267,146.16 266.77,150.7 262.91,153.09 267.15,154.7 268.23,159.12 271.07,155.58 275.59,155.92 273.11,152.12 274.83,147.91 "
           id="polygon21" />
        <polygon
           points="243.75,174.79 241.02,172.47 240.84,176.05 237.79,177.94 241.14,179.21 241.99,182.7 244.23,179.9 247.81,180.17 245.85,177.17 247.21,173.85 "
           id="polygon22" />
        <polygon
           points="216.29,103.44 212.83,100.5 212.6,105.04 208.74,107.43 212.98,109.05 214.06,113.47 216.91,109.93 221.43,110.27 218.95,106.46 220.67,102.25 "
           id="polygon23" />
        <polygon
           points="78.02,282.03 80.83,286.85 82.94,281.68 88.4,280.49 84.14,276.89 84.69,271.33 79.95,274.27 74.84,272.02 76.16,277.45 72.45,281.61 "
           id="polygon24" />
        <polygon
           points="114.52,259.03 117.02,263.31 118.9,258.72 123.75,257.67 119.96,254.46 120.46,249.53 116.24,252.14 111.7,250.14 112.88,254.96 109.58,258.66 "
           id="polygon25" />
        <polygon
           points="154.12,246.95 155.56,249.41 156.64,246.77 159.43,246.16 157.25,244.32 157.53,241.48 155.11,242.98 152.5,241.83 153.17,244.61 151.28,246.74 "
           id="polygon26" />
        <polygon
           points="75.12,225.18 76.21,230.92 80.1,226.56 85.9,227.29 82.95,222.24 85.43,216.95 79.73,218.2 75.47,214.2 74.89,220.01 69.77,222.83 "
           id="polygon27" />
        <polygon
           points="118.33,212.8 114.58,209.29 114.07,214.4 109.58,216.87 114.28,218.93 115.24,223.98 118.65,220.14 123.75,220.78 121.16,216.35 123.34,211.71 "
           id="polygon28" />
        <polygon
           points="152.32,214.66 149.97,212.45 149.65,215.66 146.82,217.22 149.77,218.52 150.38,221.69 152.53,219.28 155.74,219.68 154.11,216.89 155.48,213.97 "
           id="polygon29" />
        <polygon
           points="204.84,335.61 200.2,338.72 195.01,336.66 196.53,342.04 192.97,346.34 198.55,346.55 201.55,351.27 203.47,346.03 208.89,344.64 204.49,341.19 "
           id="polygon30" />
        <polygon
           points="205.78,305.68 202.77,307.69 199.41,306.36 200.4,309.84 198.09,312.63 201.71,312.76 203.64,315.82 204.89,312.42 208.39,311.52 205.55,309.29 "
           id="polygon31" />
        <polygon
           points="203.48,275.86 201.1,277.45 198.45,276.4 199.23,279.14 197.41,281.35 200.26,281.45 201.79,283.87 202.77,281.18 205.54,280.47 203.3,278.71 "
           id="polygon32" />
        <path
           d="m 250.13,348.63 c -5.79,0 -5.8,9 0,9 5.79,0 5.8,-9 0,-9 z"
           id="path32" />
        <path
           d="m 301.38,281.14 c -5.79,0 -5.8,9 0,9 5.79,0 5.8,-9 0,-9 z"
           id="path33" />
        <path
           d="m 290.83,324.03 c -5.79,0 -5.8,9 0,9 5.79,0 5.8,-9 0,-9 z"
           id="path34" />
        <path
           d="m 164.96,274.65 c -4.5,0 -4.51,7 0,7 4.5,0 4.51,-7 0,-7 z"
           id="path35" />
        <path
           d="m 178.49,265.34 c 2.57,0 2.58,-4 0,-4 -2.58,0 -2.58,4 0,4 z"
           id="path36" />
        <path
           d="m 82.3,164.82 c -8.5,0 -8.51,13.21 0,13.21 8.5,0 8.51,-13.21 0,-13.21 z"
           id="path37" />
        <path
           d="m 130.21,181.33 c -5.77,0 -5.78,8.97 0,8.97 5.77,0 5.78,-8.97 0,-8.97 z"
           id="path38" />
        <path
           d="m 113.01,132.28 c 4.5,0 4.51,-7 0,-7 -4.5,0 -4.51,7 0,7 z"
           id="path39" />
        <path
           d="m 145.81,81.73 c 4.5,0 4.51,-7 0,-7 -4.51,0 -4.51,7 0,7 z"
           id="path40" />
        <path
           d="m 331.68,276.69 c -4.5,0 -4.51,7 0,7 4.5,0 4.51,-7 0,-7 z"
           id="path41" />
        <polygon
           points="237.98,274.42 241.25,271.22 236.73,270.57 234.7,266.46 232.68,270.57 228.15,271.22 231.43,274.42 230.65,278.93 234.7,276.8 238.75,278.93 "
           id="polygon41" />
        <polygon
           points="247.77,309.88 250.13,307.59 246.88,307.12 245.42,304.17 243.97,307.12 240.72,307.59 243.07,309.88 242.51,313.12 245.42,311.59 248.33,313.12 "
           id="polygon42" />
        <polygon
           points="155.37,347.59 153.64,344.08 151.9,347.59 148.03,348.16 150.83,350.89 150.17,354.75 153.64,352.93 157.1,354.75 156.44,350.89 159.25,348.16 "
           id="polygon43" />
        <polygon
           points="218.58,81.72 227.73,76.91 236.88,81.72 235.13,71.53 242.53,64.32 232.3,62.83 227.73,53.57 223.16,62.83 212.93,64.32 220.33,71.53 "
           id="polygon44" />
        <polygon
           points="121.93,101.83 125.87,99.76 129.81,101.83 129.06,97.45 132.25,94.34 127.84,93.7 125.87,89.71 123.9,93.7 119.5,94.34 122.69,97.45 "
           id="polygon45" />
        <polygon
           points="182.11,233.28 180.42,229.86 178.73,233.28 174.96,233.83 177.69,236.49 177.05,240.25 180.42,238.47 183.79,240.25 183.15,236.49 185.88,233.83 "
           id="polygon46" />
        <polygon
           points="218.09,240.7 215.43,235.31 212.78,240.7 206.84,241.56 211.14,245.75 210.12,251.66 215.43,248.87 220.74,251.66 219.73,245.75 224.03,241.56 "
           id="polygon47" />
        <polygon
           points="214.57,196.99 212.7,193.2 210.83,196.99 206.65,197.59 209.67,200.54 208.96,204.71 212.7,202.74 216.44,204.71 215.73,200.54 218.75,197.59 "
           id="polygon48" />
        <polygon
           points="208.53,136.92 206.87,133.56 205.21,136.92 201.5,137.46 204.19,140.08 203.55,143.77 206.87,142.03 210.19,143.77 209.56,140.08 212.25,137.46 "
           id="polygon49" />
        <polygon
           points="206.84,222.38 210.47,224.29 209.77,220.25 212.71,217.39 208.65,216.8 206.84,213.13 205.03,216.8 200.97,217.39 203.91,220.25 203.21,224.29 "
           id="polygon50" />
      </g>
    </g>
    <text
       xml:space="preserve"
       style="font-size:12.7px;line-height:1.25;font-family:Sans;-inkscape-font-specification:'Sans, Normal';text-align:start;letter-spacing:0px;word-spacing:0px;text-anchor:start;stroke-width:0.264583"
       x="35.761074"
       y="124.57964"
       id="text3"><tspan
         sodipodi:role="line"
         id="tspan3"
         style="stroke-width:0.264583"
         x="35.761074"
         y="124.57964">Un-Branded generic</tspan><tspan
         sodipodi:role="line"
         style="stroke-width:0.264583"
         x="35.761074"
         y="140.45464"
         id="tspan4">150W Laser Cutter/Engraver</tspan><tspan
         sodipodi:role="line"
         style="stroke-width:0.264583"
         x="35.761074"
         y="156.32964"
         id="tspan5">Ruida Controller</tspan></text>
  </g>
</svg>
