<?xml version="1.0" encoding="UTF-8" standalone="no"?>
<!-- Created with Inkscape (http://www.inkscape.org/) -->

<svg
   width="11in"
   height="8.5in"
   viewBox="0 0 279.4 215.9"
   version="1.1"
   id="svg1"
   inkscape:version="1.4.3 (fcd0343856, 2026-01-01)"
   sodipodi:docname="NameplateSnap.svg"
   xmlns:inkscape="http://www.inkscape.org/namespaces/inkscape"
   xmlns:sodipodi="http://sodipodi.sourceforge.net/DTD/sodipodi-0.dtd"
   xmlns="http://www.w3.org/2000/svg"
   xmlns:svg="http://www.w3.org/2000/svg">
  <sodipodi:namedview
     id="namedview1"
     pagecolor="#ffffff"
     bordercolor="#666666"
     borderopacity="1.0"
     inkscape:showpageshadow="2"
     inkscape:pageopacity="0.0"
     inkscape:pagecheckerboard="0"
     inkscape:deskcolor="#d1d1d1"
     inkscape:document-units="mm"
     inkscape:zoom="0.70377385"
     inkscape:cx="397.14462"
     inkscape:cy="561.25984"
     inkscape:window-width="1920"
     inkscape:window-height="995"
     inkscape:window-x="1920"
     inkscape:window-y="24"
     inkscape:window-maximized="1"
     inkscape:current-layer="layer1" />
  <defs
     id="defs1" />
  <g
     inkscape:label="Layer 1"
     inkscape:groupmode="layer"
     id="layer1">
    <text
       xml:space="preserve"
       style="font-size:7.64001px;line-height:1.25;font-family:Sans;-inkscape-font-specification:'Sans, Normal';text-align:center;letter-spacing:0px;word-spacing:0px;text-anchor:middle;stroke-width:0.159166"
       x="97.984863"
       y="41.713634"
       id="text1-5"><tspan
         sodipodi:role="line"
         style="font-style:normal;font-variant:normal;font-weight:normal;font-stretch:normal;font-size:29.7112px;font-family:Uroob;-inkscape-font-specification:'Uroob, Normal';font-variant-ligatures:normal;font-variant-caps:normal;font-variant-numeric:normal;font-variant-east-asian:normal;stroke-width:0.159166"
         x="97.984863"
         y="41.713634"
         id="tspan2-1">Snap</tspan></text>
    <path
       style="fill:#000000;stroke-width:0.115123"
       d="m 172.88445,45.44255 c -0.29669,0.115198 -0.57423,-0.08871 -0.56256,-0.413285 0.0104,-0.287738 0.17138,-0.412681 0.54306,-0.421382 0.17859,-0.0042 0.22442,0.01066 0.28463,0.09213 0.17552,0.237956 0.0375,0.625039 -0.26514,0.742529 z m -2.28036,1.575634 c -0.19339,0.06267 -0.38325,-0.02158 -0.42915,-0.19043 -0.052,-0.191443 0.0288,-0.424948 0.19999,-0.577787 0.14926,-0.133212 0.14926,-0.133212 0.31934,-0.03051 0.0936,0.05652 0.18061,0.132842 0.19342,0.169652 0.0128,0.0368 0.003,0.164999 -0.0218,0.284891 -0.0439,0.211829 -0.10622,0.293786 -0.26181,0.344197 z m -2.91841,0.623581 c -0.0907,-0.0086 -0.098,-0.01505 -0.22253,-0.197978 -0.10751,-0.158155 -0.14454,-0.170193 -0.37541,-0.123194 -0.10826,0.02206 -0.2388,0.01571 -0.31842,-0.01546 -0.12639,-0.04944 -0.13623,-0.06126 -0.15488,-0.186041 -0.0293,-0.196268 -0.0656,-0.298945 -0.13415,-0.379836 -0.0847,-0.100004 -0.38352,-0.199784 -0.53219,-0.177723 -0.0679,0.01008 -0.16069,0.0031 -0.20616,-0.01551 -0.10923,-0.04472 -0.3813,-0.415365 -0.36311,-0.49473 0.0208,-0.09124 0.29735,-0.314966 0.43891,-0.355167 0.14306,-0.04065 0.33278,-0.008 0.38659,0.06654 0.0641,0.08866 0.46741,0.263928 0.72184,0.313618 0.13326,0.02603 0.30113,0.06078 0.37304,0.07724 0.13946,0.0319 0.25594,0.155139 0.2346,0.248184 -0.008,0.03627 0.03,0.09927 0.10705,0.1759 0.066,0.06569 0.17742,0.194057 0.24765,0.285275 0.12186,0.158414 0.12621,0.176872 0.0938,0.410936 -0.0364,0.263884 -0.13274,0.383415 -0.29652,0.367872 z m 2.15264,-1.516223 c -0.21489,0.09875 -0.35039,0.129399 -0.48728,0.110149 -0.2738,-0.03852 -0.28942,-0.158307 -0.0717,-0.549884 0.11859,-0.213273 0.11859,-0.213273 0.32025,-0.247982 0.22038,-0.03793 0.3558,0.02361 0.41545,0.188784 0.0337,0.09322 -0.0204,0.419131 -0.0744,0.449117 -0.016,0.0093 -0.0622,0.03142 -0.10234,0.04978 z m 0.73425,-0.950397 c -0.193,0.03534 -0.24845,-0.01043 -0.27547,-0.227403 -0.0288,-0.231392 0.0281,-0.383238 0.20113,-0.536147 0.10997,-0.0972 0.14593,-0.111295 0.24056,-0.09342 0.13125,0.02468 0.27108,0.139051 0.31346,0.256395 0.0729,0.202112 -0.2051,0.550292 -0.47968,0.600575 z m -1.76803,0.1922 c -0.0264,-0.0091 -0.10677,0.0434 -0.22032,0.14393 -0.17882,0.158191 -0.17882,0.158191 -0.4922,0.118645 -0.17236,-0.02174 -0.38022,-0.06588 -0.46192,-0.0981 -0.0817,-0.0322 -0.15875,-0.05121 -0.17121,-0.04221 -0.0636,0.04593 -0.34278,-0.0096 -0.39217,-0.07804 -0.11134,-0.154205 -1.31425,-0.258791 -1.57895,-0.137285 -0.10367,0.04761 -0.84713,0.557134 -0.88448,0.606213 -0.0192,0.02532 0.007,0.09365 0.0689,0.179293 0.10482,0.145172 0.17003,0.38294 0.11579,0.422104 -0.0174,0.01261 -0.0266,0.06948 -0.0204,0.12632 0.0155,0.141382 -0.16211,0.372443 -0.32101,0.417603 -0.15561,0.04423 -0.28659,-0.03652 -0.39553,-0.243828 -0.0795,-0.151293 -0.0815,-0.187184 -0.02,-0.344706 0.0378,-0.09673 0.11872,-0.224541 0.17981,-0.28406 0.18759,-0.182775 0.0542,-0.216383 -0.3618,-0.09116 -0.16928,0.05098 -0.27408,0.107858 -0.46013,0.249845 -0.23373,0.178393 -0.24594,0.183494 -0.41155,0.169212 -0.32909,-0.02825 -0.51672,-0.0221 -0.60662,0.01989 -0.0499,0.02332 -0.20293,0.07654 -0.34008,0.118324 -0.13714,0.0418 -0.30081,0.113102 -0.3637,0.158499 -0.10445,0.07541 -0.79423,0.240332 -1.00858,0.24115 -0.10819,4.17e-4 -0.45402,0.09166 -0.5192,0.136977 -0.0312,0.0218 -0.10574,0.04748 -0.16548,0.05714 -0.0597,0.0097 -0.1753,0.06505 -0.25681,0.123079 -0.0815,0.05808 -0.22284,0.130686 -0.31411,0.161412 -0.24303,0.08195 -0.2725,0.113756 -0.3575,0.385753 -0.0426,0.136003 -0.0933,0.258864 -0.11295,0.27303 -0.0196,0.01415 -0.0848,0.124912 -0.14472,0.246072 -0.16351,0.33034 -0.40713,0.662062 -0.6159,0.838627 -0.29006,0.245324 -0.31234,0.276697 -0.36269,0.511475 -0.0688,0.320416 -0.15535,0.40939 -0.93587,0.961642 -0.67055,0.474463 -0.89733,0.601616 -1.38134,0.774868 -0.11662,0.04175 -0.28946,0.1199 -0.38405,0.173685 -0.0946,0.05377 -0.22978,0.119225 -0.30042,0.145437 -0.0851,0.03156 -0.14484,0.07356 -0.17717,0.124206 -0.10833,0.170629 -0.4072,0.486654 -0.65456,0.692114 -0.15179,0.126064 -0.27291,0.250609 -0.28767,0.295665 -0.0158,0.04838 -0.11428,0.145487 -0.25992,0.256359 -0.15153,0.115327 -0.24305,0.206561 -0.25878,0.257903 -0.0296,0.09673 -0.23607,0.329397 -0.3924,0.442265 -0.17339,0.125175 -0.64761,0.343266 -0.77973,0.358593 -0.0642,0.0075 -0.2993,0.01573 -0.52237,0.01841 -0.40012,0.0048 -0.51359,0.039 -0.591,0.178178 -0.0202,0.0363 -0.0527,0.08918 -0.0721,0.11759 -0.0613,0.08919 -0.13221,0.236531 -0.13369,0.277542 -6e-4,0.02163 -0.0638,0.187119 -0.13992,0.367692 -0.16156,0.382951 -0.0868,0.317666 -1.16789,1.02077 -0.77867,0.50645 -0.91299,0.58352 -0.94347,0.541296 -0.0107,-0.01487 -0.10861,-0.0053 -0.21749,0.02128 -0.10888,0.02659 -0.25895,0.04963 -0.33345,0.05122 -0.0745,0.0016 -0.16071,0.02111 -0.19153,0.04336 -0.0308,0.02225 -0.16878,0.03568 -0.30656,0.02984 -0.13778,-0.0058 -0.27232,0.0051 -0.29899,0.02438 -0.0267,0.01926 -0.0828,0.17202 -0.12477,0.339488 -0.0739,0.294812 -0.0816,0.308259 -0.24573,0.423576 -0.11837,0.08324 -0.19001,0.16078 -0.23767,0.25748 -0.0376,0.07613 -0.12964,0.204539 -0.20469,0.28539 -0.28941,0.311747 -0.58613,0.606495 -0.66401,0.659572 -0.19532,0.133151 -0.43152,0.25018 -0.50028,0.247916 -0.041,-0.0013 -0.21298,0.04775 -0.38216,0.109116 -0.16918,0.06137 -0.33656,0.116814 -0.37196,0.123237 -0.0353,0.0065 -0.1572,0.02779 -0.27069,0.04747 -0.11348,0.01969 -0.25229,0.06938 -0.30843,0.110426 -0.13046,0.09493 -0.26987,0.318224 -0.3264,0.52133 -0.0242,0.08726 -0.0856,0.223466 -0.13629,0.302732 -0.084,0.131455 -0.12287,0.16172 -0.44156,0.344686 -0.19219,0.110328 -0.44702,0.261964 -0.56626,0.337067 -0.11927,0.07505 -0.2724,0.165358 -0.34029,0.200707 -0.15157,0.07888 -0.55164,0.176778 -0.57729,0.14125 -0.0104,-0.01429 -0.0316,-0.01661 -0.0475,-0.0053 -0.0278,0.02 -0.43319,0.07583 -0.67976,0.09359 -0.11624,0.0083 -0.12206,0.01255 -0.18165,0.13065 -0.0339,0.06706 -0.0611,0.238809 -0.0603,0.381605 6e-4,0.142795 -0.0176,0.305346 -0.0406,0.361231 -0.023,0.05588 -0.0756,0.187526 -0.11698,0.292548 -0.13603,0.345669 -0.15369,0.367318 -0.41462,0.508475 -0.16913,0.09154 -0.30554,0.136051 -0.47679,0.155742 -0.13193,0.01516 -0.32634,0.05457 -0.43203,0.08757 -0.10571,0.03298 -0.29395,0.05954 -0.41834,0.059 -0.12439,-5.34e-4 -0.29539,0.02874 -0.38001,0.06505 -0.0846,0.03631 -0.2202,0.05829 -0.30131,0.04885 -0.0811,-0.0094 -0.15803,-0.0095 -0.17095,-2.18e-4 -0.013,0.0093 -0.0441,0.08122 -0.0691,0.159779 -0.0632,0.197523 -0.2355,0.485313 -0.33265,0.555663 -0.10839,0.07852 -0.30924,0.349231 -0.40098,0.540533 -0.0672,0.140127 -0.0995,0.170891 -0.33064,0.314875 -0.24779,0.154331 -0.61555,0.310048 -0.88463,0.374513 -0.0716,0.01721 -0.17287,0.06197 -0.22486,0.0995 -0.052,0.03754 -0.1492,0.06943 -0.21602,0.07085 -0.0668,0.0012 -0.14976,0.02304 -0.1843,0.04794 -0.0345,0.02491 -0.0915,0.03995 -0.12655,0.03327 -0.0351,-0.0067 -0.13508,0.02743 -0.22229,0.07569 -0.0872,0.04825 -0.21365,0.09207 -0.28102,0.09726 -0.21812,0.01684 -0.28742,0.06717 -0.29996,0.217307 -0.03,0.365686 -0.16278,0.692209 -0.39561,0.972682 -0.11922,0.143644 -0.91586,0.717831 -1.21658,0.876839 -0.39807,0.210575 -0.73551,0.340979 -1.11909,0.432467 -0.20489,0.04885 -0.41109,0.103471 -0.45822,0.121355 -0.0809,0.03068 -0.0963,0.01786 -0.27522,-0.23 -0.18953,-0.262504 -0.18953,-0.262504 -0.0556,-0.25484 0.0737,0.0043 0.14953,-0.0036 0.16862,-0.01738 0.0367,-0.02653 0.32655,-0.09815 0.74604,-0.184377 0.24463,-0.0503 0.2711,-0.0642 0.75671,-0.397846 0.38968,-0.267678 0.55579,-0.400511 0.73684,-0.587391 0.27062,-0.279949 0.29758,-0.324706 0.36975,-0.6138 0.0492,-0.197364 0.0453,-0.226343 -0.048,-0.355676 -0.0835,-0.11561 -0.13591,-0.148991 -0.29313,-0.186651 -0.10533,-0.0252 -0.25607,-0.0792 -0.33498,-0.119971 -0.0789,-0.04079 -0.21196,-0.07878 -0.29562,-0.08444 -0.23526,-0.01594 -0.29561,-0.0676 -0.47092,-0.403021 -0.14824,-0.28365 -0.16152,-0.299362 -0.27984,-0.331289 -0.0683,-0.01844 -0.17001,-0.07489 -0.22598,-0.125449 -0.056,-0.05054 -0.19211,-0.130695 -0.30254,-0.178063 -0.11711,-0.05023 -0.23227,-0.129754 -0.27636,-0.190823 -0.0416,-0.05759 -0.1576,-0.158574 -0.25785,-0.22439 -0.10027,-0.06581 -0.20124,-0.14524 -0.22443,-0.176463 -0.0232,-0.03126 -0.0703,-0.05946 -0.10486,-0.06272 -0.0378,-0.0035 -0.13193,-0.09856 -0.23671,-0.238773 -0.15071,-0.201549 -0.19369,-0.237637 -0.32014,-0.26872 -0.22584,-0.05551 -0.43635,-0.142634 -0.47544,-0.196778 -0.0398,-0.05515 -0.56266,-0.19505 -0.60762,-0.16259 -0.0398,0.02877 -0.49479,-0.0203 -0.52069,-0.05616 -0.0115,-0.01595 -0.0817,-0.04521 -0.15611,-0.06502 -0.2282,-0.06082 -0.3076,-0.106827 -0.39624,-0.229607 -0.0859,-0.118995 -0.22707,-0.166986 -0.82338,-0.279943 -0.42369,-0.08027 -0.48267,-0.117797 -0.73556,-0.468061 -0.12795,-0.177222 -0.22156,-0.329606 -0.20809,-0.338591 0.0625,-0.04143 0.19789,-0.01247 0.45968,0.09885 0.15615,0.0664 0.33304,0.125387 0.39307,0.131088 0.0601,0.0057 0.11909,0.0241 0.13122,0.0409 0.0724,0.100315 0.78403,0.166024 1.08063,0.0998 0.16021,-0.03578 0.2625,-0.03437 0.34405,0.0047 0.0639,0.03063 0.12579,0.04866 0.13771,0.04006 0.0119,-0.0086 0.0904,0.02567 0.17449,0.07614 0.084,0.05047 0.2102,0.107669 0.2803,0.127093 0.13971,0.03873 0.43456,0.228043 0.50528,0.324447 0.0246,0.03352 0.0623,0.05866 0.0838,0.05589 0.0214,-0.0028 0.11145,0.0435 0.19993,0.102834 0.0885,0.05935 0.19238,0.113875 0.23087,0.121182 0.0385,0.0073 0.1169,0.04027 0.17424,0.07325 0.0573,0.03297 0.14579,0.06186 0.19661,0.06417 0.0508,0.0023 0.0971,0.02617 0.10289,0.05301 0.015,0.06914 0.19594,0.12447 0.47638,0.145576 0.1326,0.01 0.29879,0.04318 0.36931,0.07378 0.16549,0.0718 0.45333,0.415051 0.52073,0.62097 0.04,0.122184 0.0795,0.176603 0.19779,0.271897 0.1591,0.128706 0.31136,0.192548 0.36563,0.153362 0.0596,-0.043 0.51782,-0.06571 0.57258,-0.02838 0.029,0.01981 0.0668,0.105882 0.0839,0.19132 0.0246,0.122981 0.0695,0.199154 0.21553,0.36566 0.20696,0.235885 0.37875,0.312981 0.50091,0.224781 0.15488,-0.111819 0.36676,-0.04147 0.63466,0.210732 0.18011,0.16951 0.21062,0.184699 0.32131,0.159704 0.0673,-0.01516 0.19108,-0.04234 0.27512,-0.06033 0.084,-0.018 0.21257,-0.07585 0.28561,-0.128576 0.073,-0.05274 0.19285,-0.107998 0.26626,-0.122854 0.19384,-0.03921 0.59231,-0.234784 0.70439,-0.345734 0.0531,-0.0526 0.14223,-0.176216 0.19805,-0.274677 0.0558,-0.09846 0.12289,-0.189579 0.14912,-0.202465 0.0262,-0.01297 0.11358,-0.113978 0.19416,-0.224645 0.10334,-0.141983 0.14808,-0.243267 0.1519,-0.344028 0.006,-0.146227 -0.0501,-0.26586 -0.1195,-0.256878 -0.0214,0.0028 -0.0988,-0.04205 -0.17209,-0.09959 -0.0732,-0.05755 -0.18805,-0.109829 -0.25513,-0.116196 -0.13213,-0.01254 -0.34196,-0.102108 -0.38774,-0.16551 -0.0156,-0.0217 -0.0742,-0.04544 -0.13027,-0.05275 -0.056,-0.0073 -0.18708,-0.05511 -0.2913,-0.106205 -0.17473,-0.08566 -0.20655,-0.118421 -0.40791,-0.41988 -0.15073,-0.225734 -0.25768,-0.352791 -0.3451,-0.410386 -0.0698,-0.04583 -0.17065,-0.123592 -0.22431,-0.172721 -0.0537,-0.04914 -0.17328,-0.109071 -0.26583,-0.133204 -0.0925,-0.02414 -0.22034,-0.08077 -0.284,-0.125861 -0.0637,-0.0451 -0.19945,-0.09488 -0.30174,-0.110631 -0.1023,-0.01575 -0.19736,-0.04438 -0.21125,-0.06363 -0.0275,-0.0381 -0.39858,-0.08769 -0.5982,-0.07993 -0.18305,0.0071 -0.3379,-0.09558 -0.53725,-0.356287 -0.0972,-0.127446 -0.19896,-0.235716 -0.22585,-0.240795 -0.0268,-0.0051 -0.10662,-0.05466 -0.17725,-0.110137 -0.0706,-0.05547 -0.19413,-0.109659 -0.27446,-0.120409 -0.0803,-0.01077 -0.19802,-0.04906 -0.26149,-0.08514 -0.22625,-0.128589 -0.75737,-0.219132 -0.85823,-0.146307 -0.012,0.0087 -0.0786,0.01772 -0.1479,0.02 -0.58865,0.01944 -0.85821,-0.03565 -0.97655,-0.199565 -0.10735,-0.148695 -0.50254,-0.234496 -0.87003,-0.18889 -0.0392,0.0048 -0.12559,0.01267 -0.1921,0.01736 -0.11391,0.0081 -0.12773,0.0174 -0.23849,0.161495 -0.16071,0.209185 -0.27659,0.284883 -0.5301,0.346288 -0.20025,0.04851 -0.23504,0.04302 -0.47105,-0.07438 -0.14016,-0.06972 -0.3369,-0.172819 -0.4372,-0.229117 -0.1448,-0.08127 -0.23039,-0.09837 -0.41548,-0.08299 -0.22188,0.01843 -0.24624,0.02885 -0.50645,0.216707 -0.15033,0.108538 -0.32673,0.251919 -0.39198,0.31862 -0.11865,0.121273 -0.11865,0.121273 -0.34254,-0.18885 l -0.22392,-0.310137 0.30727,-0.221838 c 0.169,-0.122011 0.36794,-0.247164 0.44208,-0.278134 0.0741,-0.03097 0.24199,-0.104367 0.37301,-0.163088 0.13105,-0.0587 0.25292,-0.0971 0.27089,-0.08527 0.018,0.01187 0.0653,0.02087 0.10506,0.02005 0.0398,-7.82e-4 0.1348,0.0061 0.21108,0.01545 0.0763,0.0093 0.16915,-0.0051 0.20637,-0.03199 0.0372,-0.02687 0.11409,-0.04215 0.17084,-0.03388 0.16311,0.02371 0.32213,-0.02268 0.55021,-0.160515 0.19498,-0.117849 0.22134,-0.145924 0.33493,-0.357449 0.0678,-0.12625 0.14437,-0.275949 0.17014,-0.332673 0.0818,-0.180147 0.30515,-0.394021 0.74642,-0.714853 0.47001,-0.341558 0.74034,-0.488492 0.93189,-0.506007 0.0686,-0.0063 0.22062,-0.01977 0.33769,-0.03 0.11707,-0.01023 0.23209,-0.03236 0.2556,-0.04919 0.0235,-0.01682 0.0998,-0.04195 0.16955,-0.05586 0.0698,-0.01386 0.25821,-0.0855 0.41878,-0.159183 0.35253,-0.161724 0.67037,-0.419951 0.79765,-0.648138 0.0484,-0.08682 0.23688,-0.297285 0.45201,-0.504874 0.36898,-0.35602 0.36898,-0.35602 0.59362,-0.421073 0.12355,-0.03577 0.23623,-0.05907 0.25041,-0.05175 0.0142,0.0073 0.0403,0.0029 0.058,-0.0099 0.0177,-0.01278 0.0823,-0.02433 0.14364,-0.02562 0.0663,-0.0014 0.17292,-0.04374 0.26315,-0.104437 0.0832,-0.05639 0.22142,-0.131882 0.30664,-0.168333 0.36851,-0.157663 0.35425,-0.141842 0.41844,-0.464553 0.0326,-0.163526 0.0823,-0.338363 0.11062,-0.388532 0.037,-0.06571 0.22074,-0.211532 0.65669,-0.521371 0.67243,-0.47798 0.88821,-0.598367 1.1487,-0.641019 0.0973,-0.01592 0.26457,-0.05865 0.37179,-0.09496 0.10722,-0.0363 0.25633,-0.07895 0.33134,-0.09478 0.12708,-0.02682 0.14038,-0.03665 0.19453,-0.144151 0.032,-0.0634 0.095,-0.141791 0.13988,-0.174219 0.0514,-0.03708 0.0791,-0.09165 0.0748,-0.147086 -0.004,-0.04848 0.002,-0.13264 0.0122,-0.187044 0.0105,-0.05437 0.0119,-0.10882 0.003,-0.12091 -0.0533,-0.07393 0.18509,-0.31647 0.89522,-0.910542 0.29042,-0.242907 0.98656,-0.675309 1.13895,-0.707388 0.13356,-0.02809 0.35977,-0.113831 0.49527,-0.187661 0.0288,-0.0156 0.0922,-0.03509 0.14097,-0.04323 0.0489,-0.0081 0.18798,-0.07243 0.30922,-0.142928 0.12127,-0.07048 0.28265,-0.145665 0.35864,-0.167042 0.18169,-0.05113 0.34883,-0.210509 0.53517,-0.510348 0.13817,-0.222348 0.16019,-0.243444 0.42221,-0.404598 0.37807,-0.232514 0.76685,-0.513128 1.10099,-0.794614 0.294,-0.247645 0.37018,-0.289812 1.02987,-0.570263 0.18376,-0.07814 0.41936,-0.190299 0.52355,-0.249285 0.10419,-0.05898 0.2406,-0.111972 0.30318,-0.117699 0.25733,-0.02365 0.6487,-0.195746 0.85268,-0.374966 0.0873,-0.07668 0.20559,-0.180999 0.26288,-0.231787 0.0573,-0.05078 0.14272,-0.159275 0.18981,-0.241132 0.18837,-0.327239 0.24891,-0.403853 0.45435,-0.575008 0.13551,-0.112894 0.32926,-0.236971 0.52916,-0.338261 0.17343,-0.08804 0.32675,-0.168381 0.34075,-0.178484 0.014,-0.01007 0.0592,-0.01511 0.1006,-0.0112 0.34617,0.03285 0.60108,-0.08571 0.69074,-0.321263 0.0552,-0.144885 0.12138,-0.209264 0.7206,-0.700362 0.23398,-0.19178 0.29575,-0.229035 0.39712,-0.239595 0.11467,-0.01192 0.1223,-0.01766 0.17008,-0.127985 0.0708,-0.163087 0.44181,-0.422115 0.68952,-0.481409 0.0996,-0.02381 0.22824,-0.06864 0.28596,-0.09958 0.39895,-0.213906 0.69412,-0.293679 0.9743,-0.263381 0.17831,0.01928 0.2267,0.0092 0.31635,-0.06585 0.0744,-0.06224 0.20778,-0.111798 0.44862,-0.166552 0.18852,-0.04287 0.35975,-0.07209 0.38051,-0.06495 0.0639,0.02195 0.13717,-0.05407 0.19071,-0.197704 0.028,-0.07543 0.08,-0.172812 0.11519,-0.216406 0.0352,-0.0436 0.0867,-0.134011 0.11442,-0.201002 0.0409,-0.099 0.0939,-0.151249 0.28344,-0.279452 0.12826,-0.08666 0.29832,-0.203435 0.37804,-0.259355 0.14522,-0.10188 0.29228,-0.30564 0.40017,-0.554581 0.0301,-0.06926 0.078,-0.143013 0.10664,-0.163832 0.0723,-0.05262 0.16363,-0.220154 0.1875,-0.344076 0.011,-0.05713 0.0522,-0.127129 0.0915,-0.155554 0.13968,-0.100842 0.35018,-0.521995 0.35552,-0.711306 0.003,-0.105854 0.0374,-0.221599 0.0842,-0.283344 0.0436,-0.0574 0.0892,-0.140206 0.10157,-0.183992 0.0123,-0.04377 0.0969,-0.154194 0.18796,-0.24535 0.22954,-0.229826 0.37238,-0.487335 0.35568,-0.641192 -0.0189,-0.173842 -0.0525,-0.208658 -0.2715,-0.281087 -0.31822,-0.105247 -0.44845,-0.381594 -0.33764,-0.716469 0.0774,-0.233705 0.2283,-0.344228 0.44848,-0.328239 0.088,0.0064 0.19336,0.04043 0.23407,0.07567 0.1887,0.163314 0.24586,0.195694 0.29917,0.169406 0.124,-0.0611 0.34784,-0.496036 0.38584,-0.749589 0.0205,-0.137109 0.0553,-0.338345 0.0772,-0.447191 0.0602,-0.298894 0.0262,-0.423089 -0.15907,-0.581534 -0.17051,-0.14584 -0.2588,-0.160336 -0.39169,-0.06439 -0.10867,0.07846 -0.0958,0.188318 0.0451,0.385059 0.0517,0.07229 0.0941,0.156616 0.0941,0.187386 -1.3e-4,0.178328 -0.30319,0.45303 -0.56118,0.508669 -0.16277,0.0351 -0.39097,-0.07702 -0.39449,-0.193824 -9.2e-4,-0.03437 -0.0431,-0.126574 -0.0935,-0.204981 -0.19107,-0.297229 -0.12104,-0.515866 0.23176,-0.723366 0.171,-0.100601 0.21632,-0.141039 0.23135,-0.206642 0.0177,-0.07686 -0.0681,-0.412992 -0.12578,-0.492792 -0.0375,-0.05192 0.10091,-0.533485 0.17848,-0.620996 0.0804,-0.09071 0.24655,-0.06717 0.3287,0.0466 0.0754,0.104469 0.17716,0.09991 0.28316,-0.0127 0.11964,-0.127111 0.30429,-0.170943 0.43026,-0.102129 0.0905,0.04948 0.10627,0.07605 0.11989,0.203453 0.0163,0.152117 0.0583,0.234596 0.1461,0.286328 0.11412,0.06733 0.19158,-0.112502 0.20076,-0.465919 0.005,-0.180669 -0.0651,-0.256991 -0.25849,-0.282692 -0.0682,-0.0091 -0.15371,-0.03674 -0.19,-0.06148 -0.0364,-0.02474 -0.078,-0.03631 -0.0927,-0.02567 -0.0147,0.0106 -0.1042,-0.0096 -0.1989,-0.04482 -0.27566,-0.102625 -0.34585,-0.257683 -0.26992,-0.596346 0.0494,-0.220263 0.12329,-0.297654 0.34194,-0.358146 0.17823,-0.0493 0.30547,-0.02326 0.42677,0.08736 0.15452,0.140957 0.3199,0.161066 0.51663,0.06287 0.0919,-0.04586 0.19125,-0.08109 0.22083,-0.07827 0.15952,0.01514 0.44211,0.437808 0.43853,0.655928 -9.3e-4,0.05707 -0.0436,0.173241 -0.0949,0.258235 -0.0513,0.085 -0.0893,0.193191 -0.0846,0.240443 0.0306,0.308438 0.0278,0.386293 -0.0207,0.563335 -0.0298,0.108636 -0.0785,0.215627 -0.10833,0.237779 -0.16372,0.121911 -0.26711,0.489142 -0.17381,0.618384 0.0454,0.06272 0.24784,-0.09872 0.25284,-0.20153 0.003,-0.04583 0.0434,-0.141626 0.0916,-0.212912 0.0482,-0.07129 0.0787,-0.141947 0.0677,-0.157024 -0.0109,-0.01507 0.0519,-0.102014 0.13954,-0.193159 0.0876,-0.09116 0.1751,-0.203536 0.19438,-0.249733 0.0194,-0.04622 0.0589,-0.101151 0.0878,-0.122114 0.029,-0.02095 0.0571,-0.07088 0.0625,-0.110939 0.006,-0.04007 0.0624,-0.158273 0.12669,-0.262699 0.14201,-0.23048 0.15143,-0.286021 0.0748,-0.440732 -0.11794,-0.237982 -0.11821,-0.390086 -9.2e-4,-0.588452 0.0601,-0.101662 0.13395,-0.202732 0.16424,-0.224603 0.0987,-0.07125 0.33651,-0.04117 0.47319,0.05984 0.22701,0.167777 0.32779,0.510753 0.18115,0.616622 -0.11707,0.08452 -0.17686,0.25552 -0.13438,0.384299 0.0791,0.239834 0.10143,0.25015 0.24825,0.11475 0.16579,-0.152863 0.47863,-0.271805 0.58578,-0.222613 0.0423,0.01941 0.12726,0.07433 0.18894,0.122042 0.10005,0.07741 0.11067,0.102713 0.0987,0.234379 -0.007,0.08117 -0.005,0.160107 0.006,0.175402 0.0111,0.01532 5.6e-4,0.08268 -0.0233,0.149734 -0.0437,0.122932 0.033,0.498044 0.11184,0.546323 0.0818,0.05018 0.0915,0.237599 0.0183,0.356586 -0.0664,0.107941 -0.0914,0.126316 -0.23924,0.176432 -0.0909,0.03067 -0.22607,0.09963 -0.30037,0.153268 -0.13461,0.09718 -0.13499,0.0982 -0.0904,0.303111 0.0567,0.261209 0.0761,0.285793 0.21364,0.271459 0.0856,-0.0089 0.2173,-0.08268 0.54413,-0.304795 0.4767,-0.323982 0.63778,-0.385965 0.78346,-0.301559 0.16048,0.09299 0.27994,0.281586 0.33144,0.523218 0.0727,0.340881 0.0504,0.451611 -0.12181,0.606719 -0.19231,0.173197 -0.31046,0.210422 -0.52645,0.165818 -0.0994,-0.02054 -0.2012,-0.02261 -0.22615,-0.0045 -0.0249,0.01799 -0.12456,0.04852 -0.22136,0.0678 -0.13862,0.02758 -0.23861,0.07875 -0.4706,0.240701 -0.3624,0.253038 -0.43396,0.343872 -0.51966,0.660041 -0.0459,0.169235 -0.10173,0.282128 -0.17453,0.352798 -0.22628,0.219679 -0.48324,0.560225 -0.56431,0.747889 -0.0299,0.06923 -0.0823,0.173604 -0.11638,0.231919 -0.0698,0.119212 -0.17021,0.613007 -0.13517,0.664316 0.045,0.06643 -0.0282,0.340153 -0.18358,0.684774 -0.18267,0.405125 -0.21644,0.506986 -0.21894,0.660524 -9.3e-4,0.07073 -0.0628,0.19752 -0.16961,0.349051 -0.20368,0.288886 -0.21124,0.387067 -0.0295,0.383164 0.0838,-0.0019 0.14487,-0.02531 0.17994,-0.06921 0.0292,-0.03657 0.10856,-0.111689 0.17633,-0.166923 0.0676,-0.05548 0.19315,-0.190864 0.27861,-0.301401 0.0855,-0.110536 0.17286,-0.213568 0.19419,-0.228967 0.0213,-0.01538 0.0839,-0.103548 0.13912,-0.195845 0.0571,-0.09546 0.19075,-0.245435 0.31004,-0.347821 0.30934,-0.265472 0.73211,-0.67724 0.91162,-0.887841 0.0867,-0.101692 0.19358,-0.210696 0.23751,-0.242258 0.13541,-0.09726 0.48336,-0.43574 0.49729,-0.483919 0.007,-0.02508 0.0506,-0.07261 0.0964,-0.105653 0.0458,-0.03303 0.0977,-0.09867 0.11547,-0.145839 0.0178,-0.04717 0.0767,-0.118438 0.13098,-0.158376 0.10576,-0.07783 0.30272,-0.484182 0.31032,-0.640286 0.006,-0.137331 0.28626,-0.515141 0.49016,-0.66234 0.13747,-0.09926 0.20368,-0.178063 0.31127,-0.370376 0.13391,-0.239376 0.23589,-0.328641 0.33608,-0.294125 0.0902,0.0311 0.28759,0.266269 0.30443,0.362883 0.009,0.05364 -0.006,0.176307 -0.0353,0.272524 -0.0288,0.09621 -0.043,0.251657 -0.0317,0.345432 0.0114,0.09378 -0.008,0.279296 -0.0432,0.412274 -0.0706,0.267119 -0.16074,0.359407 -0.48988,0.501665 -0.18924,0.08179 -0.2471,0.178133 -0.15952,0.26546 0.10244,0.102113 0.31037,0.01929 0.68951,-0.274671 0.18818,-0.145948 0.39582,-0.327094 0.46142,-0.402569 0.0655,-0.07553 0.23283,-0.229167 0.37174,-0.341403 0.22685,-0.183359 0.25819,-0.2002 0.30819,-0.165445 0.0306,0.02127 0.10732,0.06273 0.17047,0.09217 0.30358,0.141526 0.27138,0.596739 -0.0633,0.895581 -0.13289,0.118639 -0.15379,0.12557 -0.34006,0.112488 -0.26794,-0.01881 -0.44673,0.03195 -0.52013,0.147651 -0.0308,0.0485 -0.0432,0.105905 -0.0276,0.127526 0.0456,0.06327 0.16891,0.102462 0.21577,0.06862 0.0238,-0.01715 0.12381,-0.05146 0.22223,-0.07628 0.0984,-0.02477 0.2191,-0.07359 0.26814,-0.108488 0.0491,-0.0349 0.21923,-0.08646 0.37822,-0.11456 0.24787,-0.04383 0.31605,-0.07119 0.47847,-0.191999 0.10419,-0.07745 0.24077,-0.190678 0.30362,-0.251485 0.0989,-0.09576 0.13375,-0.109328 0.26002,-0.100989 0.13271,0.0088 0.15422,0.02395 0.23952,0.169199 0.11174,0.190225 0.10039,0.301142 -0.0479,0.467945 -0.0923,0.103887 -0.13191,0.125952 -0.26596,0.148534 -0.0866,0.01455 -0.26754,0.07124 -0.40201,0.125948 -0.13446,0.05471 -0.30141,0.110783 -0.37095,0.124627 -0.0695,0.01385 -0.13975,0.03462 -0.15598,0.04619 -0.0162,0.01157 -0.0648,0.01996 -0.10783,0.01864 -0.12774,-0.0039 -0.6529,0.118927 -0.83347,0.194944 -0.0921,0.03879 -0.27951,0.09672 -0.41648,0.128768 -0.13698,0.03204 -0.32889,0.09256 -0.42652,0.134463 -0.10999,0.0472 -0.24284,0.06998 -0.34935,0.05987 -0.0945,-0.009 -0.21987,0.0052 -0.27853,0.03143 -0.11576,0.05182 -0.37108,0.05112 -0.40879,-0.0011 -0.0386,-0.05352 -0.20159,-0.04458 -0.28498,0.01563 -0.0429,0.03102 -0.0973,0.10242 -0.12069,0.158659 -0.0562,0.134925 -0.31884,0.33122 -0.41761,0.312113 -0.24572,-0.04753 -0.63697,0.147211 -1.14816,0.571477 -0.29345,0.243542 -0.36793,0.321061 -0.40164,0.418138 -0.10058,0.289365 -0.19719,0.497581 -0.27396,0.590345 -0.18518,0.223781 -0.46322,0.537268 -0.62038,0.699455 -0.0917,0.09465 -0.21771,0.252817 -0.27997,0.351451 -0.12535,0.19857 -0.23171,0.544381 -0.20121,0.65423 0.0108,0.03898 -0.0125,0.124199 -0.0518,0.189355 -0.0393,0.06516 -0.0672,0.181009 -0.0619,0.257462 0.01,0.139006 0.01,0.139006 0.28785,0.235908 0.15309,0.0533 0.36754,0.109096 0.47657,0.123995 0.10902,0.01489 0.26402,0.06571 0.34441,0.112899 0.0803,0.04721 0.16128,0.08455 0.17975,0.08299 0.0185,-0.0016 0.15088,0.0322 0.29426,0.07502 0.37709,0.112636 0.59514,0.02916 0.77132,-0.295282 0.18145,-0.334147 0.27497,-0.551903 0.27647,-0.643759 9.2e-4,-0.0578 0.0587,-0.232256 0.12844,-0.387657 0.0697,-0.15541 0.14183,-0.338717 0.1603,-0.407347 0.058,-0.215669 0.2862,-0.482812 0.78601,-0.920459 0.0965,-0.08448 0.20221,-0.152659 0.25076,-0.161888 0.0462,-0.0087 0.19751,-0.0848 0.33622,-0.169136 0.24955,-0.151602 0.25272,-0.155079 0.29823,-0.320978 0.0529,-0.192997 0.14598,-0.364091 0.23166,-0.425946 0.0327,-0.02359 0.16543,-0.05428 0.29504,-0.06823 0.12962,-0.01395 0.30364,-0.05218 0.38671,-0.08496 0.083,-0.0328 0.2556,-0.09625 0.38336,-0.141054 0.12775,-0.04482 0.31505,-0.115188 0.41616,-0.156401 0.10116,-0.0412 0.26336,-0.07357 0.3605,-0.07192 0.0972,0.0017 0.28491,-0.0057 0.41725,-0.01651 0.13233,-0.01075 0.24646,-0.01145 0.2536,-0.0016 0.0288,0.03985 0.2892,-0.02693 0.3907,-0.100209 0.13425,-0.09693 0.25854,-0.344606 0.20802,-0.414573 -0.0417,-0.05776 -0.21808,-0.05293 -0.42822,0.01171 -0.0764,0.0235 -0.21272,0.0464 -0.30291,0.05087 -0.26528,0.01313 -0.51125,0.06913 -0.60987,0.138851 -0.0506,0.03578 -0.18935,0.09655 -0.30834,0.135014 -0.11899,0.03849 -0.29448,0.09783 -0.39,0.131855 -0.10612,0.03781 -0.29838,0.05529 -0.49434,0.04493 -0.31563,-0.01668 -0.3209,-0.01869 -0.33491,-0.128362 -0.0174,-0.136365 0.0992,-0.253266 0.27035,-0.271094 0.0652,-0.0068 0.1695,-0.03426 0.23178,-0.06105 0.52749,-0.226906 0.98431,-0.404823 1.0608,-0.41315 0.0506,-0.0055 0.15476,-0.04509 0.23134,-0.08798 0.0765,-0.04289 0.27805,-0.111603 0.4477,-0.152725 0.16966,-0.04111 0.32693,-0.08048 0.3495,-0.08746 0.0226,-0.007 0.17652,-0.02596 0.34211,-0.04219 0.28848,-0.02826 0.30613,-0.02441 0.42138,0.09188 0.13152,0.132746 0.14284,0.270303 0.0289,0.352569 -0.0921,0.0665 -0.0597,0.189021 0.0929,0.351706 0.10459,0.111467 0.13387,0.164769 0.12098,0.220194 -0.0139,0.05973 -0.16422,0.268589 -0.35193,0.488913 -0.0826,0.09694 0.18211,0.277616 0.54262,0.370399 0.15887,0.04088 0.18727,0.03551 0.33076,-0.06251 0.28693,-0.196024 0.77044,-0.418213 0.91539,-0.420607 0.0673,-0.0011 0.14133,0.141603 0.14461,0.279015 0.005,0.210312 -0.27252,0.498673 -0.55693,0.578642 -0.30135,0.08473 -0.50331,0.210661 -0.67029,0.417956 -0.20131,0.249943 -0.16441,0.309351 0.14925,0.240326 0.20564,-0.04526 0.24913,-0.06768 0.40658,-0.209694 0.17633,-0.158986 0.17633,-0.158986 0.397,-0.13895 0.12138,0.01103 0.23834,0.0445 0.2599,0.07438 0.0216,0.02985 0.0613,0.160529 0.0883,0.290319 0.027,0.129796 0.0702,0.265268 0.096,0.301039 0.0623,0.08626 0.27718,0.05557 0.50289,-0.07185 0.16088,-0.09084 0.18875,-0.09368 0.35407,-0.0365 0.13767,0.04764 0.22522,0.112188 0.37614,0.27735 0.10818,0.118399 0.22284,0.220374 0.25477,0.226637 0.0543,0.01062 0.14493,0.09424 0.1936,0.178645 0.0117,0.02033 -0.0153,0.132419 -0.0599,0.249077 -0.0502,0.131018 -0.0697,0.2604 -0.0511,0.338442 0.032,0.134454 0.0289,0.132662 0.4895,0.267648 0.16156,0.04734 0.33697,0.272322 0.3768,0.483255 0.0434,0.229908 0.019,0.280923 -0.18311,0.381744 -0.21708,0.108349 -0.32154,0.116445 -0.55909,0.04332 -0.221,-0.06803 -0.25488,-0.101629 -0.28861,-0.286252 -0.018,-0.09838 -0.0386,-0.131894 -0.0838,-0.136188 -0.0798,-0.0076 -0.11987,0.02481 -0.20103,0.162352 -0.062,0.105067 -0.0859,0.121776 -0.27085,0.189607 -0.27326,0.09993 -0.33915,0.115793 -0.52437,0.126209 -0.18414,0.01036 -0.19045,0.01361 -0.23206,0.119317 -0.0422,0.107179 0.0469,0.171858 0.32794,0.237914 0.24224,0.05695 0.41981,-0.0015 0.43887,-0.144474 0.006,-0.04015 0.0498,-0.101998 0.0988,-0.137374 0.1149,-0.08295 0.41573,-0.02642 0.50304,0.09451 0.0649,0.08992 0.0513,0.384088 -0.0243,0.526372 -0.0553,0.104007 -0.16914,0.191492 -0.2244,0.172475 z m -3.22332,-1.12628 c 0.0224,-0.09772 -0.0505,-0.16397 -0.18911,-0.171913 -0.12165,-0.0069 -0.13149,-0.01562 -0.18422,-0.161945 -0.0691,-0.191823 -0.16789,-0.273446 -0.27972,-0.231093 -0.1875,0.07104 -0.4019,-0.02661 -0.41448,-0.188752 -0.006,-0.07947 0.0106,-0.09864 0.15537,-0.176944 0.51421,-0.278161 0.57039,-0.317297 0.59228,-0.41254 0.0439,-0.191228 -0.0891,-0.22371 -0.30306,-0.07402 -0.24721,0.17329 -0.47053,0.21598 -0.73224,0.140653 -0.0801,-0.02302 -0.15524,-2.17e-4 -0.37456,0.113687 -0.15092,0.07839 -0.30435,0.149093 -0.34093,0.157139 -0.11644,0.0256 -0.3374,0.114648 -0.40426,0.162912 -0.0355,0.02563 -0.12165,0.05897 -0.19137,0.07406 -0.0927,0.02005 -0.2147,0.09327 -0.45374,0.272306 -0.36497,0.273439 -0.98121,0.628826 -1.09213,0.629929 -0.0398,4.32e-4 -0.17404,0.03369 -0.29845,0.07399 -0.12904,0.04182 -0.29136,0.06337 -0.37792,0.05023 -0.15172,-0.02305 -0.15172,-0.02305 -0.2417,0.110095 -0.0495,0.07321 -0.14791,0.174976 -0.21873,0.226106 -0.11101,0.08014 -0.15896,0.08902 -0.34781,0.06448 -0.12047,-0.01566 -0.2759,-0.01651 -0.34541,-0.0019 -0.0704,0.01479 -0.21402,-0.0065 -0.32433,-0.04803 -0.14278,-0.05381 -0.24766,-0.0633 -0.37621,-0.03403 -0.20384,0.0464 -0.50987,0.0042 -0.71235,-0.09821 -0.0763,-0.03854 -0.18918,-0.0759 -0.25097,-0.08298 -0.0617,-0.007 -0.12263,-0.0271 -0.1352,-0.04452 -0.0246,-0.03409 -0.53069,-0.08285 -0.56942,-0.05488 -0.0128,0.0093 -0.0798,0.0097 -0.14875,10e-4 -0.069,-0.0087 -0.15682,0.0068 -0.19522,0.03457 -0.13582,0.09806 -0.31375,0.04151 -0.55161,-0.175288 -0.15205,-0.138544 -0.26704,-0.211787 -0.37066,-0.236011 -0.0827,-0.01931 -0.15891,-0.04715 -0.16952,-0.06185 -0.0105,-0.01468 -0.14505,-0.05725 -0.29874,-0.09456 -0.1537,-0.03731 -0.3266,-0.08772 -0.38426,-0.112031 -0.0577,-0.02432 -0.186,-0.05086 -0.2852,-0.059 -0.0992,-0.0081 -0.27311,-0.04173 -0.38645,-0.07463 -0.11334,-0.0329 -0.32228,-0.06183 -0.4643,-0.0643 -0.14203,-0.0025 -0.32136,-0.02221 -0.3985,-0.04389 -0.0772,-0.02168 -0.20972,-0.05042 -0.29461,-0.06389 -0.0849,-0.01347 -0.1619,-0.03449 -0.17116,-0.04672 -0.0332,-0.04392 -0.37788,-0.09593 -0.45263,-0.06832 -0.042,0.01554 -0.28814,0.0033 -0.54703,-0.02713 -0.52267,-0.06144 -0.4625,-0.07626 -1.29077,0.317834 -0.36358,0.172999 -0.51509,0.226515 -0.57899,0.204513 -0.0238,-0.0082 -0.16616,0.01606 -0.31634,0.05389 -0.30206,0.07612 -0.51479,0.214016 -0.67081,0.434814 -0.0747,0.105816 -0.10898,0.130035 -0.25692,0.181776 -0.3854,0.134997 -0.2729,0.325547 0.23016,0.389805 0.17197,0.02195 0.32565,0.03068 0.34152,0.01938 0.0159,-0.01133 0.13147,-0.01858 0.25692,-0.01615 0.15574,0.003 0.25545,0.02916 0.31448,0.0825 0.0783,0.07073 0.24896,0.107019 0.30684,0.06523 0.0126,-0.0092 0.12181,-0.0066 0.24266,0.0056 0.12085,0.01222 0.30184,0.02794 0.40219,0.03496 0.10036,0.007 0.19264,0.02654 0.20508,0.04342 0.0125,0.01683 0.11016,0.04925 0.21717,0.07194 0.11095,0.02354 0.2568,0.09146 0.33939,0.158045 0.0797,0.06422 0.21797,0.150668 0.30733,0.1921 0.0893,0.04145 0.21341,0.109926 0.27566,0.152197 0.12054,0.08188 0.2897,0.122043 0.61124,0.145153 0.51645,0.03713 0.87188,0.09133 0.90564,0.138078 0.0169,0.02351 0.13436,0.110575 0.26097,0.193461 0.12656,0.08291 0.255,0.185032 0.28542,0.226946 0.11976,0.165098 0.28395,0.244199 0.58246,0.280661 0.16582,0.02025 0.3564,0.02216 0.42352,0.0043 0.0671,-0.0179 0.19146,-0.02851 0.27628,-0.02353 0.16059,0.0094 0.5178,0.08174 0.53733,0.108787 0.0248,0.03443 0.39302,0.127126 0.42197,0.10623 0.031,-0.02236 0.088,-0.01858 0.46146,0.03065 0.10829,0.01427 0.28197,0.02071 0.38596,0.01434 0.10401,-0.0064 0.21109,0.0025 0.23797,0.01967 0.0752,0.04815 0.45133,0.01622 0.58121,-0.04934 0.0638,-0.03219 0.2492,-0.07813 0.412,-0.102084 0.22833,-0.03359 0.31719,-0.06343 0.38875,-0.130533 0.0708,-0.06639 0.14893,-0.09343 0.33005,-0.114167 0.13053,-0.01495 0.24418,-0.01766 0.2526,-0.006 0.0174,0.02405 0.50344,-0.02242 0.7262,-0.06941 0.081,-0.0171 0.16059,-0.0279 0.17674,-0.024 0.0597,0.01438 0.39325,-0.06876 0.4552,-0.113484 0.0352,-0.02543 0.13427,-0.06124 0.22007,-0.07953 0.0858,-0.01831 0.2192,-0.06516 0.29644,-0.104123 0.0772,-0.03898 0.18236,-0.074 0.23362,-0.0778 0.0513,-0.0039 0.1175,-0.02451 0.14723,-0.04598 0.0297,-0.02144 0.15519,-0.06025 0.27879,-0.08613 0.19114,-0.04006 0.26122,-0.07425 0.46904,-0.228857 0.13438,-0.09998 0.26085,-0.176079 0.28104,-0.169136 0.0202,0.0069 0.0708,-0.01192 0.11241,-0.04197 0.0482,-0.03483 0.12393,-0.04161 0.20867,-0.01876 0.13298,0.03587 0.13298,0.03587 0.37938,-0.167932 0.35282,-0.291896 0.35192,-0.291244 0.56434,-0.387482 0.19325,-0.08758 0.19325,-0.08758 0.22075,-0.248684 0.0151,-0.08861 0.02,-0.171425 0.0109,-0.184037 -0.009,-0.01263 0.0444,-0.06691 0.11915,-0.120595 0.11208,-0.08065 0.19928,-0.102926 0.5011,-0.12775 0.38751,-0.03189 0.42557,-0.04384 0.44778,-0.140602 z m -15.85403,10.990668 c 0.26433,-0.309963 0.32257,-0.427646 0.31529,-0.637112 -0.006,-0.167074 -0.006,-0.167074 -0.17589,-0.277238 -0.0935,-0.06061 -0.18206,-0.142676 -0.19668,-0.182399 -0.0147,-0.03973 -0.10138,-0.123453 -0.19279,-0.186036 -0.1341,-0.09183 -0.17598,-0.141186 -0.21693,-0.255668 -0.0527,-0.147283 -0.17365,-0.297873 -0.23671,-0.294794 -0.02,0.001 -0.10139,-0.02784 -0.1809,-0.06404 -0.17224,-0.07843 -0.39502,-0.119057 -0.44701,-0.08152 -0.11523,0.0832 -0.55592,-0.120285 -0.68369,-0.315685 -0.0362,-0.0553 -0.13633,-0.164566 -0.22263,-0.24268 -0.0863,-0.07816 -0.2123,-0.218735 -0.28009,-0.312434 -0.0966,-0.133509 -0.14454,-0.171311 -0.22147,-0.174822 -0.0541,-0.0025 -0.19595,-0.06091 -0.31545,-0.129895 -0.24943,-0.143989 -0.30696,-0.161059 -0.47713,-0.141578 -0.19451,0.02228 -0.40423,-0.06984 -0.61237,-0.268955 -0.10456,-0.100028 -0.26052,-0.217212 -0.34657,-0.260397 -0.44558,-0.223631 -0.61748,-0.296812 -0.75387,-0.320928 -0.23397,-0.04136 -0.57735,-0.141705 -0.64671,-0.188982 -0.0346,-0.02356 -0.13719,-0.04022 -0.22797,-0.03697 -0.14979,0.0054 -0.35231,-0.05593 -1.00845,-0.305172 -0.45172,-0.171592 -0.95124,-0.153648 -1.29965,0.04667 -0.16733,0.09625 -0.53139,0.178547 -0.5704,0.128991 -0.0106,-0.01266 -0.0926,-0.0355 -0.18323,-0.05004 -0.0906,-0.01457 -0.18184,-0.05026 -0.20282,-0.07931 -0.043,-0.05959 -0.30917,-0.118972 -0.36207,-0.08078 -0.019,0.0137 -0.14385,0.05734 -0.27747,0.09692 -0.18577,0.05504 -0.32806,0.128093 -0.60455,0.310372 -0.19889,0.13112 -0.43679,0.279727 -0.52863,0.330305 -0.0966,0.0531 -0.18759,0.125553 -0.21573,0.171625 -0.0924,0.151158 -0.14837,0.211803 -0.32806,0.355579 -0.0992,0.07932 -0.19088,0.179135 -0.20374,0.221831 -0.0129,0.04269 -0.0615,0.138353 -0.10787,0.212637 -0.12791,0.204607 -0.0628,0.251485 0.43864,0.315898 0.23796,0.03056 0.45225,0.04144 0.47621,0.02414 0.0633,-0.04569 0.37986,-0.0678 0.44498,-0.03108 0.0305,0.01726 0.0853,0.07027 0.12149,0.117811 0.1092,0.143028 0.48325,0.209537 0.79462,0.140923 0.56052,-0.123522 0.7586,-0.109399 1.14117,0.08134 0.0617,0.03077 0.13753,0.09091 0.16853,0.133636 0.031,0.0427 0.10164,0.112012 0.157,0.153957 0.0553,0.04195 0.15004,0.125615 0.21045,0.185915 0.14601,0.145824 0.35015,0.232661 0.52009,0.22124 0.0763,-0.0051 0.1893,0.0094 0.2513,0.03218 0.062,0.02285 0.15073,0.02506 0.19714,0.0049 0.0942,-0.0408 0.47051,0.03352 0.55448,0.109501 0.40811,0.369356 0.69725,0.583264 0.96089,0.710882 0.0958,0.04638 0.18272,0.09612 0.19313,0.110549 0.0357,0.0494 0.43945,0.243754 0.59237,0.285138 0.143,0.0387 0.27328,0.100119 0.63809,0.300857 0.1035,0.05693 0.18546,0.137862 0.26752,0.264069 0.1304,0.200554 0.37536,0.38986 0.53552,0.413881 0.0542,0.0081 0.17398,-0.01465 0.26621,-0.05064 0.29983,-0.116959 0.53063,-0.04282 0.77086,0.247643 0.11037,0.133454 0.16931,0.17306 0.29764,0.200124 0.088,0.01856 0.21393,0.01448 0.27977,-0.0091 0.0659,-0.02352 0.21237,-0.04106 0.32556,-0.03896 0.20258,0.0038 0.21193,-6.2e-5 0.59505,-0.244042 0.4899,-0.31199 0.5557,-0.366101 0.81348,-0.668306 z m 3.03666,-2.154373 c 0.47703,-0.410508 0.70417,-0.635551 0.80599,-0.798687 0.1111,-0.178011 0.11678,-0.218072 0.0573,-0.403533 -0.0654,-0.20394 -0.11203,-0.254965 -0.30824,-0.337938 -0.096,-0.0406 -0.18944,-0.09438 -0.2076,-0.119539 -0.0181,-0.02517 -0.0651,-0.04587 -0.10414,-0.046 -0.0391,-1.93e-4 -0.10012,-0.02069 -0.13557,-0.04563 -0.0354,-0.02494 -0.11092,-0.05191 -0.16776,-0.05988 -0.10722,-0.01508 -0.19848,-0.08665 -0.39282,-0.308109 -0.18319,-0.208728 -0.21752,-0.228017 -0.51649,-0.289986 -0.33849,-0.07016 -0.44294,-0.152178 -0.51596,-0.405209 -0.0706,-0.244815 -0.28081,-0.475694 -0.42076,-0.462158 -0.0528,0.0051 -0.1578,-0.02011 -0.23339,-0.05603 -0.0756,-0.03589 -0.16599,-0.07795 -0.20087,-0.0934 -0.0349,-0.01546 -0.0778,-0.04803 -0.0954,-0.0724 -0.0177,-0.02439 -0.22753,-0.06091 -0.46651,-0.08117 -0.54167,-0.04594 -0.64105,-0.09569 -0.83473,-0.417914 -0.13617,-0.226542 -0.15899,-0.248079 -0.37138,-0.349857 -0.12445,-0.05965 -0.28406,-0.116748 -0.35468,-0.12688 -0.173,-0.02481 -0.29052,-0.06959 -0.50822,-0.193625 -0.17254,-0.09831 -0.34073,-0.134337 -0.40625,-0.08703 -0.0607,0.04385 -0.34022,0.0151 -0.48365,-0.04978 -0.0822,-0.03718 -0.24327,-0.07259 -0.35793,-0.0787 -0.11467,-0.0061 -0.28786,-0.0151 -0.38487,-0.01999 -0.22622,-0.0114 -0.34582,-0.05252 -0.50997,-0.175308 -0.0727,-0.05444 -0.20589,-0.108468 -0.29581,-0.120069 -0.13263,-0.0171 -0.17668,-0.0062 -0.2335,0.05764 -0.16554,0.186149 -0.25365,0.251465 -0.39097,0.290138 -0.12059,0.03393 -0.1633,0.02542 -0.24544,-0.04879 -0.12194,-0.110116 -0.40007,-0.239571 -0.51949,-0.241723 -0.0486,-8.43e-4 -0.18881,0.03666 -0.31163,0.08342 -0.24778,0.09432 -0.50288,0.292419 -0.64102,0.49773 -0.11279,0.167669 -0.44039,0.360916 -0.65656,0.387283 -0.29014,0.03539 -0.76315,0.307161 -0.7821,0.449366 -0.006,0.04155 -0.0364,0.11211 -0.0686,0.156829 -0.0528,0.07335 -0.0484,0.09097 0.0447,0.18046 0.12559,0.120614 0.26976,0.186784 0.44267,0.203194 0.0714,0.0068 0.14271,0.02996 0.15826,0.05151 0.0292,0.04053 0.47366,0.07038 0.5225,0.03512 0.0347,-0.02507 0.64556,0.03708 0.66786,0.06795 0.009,0.01254 0.14489,0.03307 0.30186,0.0456 0.15697,0.01253 0.37363,0.0644 0.48145,0.115269 0.10782,0.05088 0.2741,0.122303 0.36947,0.158767 0.0954,0.03644 0.24553,0.109953 0.33369,0.163316 0.0882,0.05337 0.22236,0.109667 0.29822,0.125105 0.40214,0.08185 0.70882,0.157559 0.72413,0.178755 0.01,0.01317 0.12015,0.03367 0.24592,0.04562 0.18849,0.0179 0.25642,0.04606 0.38662,0.160378 0.0869,0.07627 0.27517,0.226381 0.41844,0.333568 0.14327,0.107187 0.29299,0.22647 0.33271,0.265066 0.0398,0.03861 0.12563,0.110604 0.19096,0.159987 0.0652,0.04942 0.11633,0.09156 0.1134,0.09367 -0.003,0.0021 0.12011,0.05477 0.27341,0.116996 0.15331,0.06224 0.28813,0.12615 0.29959,0.142035 0.0115,0.0159 0.0546,0.03479 0.0958,0.04199 0.0948,0.01661 0.28474,0.167679 0.47376,0.376837 0.12959,0.143436 0.27227,0.238923 0.66641,0.446082 0.0583,0.03065 0.15959,0.09151 0.22515,0.135298 0.0906,0.06058 0.1399,0.06807 0.20564,0.03138 0.10859,-0.0606 0.30084,-0.03122 0.41283,0.06311 0.0472,0.03972 0.18009,0.11286 0.29544,0.16255 0.11538,0.04969 0.24355,0.129287 0.28485,0.176873 0.0582,0.06702 0.12061,0.08505 0.27727,0.07989 0.1112,-0.0037 0.23262,-0.0284 0.26983,-0.05501 0.1787,-0.128266 0.65815,-0.25158 0.97922,-0.252613 0.0753,-2.44e-4 0.14139,-0.0037 0.14696,-0.0078 0.006,-0.0041 0.1496,-0.127297 0.32003,-0.274012 z m -6.77346,4.705131 c 0.0195,-0.04589 0.0858,-0.133673 0.14727,-0.195069 0.15686,-0.156653 0.21837,-0.276893 0.25881,-0.505739 0.0379,-0.214255 0.004,-0.292581 -0.20319,-0.461672 -0.0648,-0.05302 -0.19782,-0.162164 -0.29563,-0.242528 -0.0978,-0.08038 -0.2073,-0.141094 -0.24331,-0.134943 -0.036,0.0061 -0.0772,-0.0051 -0.0915,-0.0249 -0.0144,-0.01981 -0.0933,-0.05279 -0.1755,-0.0733 -0.58488,-0.145709 -0.57111,-0.136565 -0.86047,-0.571252 -0.22879,-0.343721 -0.28406,-0.407649 -0.40721,-0.470721 -0.0784,-0.04012 -0.15744,-0.0936 -0.17575,-0.118785 -0.0183,-0.02516 -0.16236,-0.103773 -0.32015,-0.174631 -0.15779,-0.07085 -0.29867,-0.14516 -0.31307,-0.165114 -0.0144,-0.01995 -0.15013,-0.03885 -0.30161,-0.04201 -0.42096,-0.0088 -0.54847,-0.07423 -0.98512,-0.505909 -0.0202,-0.01977 -0.10277,-0.05273 -0.18378,-0.07307 -0.081,-0.02033 -0.2108,-0.06529 -0.28845,-0.09989 -0.0777,-0.03459 -0.22266,-0.06236 -0.32224,-0.06169 -0.0996,6.62e-4 -0.19109,-0.01266 -0.20333,-0.02962 -0.0123,-0.01698 -0.14144,-0.0593 -0.2871,-0.0941 -0.23401,-0.0559 -0.82783,-0.307722 -0.87292,-0.370172 -0.009,-0.01283 -0.081,-0.01901 -0.1593,-0.01375 -0.0783,0.0053 -0.19333,0.0056 -0.25551,7.22e-4 -0.39763,-0.03106 -0.66239,-0.02413 -0.75279,0.01973 -0.0573,0.02776 -0.14803,0.04159 -0.20181,0.03066 -0.14515,-0.02943 -0.33061,-1.78e-4 -0.42336,0.06679 -0.0952,0.06877 -0.27922,0.09607 -0.43415,0.06443 -0.0597,-0.01218 -0.14719,-0.02571 -0.19444,-0.03005 -0.0473,-0.0044 -0.20894,-0.06264 -0.35936,-0.129581 -0.15039,-0.06694 -0.3252,-0.129441 -0.38847,-0.138887 -0.10695,-0.01598 -0.12845,-0.0053 -0.30718,0.153446 -0.17698,0.157151 -0.41279,0.331705 -0.76683,0.56757 -0.0763,0.05139 -0.22379,0.187322 -0.32715,0.302899 -0.1034,0.115525 -0.216,0.23842 -0.2503,0.273019 -0.0342,0.03462 -0.0595,0.09895 -0.0561,0.143048 0.005,0.06423 0.0372,0.08927 0.16244,0.126134 0.0859,0.02529 0.17197,0.0678 0.19121,0.09446 0.0192,0.02668 0.1048,0.06099 0.19007,0.07629 0.0852,0.01531 0.21707,0.05486 0.29285,0.08791 0.0758,0.03304 0.14885,0.0521 0.16241,0.04232 0.0135,-0.0098 0.0479,0.0145 0.0764,0.05399 0.10385,0.143841 0.30596,0.179072 0.78452,0.136767 0.14977,-0.01325 0.3062,-0.0039 0.34762,0.0207 0.0414,0.02466 0.0967,0.04201 0.12274,0.03864 0.0491,-0.0064 0.0853,0.0086 0.65703,0.271711 0.18808,0.08655 0.38813,0.178233 0.44457,0.203741 0.0565,0.02553 0.11185,0.05914 0.12313,0.07476 0.0112,0.01561 0.13775,0.08496 0.28106,0.154104 0.14332,0.06914 0.26991,0.138644 0.28133,0.154456 0.0114,0.0158 0.15309,0.09109 0.31486,0.167299 0.16177,0.07621 0.31488,0.167328 0.34026,0.202491 0.0254,0.03517 0.0725,0.0558 0.10454,0.04583 0.0851,-0.02641 0.42383,0.1484 0.50471,0.260439 0.0876,0.121346 0.27703,0.241689 0.48091,0.30554 0.087,0.02725 0.24217,0.113341 0.34485,0.191326 0.10269,0.07799 0.23512,0.155879 0.29429,0.173098 0.0592,0.01723 0.14451,0.0609 0.18967,0.09709 0.18771,0.150404 0.68599,0.326952 0.86078,0.304975 0.15165,-0.01907 0.40388,0.0072 0.43108,0.04488 0.0166,0.02297 0.0797,0.06646 0.14012,0.09655 0.11941,0.05944 0.5125,0.40418 0.6016,0.52759 0.0876,0.121448 0.19932,0.102063 0.49582,-0.08609 0.51689,-0.327994 0.57398,-0.347473 0.87867,-0.299333 0.1389,0.02194 0.23577,0.0108 0.33602,-0.03862 0.23839,-0.117506 0.52721,-0.33411 0.56543,-0.424034 z m 10.5328,-7.663812 c 0.10357,-0.08575 0.24829,-0.17703 0.32536,-0.204173 0.13339,-0.04771 0.14207,-0.05902 0.23354,-0.304784 0.0948,-0.254664 0.0948,-0.255527 -0.0124,-0.387865 -0.24032,-0.296807 -0.3243,-0.370267 -0.53138,-0.464805 -0.70214,-0.320609 -0.77131,-0.365332 -1.24377,-0.80407 -0.0284,-0.02633 -0.12961,-0.07769 -0.22503,-0.114114 -0.11387,-0.04347 -0.20519,-0.109143 -0.26576,-0.191097 -0.10357,-0.140379 -0.15891,-0.159381 -0.39669,-0.13717 -0.22517,0.02104 -0.37024,-0.03989 -0.50353,-0.211504 -0.0616,-0.07915 -0.13955,-0.150328 -0.17335,-0.158096 -0.0338,-0.0077 -0.10955,-0.04163 -0.16826,-0.0753 -0.0587,-0.03369 -0.11839,-0.05282 -0.13261,-0.04255 -0.0142,0.01028 -0.0561,-0.0025 -0.0931,-0.0285 -0.037,-0.02597 -0.1192,-0.04797 -0.18268,-0.04895 -0.068,-10e-4 -0.22422,-0.07171 -0.38043,-0.172122 -0.14576,-0.0937 -0.35014,-0.223787 -0.45417,-0.289098 -0.10404,-0.0653 -0.25727,-0.165303 -0.34052,-0.222211 -0.0832,-0.05691 -0.19871,-0.117158 -0.25655,-0.133909 -0.0579,-0.01674 -0.18212,-0.06585 -0.27617,-0.109104 -0.0941,-0.04325 -0.19112,-0.06414 -0.21569,-0.04641 -0.0246,0.01774 -0.22825,0.01161 -0.45261,-0.01363 -0.39141,-0.04402 -0.4138,-0.04167 -0.5518,0.05796 -0.21168,0.152833 -0.52703,0.215743 -0.66254,0.132169 -0.0589,-0.03627 -0.16894,-0.07407 -0.24471,-0.084 -0.0758,-0.0099 -0.19674,-0.0597 -0.26882,-0.110597 -0.0937,-0.06613 -0.22927,-0.101629 -0.47534,-0.124384 -0.31671,-0.02929 -0.35523,-0.02394 -0.4808,0.06672 -0.18647,0.13462 -0.30564,0.13445 -0.49281,-7.22e-4 -0.18828,-0.13596 -0.23144,-0.138766 -0.43672,-0.0284 -0.0865,0.04651 -0.26713,0.124673 -0.40143,0.173642 -0.17948,0.06546 -0.27521,0.119799 -0.36141,0.205051 -0.0645,0.06378 -0.18343,0.166792 -0.26437,0.228851 -0.10914,0.084 -0.1568,0.147633 -0.18481,0.248028 -0.0207,0.07433 -0.0666,0.178319 -0.10189,0.231107 -0.0714,0.106964 -0.0402,0.175914 0.10483,0.231116 0.053,0.02016 0.13214,0.05485 0.17573,0.077 0.0436,0.02219 0.1355,0.03126 0.20427,0.02023 0.0688,-0.01105 0.20458,0.0064 0.30181,0.03864 0.0972,0.0323 0.26485,0.0714 0.37249,0.08692 0.30862,0.0445 0.42065,0.10458 0.56314,0.301941 0.12291,0.170234 0.22958,0.235985 0.61113,0.376814 0.12048,0.04445 0.28655,0.136854 0.36544,0.203309 0.0449,0.0378 0.1,0.06634 0.12252,0.06341 0.0226,-0.0029 0.071,0.03634 0.10769,0.0872 0.0685,0.09486 0.27553,0.165769 0.34308,0.11749 0.0632,-0.04524 0.50285,-0.02107 0.53944,0.02962 0.0189,0.02615 0.0713,0.05863 0.11644,0.07219 0.11065,0.03321 0.43226,0.259504 0.42344,0.297946 -0.004,0.01687 0.0192,0.0358 0.0514,0.04177 0.0544,0.01033 0.24666,0.08884 0.59983,0.244887 0.16239,0.07175 0.45819,0.249145 0.56433,0.338441 0.0613,0.05158 0.16016,0.07653 0.5009,0.126465 0.16046,0.02352 0.30917,0.12658 0.37886,0.262565 0.0379,0.07405 0.10926,0.150535 0.17266,0.185288 0.069,0.0378 0.10805,0.08133 0.10805,0.120694 2e-5,0.0953 0.008,0.09846 0.30752,0.119927 0.15479,0.0111 0.28916,0.03089 0.29861,0.04398 0.009,0.01307 0.089,0.04777 0.17689,0.077 0.13037,0.04344 0.18525,0.08857 0.29864,0.245634 0.13416,0.185822 0.14518,0.192867 0.32462,0.202628 0.38712,0.02126 0.53298,0.04437 0.56602,0.0897 0.0613,0.08405 0.31844,0.03301 0.5022,-0.09966 0.12286,-0.0887 0.23433,-0.134524 0.42616,-0.175092 0.21485,-0.04547 0.28298,-0.07572 0.39412,-0.174936 0.0739,-0.06597 0.19191,-0.145967 0.26241,-0.177503 0.0704,-0.03164 0.14464,-0.07993 0.16492,-0.10727 0.0204,-0.02735 0.12095,-0.119299 0.22371,-0.204322 z m -17.21892,12.304899 c 0.0847,-0.0762 0.14453,-0.176987 0.1939,-0.32677 0.0393,-0.119139 0.10076,-0.237827 0.13664,-0.263736 0.0814,-0.05874 0.1611,-0.431206 0.10804,-0.504684 -0.0216,-0.0299 -0.0983,-0.102959 -0.17048,-0.162343 -0.23552,-0.193841 -0.46515,-0.37524 -0.54678,-0.431954 -0.0446,-0.03094 -0.1052,-0.119102 -0.13698,-0.198969 -0.0725,-0.183266 -0.22956,-0.266189 -0.71227,-0.37595 -0.0637,-0.01447 -0.15238,-0.0558 -0.197,-0.09181 -0.0446,-0.03599 -0.10039,-0.0707 -0.12388,-0.07714 -0.0235,-0.0065 -0.10631,-0.06154 -0.18396,-0.122491 -0.0777,-0.06093 -0.1657,-0.129408 -0.19565,-0.152125 -0.0299,-0.02271 -0.14313,-0.04632 -0.25157,-0.05241 -0.13463,-0.0076 -0.26278,-0.05139 -0.40412,-0.138229 -0.11384,-0.06993 -0.25523,-0.154005 -0.31422,-0.18682 -0.0972,-0.05405 -0.10634,-0.07228 -0.0971,-0.19408 0.0114,-0.150876 -0.0644,-0.279968 -0.19651,-0.33487 -0.17959,-0.07466 -0.41849,-0.141155 -0.52189,-0.145281 -0.0585,-0.0023 -0.11877,-0.02138 -0.13388,-0.04232 -0.0151,-0.02093 -0.12066,-0.04231 -0.23453,-0.04748 -0.58285,-0.02647 -0.51131,0.0021 -0.77686,-0.311274 -0.23903,-0.282049 -0.23903,-0.282049 -0.54873,-0.367367 -0.17036,-0.04691 -0.47594,-0.103251 -0.67906,-0.125211 -0.20312,-0.02196 -0.41093,-0.04749 -0.46179,-0.05673 -0.0508,-0.0093 -0.19167,0.02254 -0.31291,0.07063 -0.21778,0.08637 -0.66715,0.157108 -0.76894,0.121024 -0.0289,-0.01023 -0.11501,-0.001 -0.19143,0.02045 -0.0765,0.02149 -0.14845,0.0259 -0.16006,0.0098 -0.0116,-0.01609 -0.10514,-0.0092 -0.20782,0.01531 -0.24264,0.05792 -0.64391,-9.25e-4 -0.75743,-0.111116 -0.0474,-0.046 -0.12492,-0.121236 -0.17229,-0.167215 -0.0727,-0.07049 -0.11702,-0.07668 -0.28323,-0.03948 -0.22489,0.05033 -0.69518,0.32462 -0.79274,0.462355 -0.033,0.04663 -0.23438,0.216699 -0.44741,0.37792 -0.29192,0.220921 -0.39279,0.312959 -0.40949,0.373654 -0.0346,0.126117 0.004,0.439305 0.0578,0.471226 0.10727,0.06327 0.60827,-0.0011 0.92949,-0.119476 0.25057,-0.09232 0.34273,-0.109721 0.40776,-0.077 0.0462,0.02327 0.16436,0.03263 0.26257,0.02081 0.0985,-0.01187 0.28125,0.01201 0.4074,0.05316 0.21499,0.07012 0.24089,0.09006 0.42804,0.329604 0.17663,0.226062 0.21654,0.259035 0.35217,0.290742 0.0841,0.01965 0.16537,0.05293 0.18052,0.07391 0.0152,0.02097 0.11818,0.04567 0.22897,0.05488 0.14917,0.01238 0.22902,0.0438 0.30773,0.121082 0.11917,0.116952 0.23876,0.135068 0.50963,0.07717 0.0994,-0.02122 0.2052,-0.02367 0.23515,-0.0055 0.03,0.01828 0.0679,0.03306 0.0844,0.0329 0.0866,-9.03e-4 0.29271,0.08123 0.36074,0.143794 0.0428,0.03931 0.18964,0.167104 0.32641,0.283923 0.13679,0.116804 0.26432,0.24838 0.28348,0.292343 0.0246,0.05649 0.0879,0.09095 0.21607,0.117382 0.0997,0.02059 0.20654,0.06447 0.23744,0.09749 0.0674,0.07206 0.27122,0.2124 0.37239,0.256414 0.04,0.01741 0.10928,0.07275 0.15384,0.122958 0.12228,0.13783 0.32925,0.212254 0.59126,0.21273 0.28275,5.04e-4 0.51095,0.08325 0.63974,0.231953 0.17965,0.207425 0.53926,0.554709 0.60252,0.581853 0.0348,0.01498 0.13113,10e-4 0.21393,-0.03091 0.0828,-0.03196 0.18537,-0.05267 0.22792,-0.04603 0.12013,0.01876 0.36067,0.12205 0.39502,0.169624 0.0454,0.06302 0.40962,0.232226 0.44491,0.206753 0.0166,-0.012 0.1552,-0.0068 0.30794,0.01171 0.15274,0.01844 0.30289,0.01535 0.33367,-0.0068 0.0308,-0.02222 0.0651,-0.02782 0.0762,-0.01241 0.0111,0.01541 0.049,0.0072 0.084,-0.01805 0.0351,-0.02532 0.0728,-0.03347 0.084,-0.01806 0.0111,0.01541 0.0671,-0.0053 0.12451,-0.04596 0.0574,-0.04067 0.14614,-0.07561 0.19727,-0.07765 0.0511,-0.002 0.10914,-0.02754 0.12896,-0.0566 0.0198,-0.02912 0.0911,-0.10244 0.15849,-0.163028 z m 3.53149,-2.525277 c 0.10075,-0.132911 0.15163,-0.291775 0.14963,-0.467393 -0.003,-0.190734 -0.0789,-0.275848 -0.24556,-0.272604 -0.2883,0.0056 -0.50289,-0.09869 -0.80387,-0.390751 -0.0484,-0.04697 -0.1131,-0.09057 -0.14373,-0.09692 -0.0306,-0.0064 -0.0881,-0.06059 -0.12769,-0.120559 -0.232,-0.351127 -0.33947,-0.478418 -0.44268,-0.522203 -0.0611,-0.0261 -0.12981,-0.07327 -0.15274,-0.104788 -0.023,-0.03153 -0.12774,-0.08577 -0.23289,-0.120559 -0.10517,-0.03478 -0.20512,-0.0825 -0.22212,-0.106038 -0.017,-0.02355 -0.14233,-0.05206 -0.27853,-0.06337 -0.17101,-0.01421 -0.3667,-0.07527 -0.63249,-0.197331 -0.21169,-0.09722 -0.38509,-0.195622 -0.38535,-0.218673 -2.4e-4,-0.02305 -0.0759,-0.08534 -0.16791,-0.138451 -0.0921,-0.05308 -0.18763,-0.124341 -0.21233,-0.158301 -0.0247,-0.03398 -0.10067,-0.07891 -0.16885,-0.09991 -0.0681,-0.02099 -0.13681,-0.05577 -0.15253,-0.0773 -0.0157,-0.02154 -0.12058,-0.04559 -0.23299,-0.05348 -0.1493,-0.01046 -0.22067,-0.03681 -0.26462,-0.09771 -0.033,-0.04584 -0.0802,-0.08081 -0.10458,-0.07765 -0.0244,0.0031 -0.0615,-0.01804 -0.0826,-0.04716 -0.021,-0.02912 -0.064,-0.04952 -0.0957,-0.04541 -0.0316,0.0041 -0.17348,-0.01887 -0.31523,-0.0511 -0.14175,-0.03223 -0.26869,-0.05068 -0.28208,-0.04102 -0.0133,0.0097 -0.0342,0.004 -0.0462,-0.01267 -0.012,-0.01663 -0.118,-0.05976 -0.23556,-0.09586 -0.20387,-0.06261 -0.39287,-0.168459 -0.56986,-0.319154 -0.13804,-0.117515 -0.30285,-0.169306 -0.42061,-0.132147 -0.062,0.0196 -0.14683,0.01536 -0.18847,-0.0093 -0.17967,-0.106601 -0.63373,-0.09417 -0.96491,0.02641 -0.14086,0.05131 -0.38752,0.05778 -0.42124,0.01109 -0.01,-0.01375 -0.0626,-0.027 -0.11709,-0.02949 -0.0545,-0.0025 -0.12777,-0.02434 -0.16286,-0.04858 -0.0351,-0.02424 -0.13481,-0.05981 -0.22163,-0.07904 -0.0868,-0.01922 -0.18837,-0.05603 -0.22567,-0.08179 -0.11354,-0.07834 -0.21696,-0.03525 -0.51961,0.216539 -0.19019,0.158238 -0.30775,0.282286 -0.37549,0.396184 -0.10276,0.172806 -0.30599,0.33705 -0.59748,0.48292 -0.21041,0.105322 -0.22462,0.16885 -0.0567,0.251677 0.0746,0.03684 0.19412,0.08219 0.26562,0.100779 0.0715,0.01857 0.16695,0.06372 0.2121,0.100312 0.0812,0.06585 0.53665,0.183086 0.81981,0.211085 0.0806,0.008 0.15457,0.0256 0.16437,0.03918 0.01,0.01356 0.11168,0.02952 0.2264,0.03539 0.11471,0.0059 0.25991,0.02839 0.32264,0.05001 0.25845,0.08908 0.54157,0.09209 0.76829,0.0082 0.17418,-0.06447 0.26724,-0.07376 0.42576,-0.04258 0.20288,0.03991 0.20288,0.03991 0.48779,0.386331 0.26666,0.324237 0.29904,0.351917 0.50495,0.432511 0.12101,0.04735 0.25211,0.111333 0.29132,0.142191 0.0399,0.03139 0.15159,0.04808 0.25363,0.0379 0.34036,-0.03397 0.54135,0.02332 0.83038,0.23665 0.14345,0.105887 0.18234,0.1538 0.22254,0.274123 0.0988,0.295858 0.4313,0.6829 0.6235,0.725885 0.059,0.01319 0.11861,0.03964 0.13241,0.05875 0.0138,0.01911 0.0579,0.03487 0.0981,0.03503 0.0402,1.53e-4 0.0949,0.0306 0.12164,0.06766 0.0267,0.03707 0.0747,0.0593 0.10661,0.04941 0.0318,-0.0099 0.0822,-0.0015 0.1119,0.0188 0.0297,0.02026 0.14019,0.02644 0.24559,0.01383 0.23389,-0.028 0.37947,0.03148 0.5662,0.23135 0.0783,0.08386 0.17981,0.158515 0.22552,0.165874 0.0634,0.01024 0.10275,0.05166 0.16605,0.1747 0.0456,0.08871 0.0853,0.192028 0.0883,0.229598 0.003,0.03762 0.022,0.0699 0.0425,0.07181 0.0205,0.0019 0.0853,0.03898 0.14419,0.08236 0.0704,0.05189 0.14549,0.06994 0.21968,0.05281 0.062,-0.01434 0.14541,-0.01231 0.18536,0.0044 0.04,0.01679 0.10475,0.008 0.14399,-0.01951 0.0392,-0.02757 0.12022,-0.05793 0.17996,-0.06759 0.0597,-0.0097 0.14491,-0.04288 0.18933,-0.07378 0.0442,-0.03116 0.18406,-0.09452 0.31037,-0.141343 0.26918,-0.09981 0.89137,-0.525262 1.02406,-0.700235 z M 157.94572,47.97848 c 0.0645,-0.251202 0.0326,-0.406914 -0.0806,-0.392276 -0.0246,0.0032 -0.19109,-0.02616 -0.36992,-0.06521 -0.37178,-0.08117 -0.47888,-0.08762 -0.65995,-0.0397 -0.12839,0.034 -0.43237,0.01461 -0.61224,-0.03902 -0.21724,-0.06477 -0.21963,0.115237 -0.004,0.253082 0.0751,0.04783 0.17113,0.134574 0.21352,0.192746 0.0659,0.09045 0.1181,0.109827 0.35992,0.133755 0.15556,0.01538 0.30339,0.01314 0.32851,-0.005 0.0797,-0.0575 0.21566,-0.01182 0.39053,0.131185 0.0933,0.07627 0.18892,0.145344 0.21256,0.153479 0.0867,0.02986 0.15664,-0.0722 0.22108,-0.323056 z m 5.87727,-5.667115 c 0.0652,-0.07945 0.16137,-0.261072 0.21363,-0.403617 0.0523,-0.142544 0.11548,-0.286146 0.14047,-0.319123 0.0843,-0.11117 0.24613,-0.510631 0.22101,-0.545442 -0.0238,-0.03302 -0.67316,-0.104554 -0.86977,-0.09585 -0.0516,0.0023 -0.14167,0.03796 -0.19991,0.07926 -0.0582,0.04131 -0.16534,0.08709 -0.23802,0.101797 -0.1292,0.02613 -0.28378,0.110707 -1.06777,0.584229 -0.58105,0.350939 -0.75178,0.552171 -0.8779,1.034759 -0.0348,0.13331 -0.095,0.276862 -0.13359,0.319015 -0.0386,0.04215 -0.083,0.119432 -0.0987,0.171697 -0.0155,0.05228 -0.0594,0.14821 -0.0974,0.213182 -0.0676,0.115781 -0.0669,0.140828 0.009,0.333635 0.0442,0.111896 0.18485,0.148066 0.28955,0.07441 0.037,-0.02618 0.18609,-0.09473 0.33116,-0.152533 0.14508,-0.05778 0.38941,-0.167922 0.54301,-0.244687 0.1536,-0.07677 0.2984,-0.142052 0.32178,-0.145075 0.0233,-0.0031 0.22444,-0.137853 0.44684,-0.299593 0.24377,-0.177484 0.485,-0.329011 0.60764,-0.382082 0.26532,-0.114838 0.31695,-0.151305 0.45885,-0.323858 z m -7.94763,0.472038 c 0.0281,-0.07878 0.10864,-0.17978 0.22637,-0.28356 0.21027,-0.185349 0.31019,-0.365516 0.40387,-0.72822 0.049,-0.18967 0.0882,-0.265489 0.16703,-0.323045 0.0764,-0.05564 0.10895,-0.115015 0.12584,-0.22891 0.0126,-0.08454 0.0369,-0.212251 0.0542,-0.283813 0.0173,-0.07154 0.0312,-0.212117 0.031,-0.31234 -1.8e-4,-0.100244 0.0258,-0.218618 0.0579,-0.263094 0.032,-0.04447 0.0554,-0.116537 0.052,-0.160147 -0.004,-0.04356 0.0326,-0.128764 0.0799,-0.189233 0.0572,-0.07314 0.10724,-0.242151 0.14948,-0.504925 0.10004,-0.622423 0.10902,-0.661878 0.15868,-0.697728 0.10084,-0.07281 0.30121,-0.446437 0.32167,-0.599818 0.008,-0.06403 0.0847,-0.17956 0.20934,-0.317583 0.15809,-0.175052 0.20309,-0.252322 0.23317,-0.400487 0.0702,-0.346066 0.11991,-0.421698 0.42953,-0.654041 0.3569,-0.267828 0.37635,-0.290623 0.3382,-0.396271 -0.023,-0.06352 -0.0592,-0.08908 -0.1319,-0.09348 -0.10549,-0.0063 -0.20251,0.04986 -0.57316,0.331854 -0.2596,0.197518 -0.40594,0.240474 -0.63588,0.186728 -0.1457,-0.03406 -0.15433,-0.04227 -0.19101,-0.181634 -0.0518,-0.196685 0.0843,-0.500491 0.2955,-0.659355 0.16708,-0.125817 0.22475,-0.26408 0.16043,-0.385113 -0.0322,-0.06047 -0.0125,-0.12868 0.0871,-0.303148 0.0707,-0.123787 0.12974,-0.244408 0.13116,-0.26799 9.2e-4,-0.02359 0.10435,-0.122963 0.22872,-0.220845 0.36959,-0.290872 0.45197,-0.45558 0.34408,-0.687732 -0.0842,-0.181143 -0.1667,-0.18856 -0.3351,-0.03007 -0.0724,0.06816 -0.13897,0.144032 -0.14788,0.168648 -0.0262,0.07222 -0.2792,0.330162 -0.41921,0.427411 -0.13412,0.09312 -0.2905,0.319842 -0.43219,0.626505 -0.0441,0.09532 -0.0927,0.182478 -0.10822,0.193641 -0.0155,0.01116 -0.0961,0.127013 -0.17912,0.257442 -0.11654,0.183031 -0.2138,0.288709 -0.42626,0.463165 -0.24735,0.203134 -0.2797,0.241771 -0.31893,0.381326 -0.0241,0.08539 -0.0745,0.223474 -0.11216,0.306796 -0.089,0.196845 -0.0868,0.220112 0.0367,0.391188 0.1182,0.163731 0.12277,0.241575 0.0297,0.505711 -0.0621,0.176252 -0.0795,0.196295 -0.30132,0.347799 -0.20724,0.141534 -0.24402,0.179886 -0.30547,0.323352 -0.0386,0.08942 -0.12304,0.22529 -0.18782,0.301911 -0.0648,0.0766 -0.16999,0.259479 -0.23385,0.406353 -0.0639,0.146873 -0.12689,0.274852 -0.14013,0.284402 -0.0262,0.01895 -0.351,0.730177 -0.46078,1.009184 -0.0726,0.184346 -0.32972,0.540193 -0.45665,0.631832 -0.0417,0.03011 -0.084,0.100922 -0.094,0.157341 -0.01,0.05642 -0.0472,0.153232 -0.0828,0.215081 -0.0354,0.06183 -0.10578,0.254085 -0.15627,0.427178 -0.0875,0.299954 -0.141,0.38646 -0.34562,0.558813 -0.25789,0.217199 -0.35481,0.414895 -0.26466,0.539762 0.0727,0.100617 0.16512,0.132418 0.57461,0.197683 0.54505,0.08685 0.8303,0.146711 0.92408,0.193915 0.15162,0.07632 0.3182,0.02577 0.53215,-0.161491 0.11836,-0.103632 0.21955,-0.170371 0.27004,-0.178186 0.13964,-0.02167 0.34027,-0.188535 0.38798,-0.322698 z m 15.8215,-3.179875 c -0.11975,-0.06028 -0.19061,-0.247989 -0.16217,-0.429607 0.0206,-0.131712 0.004,-0.188931 -0.11264,-0.382318 -0.13487,-0.224023 -0.21976,-0.541123 -0.17219,-0.642969 0.0128,-0.02716 0.0789,-0.09009 0.14731,-0.139733 0.10515,-0.07642 0.15243,-0.08542 0.30799,-0.05837 0.15517,0.02699 0.20901,0.01687 0.34584,-0.06503 0.23609,-0.141285 0.60467,-0.216946 0.80326,-0.164853 0.42023,0.110232 0.52624,0.128777 0.61485,0.107533 0.12263,-0.0294 0.14781,-0.04899 0.16717,-0.130119 0.0446,-0.18678 0.19475,-0.463715 0.31055,-0.572921 0.17945,-0.169178 0.23079,-0.154528 0.36011,0.1029 0.1176,0.234104 0.21006,0.283773 0.42255,0.227053 0.11221,-0.02996 -0.0726,0.11134 -1.40969,1.078139 -1.53889,1.112508 -1.53889,1.112508 -1.62296,1.070267 z m 3.44895,-2.440084 c -0.006,-0.02443 0.0193,-0.120424 0.0577,-0.213265 0.0672,-0.162618 0.0755,-0.170754 0.22697,-0.221813 0.0864,-0.02917 0.25183,-0.119482 0.3675,-0.200693 0.17913,-0.125619 0.21321,-0.163877 0.22988,-0.256929 0.0107,-0.06009 0.005,-0.147923 -0.013,-0.19515 -0.0435,-0.114489 0.0796,-0.483906 0.23984,-0.720007 0.11511,-0.169586 0.131,-0.23128 0.14461,-0.561749 0.0223,-0.539469 -0.007,-0.78232 -0.11843,-0.977707 -0.0604,-0.106246 -0.11042,-0.280185 -0.13387,-0.466298 -0.0205,-0.163272 -0.0428,-0.332617 -0.0493,-0.376325 -0.006,-0.04371 0.0423,-0.231001 0.10855,-0.416209 0.13709,-0.383216 0.13993,-0.436365 0.0312,-0.583083 -0.0674,-0.09125 -0.10141,-0.10314 -0.2446,-0.08678 -0.0914,0.01042 -0.27783,0.07605 -0.41427,0.145792 -0.27584,0.140972 -0.57296,0.230171 -0.93716,0.281253 -0.13326,0.01869 -0.28106,0.0507 -0.32844,0.07115 -0.0474,0.0204 -0.17825,0.05827 -0.29085,0.08403 -0.1126,0.02579 -0.22416,0.06091 -0.24792,0.07806 -0.0238,0.01715 -0.13347,0.03923 -0.24376,0.04911 -0.11034,0.0098 -0.21108,0.02516 -0.22391,0.03401 -0.0128,0.0089 -0.12453,0.04122 -0.24816,0.072 -0.12366,0.03074 -0.26204,0.08281 -0.30754,0.11566 -0.0454,0.03285 -0.1907,0.08983 -0.32268,0.126581 -0.13194,0.03679 -0.26024,0.08151 -0.28508,0.09945 -0.0248,0.01792 -0.0998,0.0435 -0.1667,0.05675 -0.0668,0.01331 -0.14398,0.04029 -0.17144,0.05997 -0.0274,0.01967 -0.10052,0.03273 -0.1623,0.02906 -0.1043,-0.0062 -0.26255,0.05913 -0.63156,0.260851 -0.12586,0.06884 -0.15662,0.104696 -0.21065,0.245839 -0.13292,0.347181 -0.17101,0.721672 -0.0854,0.840145 0.0253,0.03501 0.16036,0.06835 0.33206,0.08193 0.26999,0.02133 0.29275,0.03041 0.3389,0.135293 0.0591,0.134378 -0.0127,0.428797 -0.14614,0.59948 -0.11556,0.147754 -0.4321,0.289626 -0.83505,0.37421 -0.15329,0.03218 -0.33396,0.08435 -0.4015,0.115921 -0.0676,0.03156 -0.20734,0.05381 -0.31065,0.04943 -0.10331,-0.0044 -0.2197,0.01586 -0.25862,0.045 -0.14914,0.111382 -0.32422,0.34589 -0.32878,0.439797 -0.003,0.06729 -0.0377,0.120724 -0.11227,0.1746 -0.0591,0.04271 -0.11607,0.114732 -0.12646,0.160076 -0.0255,0.110872 -0.1999,0.292863 -0.33461,0.34905 -0.0602,0.02514 -0.15239,0.02874 -0.20482,0.0081 -0.0859,-0.03386 -0.10116,-0.06428 -0.15393,-0.306835 -0.0744,-0.341945 -0.16409,-0.419921 -0.32928,-0.2865 -0.265,0.214024 -0.32788,0.250372 -0.39257,0.22666 -0.25446,-0.09328 -0.50118,-0.07013 -0.49985,0.04689 9.3e-4,0.09209 -0.19698,0.184432 -0.39654,0.184857 -0.18315,4.02e-4 -0.21552,-0.01404 -0.38315,-0.170957 -0.10071,-0.09427 -0.19155,-0.183099 -0.20188,-0.197405 -0.0396,-0.05493 0.0342,-0.266846 0.1351,-0.387617 0.11271,-0.134873 0.51588,-0.399823 0.65047,-0.427321 0.0537,-0.01099 0.0903,-0.04568 0.12154,-0.114907 0.0518,-0.114945 0.1382,-0.185917 0.21703,-0.178431 0.0389,0.0037 0.14895,-0.07755 0.37244,-0.274823 0.24385,-0.21545 0.36124,-0.300496 0.50794,-0.368199 0.17062,-0.07858 0.20243,-0.105704 0.29954,-0.255432 0.091,-0.140325 0.12952,-0.174971 0.2372,-0.213535 0.13842,-0.04955 0.23347,-0.159581 0.29298,-0.339203 0.0575,-0.173514 0.17522,-0.310507 0.29665,-0.345176 0.0608,-0.01736 0.14713,-0.04968 0.19178,-0.07176 0.0447,-0.02209 0.14121,-0.04422 0.21461,-0.04913 0.10189,-0.0068 0.18277,-0.04457 0.34194,-0.159483 0.11466,-0.08278 0.20826,-0.169502 0.20798,-0.192743 -5.8e-4,-0.05137 0.32909,-0.294801 0.37706,-0.278158 0.0188,0.0065 0.18415,-0.08332 0.36749,-0.199579 0.33508,-0.212387 0.5907,-0.314893 0.69029,-0.27676 0.0295,0.0113 0.0969,-0.01078 0.14994,-0.04904 0.0549,-0.0396 0.18228,-0.07662 0.29597,-0.08603 0.1098,-0.0091 0.22044,-0.03149 0.24583,-0.04982 0.0669,-0.04832 0.31976,-0.114866 0.53263,-0.140177 0.30039,-0.03572 1.14012,-0.216477 1.19724,-0.257712 0.029,-0.02095 0.1586,-0.03791 0.28794,-0.03768 0.1456,2.63e-4 0.26786,-0.02318 0.32099,-0.06154 0.0472,-0.03409 0.10754,-0.06064 0.13406,-0.05901 0.0265,0.0017 0.16223,-0.047 0.30157,-0.108043 0.24104,-0.105617 0.30265,-0.127337 0.58491,-0.206417 0.0666,-0.01868 0.21837,-0.07049 0.3373,-0.1152 0.24863,-0.09346 0.33425,-0.187893 0.40193,-0.443111 0.0356,-0.134688 0.0279,-0.159929 -0.10524,-0.344458 -0.11854,-0.164199 -0.17173,-0.208468 -0.30346,-0.252322 -0.0878,-0.02927 -0.16833,-0.06514 -0.17887,-0.07974 -0.0106,-0.01458 -0.0496,-0.02986 -0.0869,-0.03384 -0.0373,-0.0041 -0.13848,-0.03283 -0.22495,-0.06403 -0.0864,-0.03118 -0.22746,-0.06887 -0.31335,-0.08374 -0.0859,-0.01487 -0.16532,-0.03971 -0.17651,-0.05519 -0.0423,-0.05861 -0.22233,-0.05104 -0.42687,0.01797 -0.35862,0.120978 -0.74569,0.238638 -0.86514,0.262982 -0.0626,0.01277 -0.2006,0.07664 -0.30668,0.141987 -0.1061,0.06532 -0.21998,0.119269 -0.25309,0.119874 -0.0331,6.01e-4 -0.14854,0.03301 -0.25649,0.07203 -0.10794,0.03904 -0.2366,0.07253 -0.28588,0.07446 -0.0492,0.0019 -0.12309,0.02714 -0.16406,0.05598 -0.041,0.02885 -0.11257,0.0596 -0.15907,0.06839 -0.0465,0.0087 -0.221,0.07507 -0.38777,0.147331 -0.31919,0.138307 -0.92763,0.308124 -0.95721,0.267158 -0.01,-0.01326 -0.0466,-0.0031 -0.0823,0.02277 -0.0356,0.02578 -0.10983,0.05162 -0.16474,0.05743 -0.11532,0.01225 -0.75465,0.223365 -0.82066,0.27102 -0.0243,0.0176 -0.11803,0.04916 -0.20798,0.07009 -0.32353,0.07523 -0.54915,0.136118 -0.57583,0.155384 -0.015,0.01081 -0.11959,0.0097 -0.23253,-0.0023 -0.11295,-0.01207 -0.21946,-0.01176 -0.2367,6.61e-4 -0.0173,0.01247 -0.13987,0.02139 -0.2725,0.01987 -0.13265,-0.0015 -0.31339,0.02225 -0.40167,0.05282 -0.0883,0.03056 -0.20509,0.05429 -0.25959,0.0527 -0.18315,-0.0053 -0.55142,0.05328 -0.6131,0.09754 -0.0336,0.02414 -0.1158,0.05475 -0.18264,0.06805 -0.26825,0.05336 -0.6063,0.392173 -0.62781,0.629299 -0.007,0.08436 -0.0332,0.16731 -0.0567,0.184311 -0.0236,0.017 -0.0527,0.08117 -0.0649,0.142571 -0.0173,0.0876 -0.003,0.130923 0.0704,0.201038 0.1179,0.113964 0.16376,0.364223 0.1039,0.567003 -0.0478,0.161811 -0.0437,0.179803 0.0475,0.210016 0.0412,0.01367 0.1207,-0.02132 0.24797,-0.109131 0.10323,-0.07081 0.39684,-0.243614 0.65282,-0.383504 0.36457,-0.199176 0.48314,-0.249779 0.54714,-0.233409 0.1174,0.03004 0.19322,0.154006 0.16199,0.264863 -0.0222,0.0788 -0.0564,0.110751 -0.19557,0.182745 -0.0928,0.04798 -0.37832,0.235363 -0.63451,0.416469 -0.33322,0.235371 -0.52074,0.348878 -0.65852,0.398357 -0.10936,0.03926 -0.29715,0.144413 -0.43434,0.243165 -0.23728,0.170913 -0.24197,0.176917 -0.25968,0.333422 -0.0119,0.106008 -0.0616,0.215717 -0.14833,0.327469 -0.22398,0.288863 -0.43738,0.372468 -0.62803,0.246045 -0.12425,-0.08238 -0.34161,-0.05956 -0.43565,0.04578 -0.0362,0.04055 -0.11228,0.173853 -0.169,0.296166 -0.11933,0.257332 -0.17464,0.305749 -0.40343,0.353217 -0.16712,0.03467 -0.16712,0.03467 -0.32406,-0.1827 -0.15694,-0.217374 -0.15694,-0.217374 -0.104,-0.429683 0.0583,-0.233808 0.11707,-0.353521 0.20493,-0.417359 0.0318,-0.02308 0.0837,-0.08753 0.11526,-0.143156 0.07,-0.123201 0.49696,-0.47478 0.62553,-0.515047 0.0528,-0.01651 0.14724,9.02e-4 0.21835,0.04023 0.2496,0.138108 0.49386,0.107615 0.70615,-0.08816 0.16797,-0.154878 0.20682,-0.316037 0.10995,-0.455762 -0.0978,-0.140676 -0.10593,-0.337526 -0.0228,-0.538795 0.0565,-0.136502 0.0566,-0.1829 9.2e-4,-0.259505 -0.0465,-0.06435 -0.10824,-0.09577 -0.19908,-0.101348 -0.20709,-0.01267 -0.32465,-0.08058 -0.43153,-0.24932 -0.0969,-0.153099 -0.0969,-0.153099 -0.2475,-0.05916 -0.0827,0.05168 -0.26056,0.198575 -0.39506,0.326468 -0.13449,0.127893 -0.35152,0.310401 -0.48234,0.405515 -0.20191,0.146517 -0.2341,0.181699 -0.21325,0.230657 0.0312,0.07329 0.36506,0.107811 0.44992,0.04655 0.0346,-0.02504 0.0909,-0.04029 0.12484,-0.03381 0.0808,0.01538 0.061,0.112369 -0.0376,0.183535 -0.0395,0.02852 -0.14154,0.130607 -0.22671,0.226968 -0.11995,0.135571 -0.16101,0.215662 -0.18187,0.354689 -0.0148,0.09876 -0.0345,0.226461 -0.0438,0.283771 -0.0171,0.105446 -0.24413,0.343166 -0.41636,0.435927 -0.0997,0.05373 -0.28932,-0.06016 -0.4215,-0.253123 -0.0721,-0.105015 -0.13117,-0.14633 -0.26397,-0.184071 -0.22106,-0.06279 -0.25663,-0.173583 -0.13067,-0.406977 0.0776,-0.143669 0.10369,-0.168708 0.20683,-0.198004 0.17318,-0.04921 0.25326,-0.16125 0.25297,-0.354142 -1.3e-4,-0.09308 0.009,-0.178331 0.0209,-0.189458 0.127,-0.121368 0.38222,-0.297916 0.47049,-0.325431 0.14016,-0.04376 0.31505,-0.256171 0.31626,-0.38416 0.002,-0.181017 -0.0552,-0.260885 -0.20526,-0.288427 -0.1246,-0.02278 -0.18508,-0.0044 -0.49002,0.149138 -0.19134,0.09629 -0.40854,0.193068 -0.48267,0.21503 -0.15294,0.04528 -0.31481,0.151678 -0.31418,0.206494 2.7e-4,0.0202 -0.0659,0.09671 -0.14701,0.16995 -0.0811,0.07325 -0.21341,0.192878 -0.29409,0.265744 -0.16894,0.152684 -0.24656,0.165976 -0.36859,0.06316 -0.0723,-0.06091 -0.0746,-0.09814 -0.0224,-0.32128 0.0458,-0.194975 0.0822,-0.268934 0.15974,-0.324949 0.20249,-0.146185 0.25814,-0.285213 0.30929,-0.772578 0.0117,-0.110895 0.0117,-0.110895 0.21438,-0.178067 0.1774,-0.05878 0.2183,-0.08504 0.32712,-0.210421 0.0684,-0.07878 0.13388,-0.172234 0.14548,-0.207668 0.0302,-0.09208 -0.008,-0.23579 -0.0752,-0.281425 -0.0518,-0.0353 -0.37361,-0.01533 -0.70877,0.04397 -0.27717,0.04904 -0.38838,-0.217582 -0.19088,-0.457606 0.13966,-0.169682 0.13976,-0.260046 5e-4,-0.41428 -0.12121,-0.134264 -0.15511,-0.276704 -0.079,-0.331719 0.0515,-0.03719 0.17771,-0.06338 0.35148,-0.07291 0.0614,-0.0033 0.13492,-0.02295 0.16338,-0.0435 0.0284,-0.02057 0.19154,-0.0335 0.36239,-0.02878 0.17085,0.0047 0.4454,-3.41e-4 0.61014,-0.01125 0.16472,-0.01091 0.30761,-0.0086 0.31753,0.0051 0.01,0.01375 0.0634,0.0046 0.11881,-0.02025 0.0554,-0.02488 0.14623,-0.04273 0.20182,-0.03966 0.23011,0.01274 0.44912,0.0043 0.57825,-0.02231 0.0755,-0.01556 0.14871,-0.01309 0.16268,0.0055 0.0257,0.03359 0.35426,0.02631 0.4809,-0.01098 0.0904,-0.02661 0.2975,0.07139 0.3204,0.151609 0.0338,0.118311 -0.19813,0.214794 -0.48141,0.200243 -0.0843,-0.0044 -0.29593,0.02138 -0.47026,0.05713 -0.57857,0.11861 -0.96148,0.17913 -1.04519,0.165195 -0.10288,-0.01712 -0.31514,0.0051 -0.36037,0.03779 -0.0187,0.01345 -0.0241,0.06877 -0.0121,0.122974 0.0519,0.236385 0.43786,0.289758 1.08178,0.149595 0.17296,-0.03764 0.37428,-0.07287 0.44738,-0.07828 0.23323,-0.01725 0.84793,-0.16784 0.99418,-0.243541 0.2675,-0.138434 0.41876,-0.182145 0.58883,-0.170043 0.0938,0.0067 0.22905,-0.0051 0.30062,-0.02606 0.0716,-0.02102 0.13778,-0.02757 0.14715,-0.01459 0.0262,0.03628 0.3534,0.08158 0.39134,0.05419 0.0184,-0.01331 0.1033,-0.02673 0.18858,-0.02978 0.0852,-0.0031 0.16676,-0.014 0.18109,-0.02432 0.0407,-0.02938 0.37853,-0.0069 0.46649,0.03106 0.0436,0.01879 0.17523,0.0068 0.29265,-0.02645 0.16036,-0.04551 0.25039,-0.04653 0.36167,-0.0041 0.13061,0.04986 0.16775,0.04569 0.31272,-0.03518 0.18674,-0.10417 0.36617,-0.168528 0.47233,-0.169428 0.10966,-9.03e-4 0.36771,-0.155851 0.52465,-0.314967 0.2198,-0.222877 0.48608,-0.511317 0.59898,-0.648822 0.13028,-0.158673 0.72523,-0.551698 0.97378,-0.6433 0.26713,-0.09844 0.61483,-0.173639 0.76351,-0.165131 0.0727,0.0041 0.1892,-9.02e-4 0.25887,-0.01124 0.0697,-0.01037 0.17961,6.62e-4 0.2443,0.0245 0.10507,0.03868 0.76468,0.114281 1.00823,0.115563 0.10131,5.39e-4 0.28721,0.03286 0.30132,0.05239 0.005,0.0066 0.15863,0.05183 0.34196,0.100575 0.18334,0.04873 0.41981,0.131953 0.5255,0.184942 0.10571,0.05299 0.26313,0.103477 0.34986,0.112201 0.15639,0.01572 0.69533,0.235528 0.74479,0.303756 0.0373,0.05144 0.43596,0.216618 0.66488,0.275474 0.10797,0.02776 0.34998,0.121432 0.53781,0.208166 0.1878,0.08673 0.39226,0.171859 0.45432,0.189171 0.062,0.0173 0.12855,0.05322 0.14775,0.07981 0.0192,0.02658 0.0749,0.05046 0.12373,0.05304 0.10458,0.0056 0.36467,0.06623 0.62744,0.146486 0.38314,0.117004 0.54143,0.146173 0.76433,0.140874 0.13451,-0.0031 0.26008,0.01995 0.30516,0.05626 0.10092,0.08131 0.36374,0.180516 0.6736,0.254307 0.13787,0.03283 0.2586,0.07066 0.26827,0.08406 0.0271,0.03756 0.29465,0.03724 0.42738,-4.67e-4 0.0652,-0.01858 0.1856,-0.02596 0.26731,-0.01645 0.0817,0.0095 0.16163,0.0079 0.1776,-0.0037 0.0159,-0.01151 0.1399,-0.0044 0.27541,0.01568 0.27449,0.04083 0.39999,0.02398 0.60919,-0.08178 0.0782,-0.03954 0.16981,-0.07184 0.20359,-0.07177 0.0855,1.54e-4 0.29896,-0.204187 0.46673,-0.446746 0.11018,-0.15931 0.15708,-0.20443 0.2231,-0.214646 0.31348,-0.04842 0.39161,-0.07249 0.51653,-0.159185 0.11046,-0.07678 0.14304,-0.120628 0.15353,-0.207373 0.0186,-0.153585 -0.0515,-0.2321 -0.2767,-0.31019 -0.10678,-0.03701 -0.20521,-0.08263 -0.21873,-0.101356 -0.0135,-0.01872 -0.21123,-0.05065 -0.43936,-0.07093 -0.22812,-0.02028 -0.4221,-0.04701 -0.43105,-0.05942 -0.009,-0.01238 -0.11351,-0.02326 -0.23234,-0.02412 -0.11883,-8.42e-4 -0.24583,-0.02186 -0.28222,-0.04666 -0.0744,-0.05069 -0.0873,-0.05437 -0.35417,-0.10006 -0.24371,-0.04173 -0.57105,-0.210516 -0.66757,-0.344216 -0.0432,-0.05985 -0.1654,-0.143585 -0.29052,-0.199087 -0.11879,-0.05269 -0.25983,-0.137918 -0.31343,-0.18939 -0.0536,-0.05146 -0.12172,-0.08606 -0.15131,-0.07689 -0.0296,0.0092 -0.0654,6.62e-4 -0.0797,-0.01907 -0.0142,-0.01965 -0.0971,-0.08372 -0.18418,-0.142385 -0.11764,-0.07918 -0.21312,-0.106515 -0.37119,-0.106167 -0.20742,4.58e-4 -0.45738,-0.07893 -0.51951,-0.165007 -0.0625,-0.08659 -1.06092,-0.520281 -1.22227,-0.530933 -0.0899,-0.0059 -0.20236,-0.02876 -0.24987,-0.05071 -0.22171,-0.102432 -0.5416,-0.275795 -0.612,-0.331674 -0.1013,-0.08038 -0.43257,-0.128146 -0.54655,-0.07878 -0.0491,0.02121 -0.11929,0.01734 -0.15623,-0.0086 -0.0369,-0.02592 -0.1279,-0.06196 -0.20216,-0.08005 -0.0742,-0.01807 -0.24292,-0.07821 -0.37484,-0.133599 -0.40197,-0.168761 -0.5079,-0.197518 -0.76822,-0.20858 -0.13777,-0.0058 -0.34091,-0.0149 -0.45146,-0.0201 -0.11748,-0.0056 -0.21931,-0.03484 -0.24511,-0.07056 -0.046,-0.06363 -0.319,-0.146886 -0.43443,-0.132467 -0.0367,0.0045 -0.16924,0.0025 -0.29478,-0.0046 -0.12553,-0.0071 -0.3122,-0.0025 -0.41482,0.01042 -0.10262,0.01287 -0.26397,0.01659 -0.35857,0.0083 -0.27008,-0.0237 -0.50524,-0.0047 -0.75739,0.06106 -0.12797,0.03341 -0.26954,0.0505 -0.31456,0.03796 -0.045,-0.01253 -0.15174,-0.0081 -0.23715,0.01002 -0.0854,0.01805 -0.22167,0.04672 -0.3028,0.06372 -0.0811,0.01701 -0.17998,0.03129 -0.21966,0.03177 -0.0397,5.3e-4 -0.1957,0.05654 -0.34672,0.124588 -0.151,0.06806 -0.3303,0.137253 -0.39841,0.153808 -0.0791,0.01925 -0.34965,0.177617 -0.75024,0.439324 -0.34453,0.225072 -0.69526,0.449948 -0.77942,0.499722 -0.0841,0.04977 -0.40173,0.258426 -0.70573,0.463662 -0.42253,0.285239 -0.58476,0.379582 -0.68867,0.400373 -0.17424,0.03491 -0.65264,0.07723 -0.72531,0.06416 -0.0307,-0.0056 -0.1848,0.03328 -0.34252,0.08619 -0.1577,0.05293 -0.36803,0.109367 -0.46739,0.125457 -0.0994,0.01609 -0.24523,0.05314 -0.32418,0.08234 -0.0961,0.03555 -0.23734,0.03753 -0.42746,0.006 -0.15615,-0.02588 -0.30248,-0.03365 -0.32516,-0.01728 -0.0556,0.04019 -0.34865,0.08208 -0.36975,0.05285 -0.009,-0.01283 -0.0554,-0.0088 -0.10275,0.0089 -0.18132,0.06792 -0.62698,0.159684 -0.70712,0.145563 -0.1186,-0.02089 -0.2705,0.05368 -0.28176,0.138356 -0.007,0.05576 0.0226,0.07149 0.16097,0.08466 0.0936,0.0089 0.22287,0.009 0.28733,1.81e-4 0.11562,-0.01572 0.40645,0.02846 0.59289,0.0901 0.15356,0.05078 0.44458,0.06448 0.7688,0.03621 0.38895,-0.03391 0.47027,-0.0025 0.48447,0.187368 0.0143,0.192753 -0.0384,0.281056 -0.17657,0.29545 -0.0595,0.0062 -0.1455,-0.0049 -0.19108,-0.02463 -0.13912,-0.06023 -0.76095,-0.103329 -0.94298,-0.06533 -0.0943,0.0197 -0.20793,0.02865 -0.25248,0.01993 -0.1428,-0.02795 -0.6275,0.01052 -0.68867,0.05468 -0.0326,0.02349 -0.24472,0.02964 -0.47154,0.01367 -0.22683,-0.01596 -0.48308,-0.0228 -0.56946,-0.01519 -0.29475,0.02597 -0.33401,-0.02315 -0.29517,-0.369373 0.0153,-0.13623 -2.6e-4,-0.208328 -0.064,-0.296533 -0.0687,-0.0951 -0.0767,-0.146927 -0.0435,-0.281869 0.0223,-0.09094 0.0592,-0.178747 0.0819,-0.195139 0.0803,-0.05802 0.70549,-0.03363 0.75484,0.02946 0.0121,0.01471 0.10538,0.02132 0.20817,0.01412 0.10278,-0.0072 0.21989,0.0066 0.26023,0.03052 0.1108,0.0659 0.40369,-0.112973 0.33678,-0.205668 -0.0432,-0.05986 -0.29337,-0.164204 -0.47065,-0.196322 -0.085,-0.01538 -0.21149,-0.05379 -0.28123,-0.08535 -0.0698,-0.03156 -0.26903,-0.08873 -0.44288,-0.127035 -0.17385,-0.03831 -0.38018,-0.09904 -0.45852,-0.134966 -0.13739,-0.06299 -0.14261,-0.06978 -0.14741,-0.191434 -0.005,-0.107839 0.0155,-0.142828 0.13699,-0.241484 0.12695,-0.103154 0.15397,-0.111425 0.25544,-0.07804 0.0625,0.02051 0.13933,0.03414 0.17091,0.03024 0.0316,-0.0039 0.15075,0.03454 0.26482,0.08539 0.27837,0.124119 0.50376,0.08811 0.39463,-0.06305 -0.0781,-0.108216 -0.0504,-0.304007 0.0708,-0.501445 0.1203,-0.195836 0.12151,-0.196855 0.24196,-0.202503 0.0881,-0.0041 0.14983,0.02468 0.22673,0.105772 0.0631,0.06659 0.16983,0.126439 0.26505,0.148703 0.0876,0.02048 0.16844,0.04984 0.17956,0.06524 0.0111,0.01541 0.0653,0.03006 0.12054,0.03256 0.0552,0.0025 0.12039,0.03234 0.14488,0.06626 0.0487,0.0674 0.26861,0.142286 0.50901,0.173296 0.091,0.01175 0.19032,0.05753 0.24472,0.112834 0.0504,0.05118 0.17624,0.131448 0.27977,0.178347 0.11433,0.05179 0.22182,0.131802 0.2738,0.203797 0.0682,0.09444 0.11319,0.119273 0.22158,0.12211 0.16422,0.0043 0.47057,-0.05133 0.58011,-0.105384 0.0438,-0.02158 0.29177,-0.114186 0.55106,-0.205728 0.25931,-0.09155 0.52877,-0.207818 0.59883,-0.258396 0.0701,-0.05057 0.26544,-0.152094 0.43423,-0.225582 0.16879,-0.07348 0.47447,-0.238507 0.67929,-0.366691 0.20481,-0.128206 0.41161,-0.240482 0.45956,-0.249506 0.0479,-0.009 0.24558,-0.130778 0.43918,-0.27056 0.30628,-0.221119 0.38205,-0.262019 0.58311,-0.31447 0.12712,-0.03315 0.3176,-0.09527 0.42334,-0.137997 0.42111,-0.170129 0.92886,-0.312525 1.01217,-0.283845 0.0211,0.0073 0.29841,-0.01121 0.61633,-0.04103 0.31791,-0.02982 0.65646,-0.0514 0.75235,-0.04796 0.4163,0.01494 0.6961,0.03048 0.98852,0.0549 0.2746,0.02294 0.3361,0.01387 0.50436,-0.07425 0.17437,-0.09131 0.2038,-0.120347 0.32651,-0.322091 0.11759,-0.193313 0.17127,-0.248128 0.41892,-0.427813 0.15626,-0.113309 0.33243,-0.26004 0.39158,-0.325968 0.15669,-0.174705 0.7344,-0.613835 0.92416,-0.702452 0.0898,-0.04193 0.24634,-0.127543 0.34785,-0.190224 0.11069,-0.06833 0.28695,-0.136906 0.44028,-0.171273 0.14064,-0.0315 0.29869,-0.08829 0.35122,-0.126208 0.10244,-0.07396 0.47858,-0.195778 0.60113,-0.194681 0.041,3.73e-4 0.1389,-0.03335 0.21759,-0.07491 0.16153,-0.0853 0.26672,-0.237818 0.31801,-0.461134 0.0168,-0.07338 0.0818,-0.226409 0.14442,-0.340108 0.0626,-0.113727 0.14494,-0.303323 0.18302,-0.421366 0.0619,-0.191832 0.0917,-0.233492 0.28084,-0.392388 0.167,-0.140233 0.26794,-0.199383 0.47887,-0.279912 0.14699,-0.05619 0.35129,-0.162506 0.45397,-0.236309 0.2129,-0.153195 0.43506,-0.241156 0.88052,-0.34927 0.85896,-0.208483 0.82613,-0.197417 0.96878,-0.32657 0.18236,-0.165123 0.33185,-0.34711 0.40472,-0.492747 0.0328,-0.0655 0.0881,-0.140037 0.12299,-0.165654 0.0349,-0.02558 0.0864,-0.09039 0.11444,-0.143907 0.24993,-0.476869 0.34404,-0.563485 1.08063,-0.994657 0.44363,-0.259658 0.5683,-0.345073 0.65156,-0.446289 0.0855,-0.103902 0.13521,-0.136637 0.29308,-0.192813 0.10455,-0.0372 0.20537,-0.06238 0.22404,-0.05595 0.0187,0.0064 0.0956,-0.01039 0.17096,-0.03734 0.13102,-0.04689 0.14005,-0.05852 0.20718,-0.266533 0.12269,-0.380381 0.34706,-0.683409 0.6933,-0.93637 0.0968,-0.07065 0.24735,-0.209957 0.33453,-0.309483 0.18247,-0.208151 0.63168,-0.504722 0.86307,-0.569757 0.0851,-0.02394 0.28033,-0.137537 0.5141,-0.299265 0.34123,-0.236046 0.44376,-0.286843 0.64861,-0.321034 0.30692,-0.05128 0.39405,-0.109022 0.42851,-0.284066 0.0361,-0.183331 0.12604,-0.354644 0.30791,-0.586504 0.13829,-0.176298 0.24597,-0.266741 0.80325,-0.674668 l 0.64345,-0.471221 0.24737,0.342654 c 0.22476,0.311308 0.24217,0.346414 0.18998,0.384092 -0.0316,0.02278 -0.0867,0.0387 -0.12254,0.03526 -0.083,-0.0079 -0.92587,0.611537 -0.99046,0.727911 -0.0721,0.129866 -0.11689,0.308907 -0.1064,0.4251 0.009,0.09952 0.0286,0.11959 0.21984,0.224238 0.11552,0.06319 0.24351,0.120153 0.28447,0.126534 0.10754,0.01676 0.301,0.128912 0.46417,0.26908 0.0779,0.06693 0.16159,0.126482 0.18589,0.132337 0.0243,0.0059 0.0986,0.04797 0.1651,0.09356 0.0666,0.04558 0.24684,0.145181 0.40077,0.221268 0.15393,0.07609 0.36438,0.192225 0.46766,0.258078 0.32262,0.205734 0.44351,0.275912 0.67423,0.391432 0.12305,0.06161 0.30359,0.189517 0.40121,0.284248 0.0976,0.09473 0.29709,0.246864 0.44328,0.33807 0.26578,0.165842 0.26578,0.165842 1.12347,1.355031 0.94958,1.317323 0.93437,1.276941 0.33556,0.864064 -0.1741,-0.120049 -0.33954,-0.223128 -0.36766,-0.229066 -0.0885,-0.01868 -0.33179,-0.211625 -0.50221,-0.398178 -0.0902,-0.0987 -0.2978,-0.264748 -0.46141,-0.368969 -0.16359,-0.104216 -0.38875,-0.257596 -0.50036,-0.340836 -0.17219,-0.128431 -0.89304,-0.544261 -1.09173,-0.629775 -0.0562,-0.0242 -0.24478,-0.159673 -0.50738,-0.364536 -0.26371,-0.205718 -0.4503,-0.320183 -0.71694,-0.439794 -0.15992,-0.07176 -0.38891,-0.17451 -0.50885,-0.228341 -0.11993,-0.05382 -0.27145,-0.101483 -0.33672,-0.105903 -0.0894,-0.0061 -0.14069,-0.03856 -0.20803,-0.131836 -0.1183,-0.163853 -0.29434,-0.25583 -0.46742,-0.244203 -0.14511,0.0098 -0.28781,-0.05005 -0.43936,-0.184127 -0.10553,-0.09334 -0.27734,-0.10198 -0.62079,-0.03116 -0.25959,0.05352 -0.25959,0.05352 -0.83696,0.487223 -0.541,0.406388 -0.58516,0.446204 -0.70075,0.632454 -0.2001,0.322358 -0.20372,0.387345 -0.0336,0.602692 0.0796,0.100953 0.17199,0.192183 0.20512,0.202923 0.0331,0.01073 0.15451,0.117003 0.26976,0.236132 0.18053,0.186643 0.24756,0.229505 0.48447,0.309767 0.15122,0.05123 0.31809,0.100297 0.37082,0.109039 0.12814,0.02123 0.58063,0.224372 0.70865,0.318123 0.21675,0.158752 0.53686,0.342418 0.61715,0.354095 0.11041,0.01605 0.22105,0.08387 0.54565,0.334478 0.15507,0.119722 0.33087,0.222167 0.41496,0.241829 0.0803,0.01875 0.20796,0.09065 0.28384,0.15976 0.18169,0.165546 0.53848,0.362162 0.6968,0.384046 0.0695,0.0096 0.14055,0.03712 0.15788,0.06112 0.0173,0.024 0.0848,0.05528 0.15001,0.06944 0.0652,0.01414 0.22182,0.07122 0.34809,0.126745 0.12629,0.05552 0.31568,0.123045 0.42088,0.150068 0.10521,0.02703 0.20201,0.06396 0.2151,0.08209 0.0218,0.03024 0.38956,0.159754 0.45641,0.160733 0.0447,6.62e-4 0.28187,0.122638 0.30756,0.158203 0.0231,0.032 0.21635,0.104859 0.27345,0.103139 0.0169,-4.98e-4 0.10894,0.04089 0.20451,0.09202 0.0956,0.0511 0.24124,0.09791 0.32376,0.103982 0.0825,0.0061 0.15799,0.02211 0.16777,0.03565 0.026,0.03605 0.31264,0.09911 0.51913,0.114222 0.27278,0.01995 1.23289,-0.195967 1.40561,-0.316104 0.13974,-0.09717 0.13974,-0.09717 0.39079,0.250559 0.15196,0.210467 0.23456,0.349872 0.20926,0.353148 -0.0231,0.003 -0.13444,0.05179 -0.24759,0.10856 -0.1132,0.05672 -0.27685,0.117882 -0.36368,0.135905 -0.0913,0.01893 -0.22331,0.08 -0.31291,0.144678 -0.12852,0.09279 -0.16506,0.143066 -0.21399,0.294301 -0.0783,0.242013 -0.15224,0.395616 -0.21091,0.437971 -0.0264,0.01909 -0.13515,0.145505 -0.24175,0.280916 -0.16699,0.212219 -0.24968,0.286205 -0.59782,0.53495 -0.58807,0.420121 -0.94599,0.629554 -1.17059,0.684865 -0.23879,0.05879 -0.42599,0.190284 -0.55081,0.386909 -0.21304,0.335545 -0.46343,0.551192 -1.5551,1.339335 -1.0142,0.732218 -1.03681,0.746315 -1.26952,0.814977 -0.1304,0.03828 -0.30832,0.107029 -0.39538,0.15278 -0.23038,0.121067 -0.2396,0.125274 -0.54655,0.249684 -0.4788,0.194051 -0.61299,0.329594 -0.77154,0.779306 -0.0543,0.154063 -0.0936,0.203882 -0.27642,0.350137 -0.34139,0.273179 -1.45276,0.971783 -1.61924,1.01787 -0.08,0.02213 -0.19986,0.05555 -0.26641,0.07425 -0.30827,0.0866 -0.85203,0.201369 -0.92245,0.194682 -0.0649,-0.0062 -0.10017,0.01652 -0.20858,0.134187 -0.0717,0.0779 -0.16171,0.18902 -0.19995,0.246935 -0.0382,0.05794 -0.14207,0.216517 -0.23075,0.352429 -0.22623,0.346739 -0.25301,0.37257 -0.49281,0.475567 -0.11746,0.05045 -0.30598,0.145166 -0.41893,0.21049 -0.25321,0.146453 -0.87552,0.443229 -0.9384,0.447533 -0.0255,0.0018 -0.19523,0.05726 -0.37734,0.123385 -0.32657,0.11857 -0.33967,0.119517 -0.95697,0.06897 -0.34423,-0.02817 -0.63457,-0.06329 -0.6452,-0.07803 -0.0245,-0.03395 -0.16433,0.02388 -0.2091,0.08648 -0.0186,0.02607 -0.0246,0.06023 -0.0132,0.07598 0.0114,0.01571 -0.003,0.124911 -0.031,0.242632 -0.0284,0.117724 -0.0551,0.254686 -0.0592,0.304372 -0.005,0.04969 -0.0418,0.193986 -0.0839,0.320679 -0.0885,0.26707 -0.0579,0.423276 0.13518,0.692179 0.22398,0.31229 0.22961,0.29233 -0.1552,0.570143 -0.3337,0.240923 -0.3337,0.240923 -0.37519,0.137007 -0.0228,-0.05715 -0.0727,-0.152804 -0.11071,-0.212533 -0.0379,-0.0598 -0.0684,-0.158839 -0.0674,-0.220221 9.2e-4,-0.06136 -0.0162,-0.136624 -0.0383,-0.16721 -0.0221,-0.03058 -0.0483,-0.09365 -0.0584,-0.140182 -0.0101,-0.04653 -0.0655,-0.203602 -0.12334,-0.349095 -0.13223,-0.332848 -0.13321,-0.407649 -0.007,-0.56057 0.10281,-0.124907 0.10963,-0.186881 0.0468,-0.425311 -0.0874,-0.331818 -0.10454,-0.353821 -0.36516,-0.46817 -0.13507,-0.05925 -0.25984,-0.127515 -0.27729,-0.151693 -0.0865,-0.119859 -0.69558,-0.201267 -0.82213,-0.109895 -0.10474,0.07562 -0.21737,0.294495 -0.21502,0.41787 9.3e-4,0.06535 -0.0444,0.232871 -0.10159,0.372185 -0.0571,0.139313 -0.10519,0.266565 -0.10682,0.282778 -0.002,0.01624 -0.0179,0.0577 -0.036,0.09225 -0.11288,0.214474 -0.29711,0.867254 -0.28105,0.995822 0.006,0.04894 0.0242,0.175346 0.04,0.280896 0.0159,0.10555 0.0262,0.273856 0.0231,0.373991 -0.003,0.100138 -1.2e-4,0.189964 0.006,0.199612 0.007,0.0097 0.007,0.139658 0.002,0.28891 -0.006,0.149253 -0.003,0.369586 0.006,0.489642 0.0199,0.251652 0.006,0.390592 -0.063,0.621513 -0.027,0.09067 -0.0627,0.227335 -0.0792,0.303646 -0.0302,0.138758 -0.0302,0.138758 -0.83329,0.718621 -0.62829,0.453602 -0.8058,0.570183 -0.81526,0.535391 z m 15.31328,-11.669372 c 0.44986,-0.366921 0.51564,-0.556158 0.31734,-0.913432 -0.0886,-0.15959 -0.11166,-0.178914 -0.24268,-0.202836 -0.083,-0.01517 -0.32145,0.01292 -0.55873,0.06583 -0.40566,0.09044 -0.42059,0.09029 -0.74675,-0.0075 -0.18304,-0.05489 -0.41016,-0.108656 -0.50471,-0.11949 -0.0946,-0.01083 -0.18384,-0.0362 -0.1984,-0.05638 -0.0309,-0.04283 -0.44983,-0.242031 -0.55136,-0.262187 -0.0381,-0.0076 -0.20217,-0.08063 -0.36451,-0.162345 -0.16235,-0.08172 -0.35355,-0.163876 -0.4249,-0.182571 -0.0714,-0.01868 -0.16334,-0.0576 -0.20444,-0.08643 -0.0412,-0.02883 -0.13666,-0.06696 -0.21237,-0.08473 -0.0757,-0.01778 -0.15053,-0.05017 -0.16629,-0.07201 -0.0157,-0.02185 -0.10872,-0.08697 -0.20663,-0.144672 -0.0979,-0.0577 -0.2252,-0.147431 -0.28296,-0.199338 -0.11516,-0.103497 -0.16582,-0.136889 -0.36987,-0.243573 -0.0752,-0.03931 -0.19927,-0.122079 -0.27571,-0.183909 -0.19614,-0.158647 -0.46535,-0.329025 -0.51416,-0.32541 -0.0569,0.0042 -0.42469,-0.08137 -0.53221,-0.123861 -0.0484,-0.01915 -0.0969,-0.06561 -0.10763,-0.103236 -0.0107,-0.03767 -0.10178,-0.149199 -0.20273,-0.247614 -0.30842,-0.301655 -0.98717,-0.566209 -1.324,-0.516051 -0.11702,0.0174 -0.18187,-0.0057 -0.36486,-0.130184 -0.16772,-0.114072 -0.26832,-0.153596 -0.40825,-0.160398 -0.10213,-0.005 -0.25209,-0.04138 -0.33324,-0.08094 -0.18831,-0.09177 -0.25322,-0.09062 -0.48922,0.0086 -0.10605,0.04459 -0.2414,0.07808 -0.30076,0.07443 -0.14243,-0.0088 -0.76471,0.121129 -0.83968,0.175259 -0.0324,0.02335 -0.0752,0.07189 -0.0951,0.107824 -0.0222,0.04014 -0.14621,0.128267 -0.32156,0.228445 -0.25628,0.146672 -0.29627,0.179844 -0.39424,0.327888 -0.06,0.09057 -0.17671,0.226656 -0.25944,0.302363 -0.23269,0.212962 -0.2383,0.320977 -0.0329,0.634069 0.16338,0.249002 0.16964,0.254183 0.45966,0.377491 0.16172,0.06877 0.32837,0.130472 0.37035,0.137108 0.042,0.0067 0.0869,0.02682 0.1,0.04484 0.013,0.018 0.038,0.02243 0.0556,0.0097 0.0176,-0.01267 0.0448,-0.0051 0.0606,0.01677 0.0158,0.0219 0.0916,0.05132 0.16848,0.06535 0.0824,0.01506 0.16508,0.06064 0.2015,0.11109 0.0907,0.125614 0.21856,0.176609 0.34952,0.13939 0.0636,-0.01806 0.12586,-0.01867 0.13846,-0.0013 0.0126,0.01733 0.13616,0.08264 0.27461,0.145169 0.13846,0.06252 0.26221,0.128176 0.27501,0.145905 0.0128,0.01775 0.0684,0.03427 0.12361,0.0368 0.0592,0.0027 0.1259,0.04005 0.16276,0.0912 0.0342,0.04765 0.12656,0.116919 0.20502,0.153879 0.0784,0.03699 0.22954,0.1098 0.33578,0.161808 0.34266,0.167781 0.64723,0.290218 0.76396,0.307118 0.18853,0.0273 0.59192,0.212321 0.70747,0.324495 0.0595,0.05786 0.24568,0.156912 0.41353,0.220156 0.25673,0.09674 0.32673,0.141274 0.44106,0.280632 0.0747,0.09114 0.1811,0.190621 0.23641,0.221113 0.10361,0.05719 0.48735,0.09609 0.62566,0.06345 0.043,-0.01015 0.1013,-0.0027 0.12957,0.01656 0.0282,0.01925 0.12548,0.04631 0.21603,0.0601 0.0905,0.01379 0.19542,0.0513 0.23301,0.08336 0.11579,0.09872 0.23065,0.137775 0.47812,0.162542 0.27285,0.0273 0.79114,0.04325 0.84346,0.02597 0.0193,-0.0065 0.16591,0.02185 0.32555,0.06283 0.36089,0.0926 0.75753,0.135963 0.95591,0.104518 0.0831,-0.01316 0.22248,-0.03177 0.3098,-0.04134 0.2057,-0.02255 0.40478,-0.07303 0.61643,-0.156306 0.1662,-0.06538 0.25155,-0.127961 0.93596,-0.686117 z m -4.28036,2.923224 c 0.17902,-0.27044 0.23021,-0.314873 0.49138,-0.426586 0.24022,-0.102721 0.25348,-0.112434 0.32213,-0.236269 0.0515,-0.09334 0.0605,-0.176665 0.0326,-0.298943 -0.0214,-0.09328 -0.0474,-0.22841 -0.0579,-0.300339 -0.018,-0.124199 -0.0276,-0.134426 -0.18937,-0.203409 -0.0937,-0.03994 -0.23478,-0.0646 -0.3134,-0.05478 -0.0787,0.0098 -0.15344,0.0044 -0.16628,-0.0119 -0.0131,-0.01612 -0.14753,-0.04992 -0.29934,-0.07459 -0.15179,-0.02469 -0.32984,-0.07435 -0.39565,-0.110376 -0.0658,-0.03599 -0.2162,-0.07864 -0.33421,-0.09468 -0.118,-0.01605 -0.22419,-0.04256 -0.23601,-0.05891 -0.0118,-0.01634 -0.0725,-0.04479 -0.1348,-0.06319 -0.94928,-0.280227 -1.07443,-0.334852 -1.21579,-0.530652 -0.0636,-0.08806 -0.13989,-0.144435 -0.23677,-0.174905 -0.0786,-0.02473 -0.19772,-0.082 -0.26467,-0.127283 -0.067,-0.04527 -0.17282,-0.112453 -0.23528,-0.14927 -0.0625,-0.03684 -0.16206,-0.09608 -0.22132,-0.131699 -0.0593,-0.0356 -0.18844,-0.0798 -0.28704,-0.09818 -0.10615,-0.01979 -0.22157,-0.07402 -0.28289,-0.132899 -0.14438,-0.138641 -0.72415,-0.391982 -0.95522,-0.417404 -0.19951,-0.02195 -0.33184,-0.08835 -0.50525,-0.253573 -0.056,-0.05322 -0.15404,-0.118711 -0.21809,-0.14546 -0.36152,-0.150979 -0.43549,-0.172375 -0.5309,-0.153569 -0.13268,0.02612 -0.47595,-0.08562 -0.58606,-0.190811 -0.0461,-0.04404 -0.11389,-0.08016 -0.15057,-0.08033 -0.0367,-1.15e-4 -0.0744,-0.01089 -0.0838,-0.02384 -0.009,-0.01298 -0.088,-0.03112 -0.17468,-0.04035 -0.0867,-0.0093 -0.16535,-0.02741 -0.17475,-0.04042 -0.009,-0.01302 -0.16294,-0.01057 -0.34122,0.0054 -0.19017,0.01707 -0.42031,0.005 -0.5568,-0.02918 -0.18828,-0.04716 -0.59398,-0.04857 -0.61287,-0.0021 -0.003,0.0056 -0.0667,0.02841 -0.1427,0.04983 -0.43291,0.121711 -0.69349,0.262465 -1.3579,0.733492 -0.60393,0.428152 -0.65556,0.471066 -0.71927,0.597637 -0.0623,0.123725 -0.0602,0.146862 0.0222,0.24933 0.0987,0.122628 0.39229,0.280572 0.60073,0.323133 0.0719,0.01472 0.21546,0.07086 0.31899,0.124825 0.10351,0.05397 0.22123,0.104537 0.26154,0.112375 0.0404,0.0079 0.0855,0.03116 0.10041,0.05181 0.0149,0.02063 0.0602,0.04383 0.1009,0.05146 0.0406,0.0076 0.18977,0.07377 0.33156,0.146919 0.14179,0.07316 0.42113,0.212499 0.62075,0.309653 0.22195,0.108011 0.39247,0.216342 0.4389,0.278843 0.14141,0.190727 0.32628,0.296237 0.57654,0.329797 0.13238,0.01775 0.27117,0.04424 0.3084,0.05887 0.0633,0.02487 0.23006,0.03659 0.71796,0.05054 0.11649,0.0033 0.31184,0.05569 0.46651,0.12503 0.25615,0.114844 0.2739,0.130123 0.47515,0.409186 0.19552,0.271012 0.22324,0.295849 0.42678,0.381773 0.11975,0.05054 0.26579,0.08688 0.32456,0.08076 0.0587,-0.0061 0.17556,0.01947 0.25957,0.05684 0.084,0.0374 0.20386,0.06687 0.26629,0.06554 0.0624,-0.0013 0.12333,0.01118 0.13533,0.02781 0.012,0.01663 0.11038,0.0319 0.21856,0.03392 0.1082,0.0019 0.20628,0.01689 0.21795,0.03305 0.0117,0.01614 0.10667,0.04189 0.21108,0.05717 0.10443,0.01527 0.20639,0.04929 0.22659,0.07559 0.0871,0.113462 0.78595,0.294108 0.8787,0.227147 0.017,-0.01229 0.11554,-0.04439 0.21892,-0.0714 0.20515,-0.05353 0.49547,-0.0078 0.53847,0.08492 0.0149,0.03214 0.0418,0.04769 0.0595,0.03492 0.0179,-0.01288 0.0729,0.01316 0.12241,0.05785 0.0752,0.06786 0.1217,0.07361 0.28212,0.0349 0.1057,-0.02549 0.23504,-0.04109 0.28745,-0.03462 0.0524,0.0065 0.12766,-0.01027 0.16723,-0.03719 0.0394,-0.02702 0.20985,-0.08473 0.37838,-0.128516 0.35177,-0.09136 0.45373,-0.150384 0.57424,-0.332446 z m 7.67893,-5.987438 c 0.10903,-0.127683 0.12482,-0.191297 0.079,-0.318022 -0.027,-0.07488 -0.0628,-0.0901 -0.22214,-0.09468 -0.34099,-0.0098 -0.74348,-0.07076 -0.86952,-0.131776 -0.0679,-0.03286 -0.24766,-0.09997 -0.39945,-0.149087 -0.15177,-0.04913 -0.28267,-0.09823 -0.29087,-0.109127 -0.0142,-0.01884 -0.32923,-0.164641 -0.49272,-0.228026 -0.0422,-0.01637 -0.22868,-0.101901 -0.41444,-0.190114 -0.40481,-0.192218 -0.73796,-0.305991 -0.86769,-0.296318 -0.12054,0.009 -0.36363,-0.09789 -0.42921,-0.188718 -0.0337,-0.04663 -0.091,-0.06342 -0.17426,-0.05105 -0.0683,0.01012 -0.16222,0.0056 -0.20879,-0.01027 -0.15623,-0.05292 -0.36658,-0.241501 -0.46299,-0.415061 -0.0918,-0.165304 -0.0984,-0.169363 -0.35203,-0.218492 -0.23804,-0.04611 -0.27758,-0.06798 -0.50052,-0.276906 -0.14119,-0.13225 -0.32504,-0.264487 -0.44112,-0.317157 -0.10947,-0.04968 -0.23829,-0.125172 -0.28627,-0.167766 -0.11346,-0.100751 -0.55841,-0.26483 -0.79431,-0.292902 -0.21138,-0.02515 -0.45622,-0.141314 -0.65225,-0.309447 -0.19659,-0.168601 -0.32323,-0.203332 -0.51897,-0.142327 -0.15677,0.04886 -0.32054,0.03344 -0.50733,-0.04778 -0.039,-0.01688 -0.0984,-0.02373 -0.13223,-0.01515 -0.35622,0.09033 -0.67024,0.147237 -0.78562,0.142374 -0.12956,-0.0055 -0.16944,0.0137 -0.50717,0.243502 -0.30681,0.20881 -0.38564,0.276925 -0.4839,0.417768 -0.12504,0.179403 -0.33105,0.418421 -0.47118,0.546645 -0.0469,0.04301 -0.0969,0.119108 -0.11104,0.169274 -0.0379,0.13472 0.21218,0.399377 0.47876,0.50654 0.10899,0.04382 0.22549,0.117502 0.25889,0.163751 0.0715,0.09905 0.71697,0.386746 1.1553,0.514943 0.0965,0.0282 0.1814,0.05966 0.18879,0.0699 0.007,0.01025 0.0686,0.03345 0.13593,0.05166 0.1468,0.0396 0.38518,0.201444 0.47167,0.320225 0.0343,0.04717 0.16512,0.152361 0.29061,0.233786 0.12548,0.08142 0.25272,0.182048 0.28274,0.223619 0.03,0.04156 0.0875,0.07569 0.12756,0.07587 0.0402,1.53e-4 0.0864,0.01882 0.10274,0.04148 0.0164,0.02268 0.0741,0.06 0.12832,0.08299 0.0542,0.02297 0.1518,0.07037 0.21682,0.105334 0.50863,0.273479 0.95578,0.497349 1.04407,0.522736 0.12399,0.03565 0.55895,0.210274 0.94689,0.380148 0.15341,0.06718 0.33908,0.117075 0.41963,0.112781 0.0829,-0.0044 0.25547,0.04325 0.40497,0.111864 0.19763,0.09071 0.40654,0.136752 0.86585,0.190797 0.59567,0.0701 1.07144,0.05239 1.52426,-0.05673 0.0984,-0.02372 0.26837,-0.04541 0.37761,-0.0482 0.10925,-0.0028 0.23818,-0.0108 0.28649,-0.01781 0.11128,-0.01616 1.45051,-0.972727 1.58907,-1.135084 z m -20.88733,7.358307 c 0.15452,-0.12885 0.21638,-0.231531 0.21555,-0.357879 -4.5e-4,-0.06682 -0.0248,-0.09449 -0.12844,-0.145637 -0.17108,-0.08449 -0.27665,-0.09845 -0.45884,-0.06067 -0.0839,0.01736 -0.2315,0.02549 -0.32808,0.018 -0.0966,-0.0075 -0.27607,0.01264 -0.39887,0.04473 -0.1228,0.03211 -0.31768,0.08245 -0.43303,0.111891 -0.52218,0.133289 -0.85267,0.326417 -1.71752,1.003684 -0.40218,0.314916 -0.51189,0.387451 -0.68408,0.452251 -0.11281,0.04242 -0.24127,0.07759 -0.28551,0.07811 -0.201,0.0023 -0.39174,0.06727 -0.49104,0.16716 -0.0866,0.08721 -0.0925,0.111371 -0.0432,0.179602 0.0493,0.06836 0.0819,0.071 0.24474,0.01976 0.10329,-0.0325 0.25346,-0.06172 0.33371,-0.06496 0.0803,-0.0032 0.15611,-0.01322 0.16857,-0.02221 0.0125,-0.009 0.13888,-0.02763 0.28094,-0.04134 0.14207,-0.01374 0.33036,-0.04613 0.41845,-0.07196 0.44847,-0.131528 0.61554,-0.191898 0.7401,-0.267451 0.23006,-0.139534 0.61829,-0.260531 0.8772,-0.273377 0.0871,-0.0043 0.39645,-0.08995 0.68745,-0.190268 0.44962,-0.155024 0.55402,-0.203417 0.69505,-0.322183 0.0913,-0.07688 0.22937,-0.192609 0.30687,-0.257235 z m -3.01148,10.590331 c -0.0936,0.05497 -0.1898,0.07626 -0.30718,0.06793 -0.15653,-0.01111 -0.17723,-0.02383 -0.24612,-0.151294 -0.12307,-0.227706 -0.12021,-0.334816 0.0144,-0.54236 0.15228,-0.23471 0.29685,-0.329352 0.49985,-0.327254 0.12598,0.0013 0.18065,0.02655 0.27671,0.127699 0.2628,0.276744 0.17456,0.583069 -0.2377,0.825264 z m -0.93966,-1.906373 c -0.0217,0.0068 -0.0859,0.03392 -0.14269,0.06012 -0.14507,0.06712 -0.34893,0.03179 -0.42509,-0.0737 -0.0497,-0.06883 -0.0481,-0.152609 0.007,-0.403308 0.0579,-0.261605 0.0883,-0.329647 0.17556,-0.392622 0.0582,-0.04206 0.13838,-0.06947 0.17893,-0.06114 0.0403,0.0082 0.14117,0.02067 0.224,0.02758 0.0966,0.0081 0.17061,0.04085 0.20644,0.09144 0.0826,0.116363 0.11113,0.341759 0.0584,0.458651 -0.0461,0.102035 -0.20758,0.269368 -0.28284,0.292982 z m 1.11857,-1.322107 c -0.35581,0.120991 -0.4168,0.110014 -0.57035,-0.102682 -0.14683,-0.203375 -0.20034,-0.475304 -0.11881,-0.603819 0.0541,-0.08523 0.2954,-0.187367 0.47417,-0.200686 0.0898,-0.0067 0.3153,0.0596 0.46984,0.138139 0.146,0.0742 0.18166,0.437582 0.0586,0.596671 -0.0521,0.0673 -0.12915,0.109718 -0.31339,0.172401 z m -3.08151,0.955378 c -0.26828,0.04365 -0.5084,-0.0951 -0.52031,-0.300657 -0.0208,-0.358698 0.14489,-0.600414 0.47522,-0.693288 0.16718,-0.04703 0.25474,0.0035 0.35809,0.206864 0.10577,0.208074 0.10396,0.304834 -0.01,0.533437 -0.0581,0.116596 -0.11098,0.215005 -0.1175,0.218689 -0.006,0.0039 -0.09,0.01941 -0.18551,0.03496 z m -1.00115,-2.293216 c -0.23778,-0.08357 -0.29294,-0.238514 -0.20396,-0.572994 0.0711,-0.267226 0.14822,-0.340914 0.40851,-0.390312 0.17709,-0.0336 0.26307,-0.07467 0.52578,-0.25109 0.22306,-0.149761 0.36632,-0.224035 0.49425,-0.256271 0.0991,-0.02494 0.21087,-0.0671 0.24841,-0.09368 0.10827,-0.07667 0.5245,-0.172328 0.55658,-0.127895 0.016,0.02214 0.0204,0.07845 0.01,0.125065 -0.0173,0.07541 -0.10922,0.148146 -0.83225,0.65873 -0.44722,0.315451 -0.81708,0.592119 -0.82205,0.614627 -0.013,0.05749 -0.15862,0.268701 -0.21168,0.307013 -0.0244,0.01764 -0.10242,0.01168 -0.17326,-0.01321 z m -6.36804,-4.006696 c -0.13844,0.01033 -0.28909,-0.08415 -0.34814,-0.218322 -0.0539,-0.122381 -0.0258,-0.323416 0.0722,-0.517575 0.06,-0.11875 0.0633,-0.120699 0.24301,-0.142345 0.22988,-0.02766 0.24322,-0.02245 0.38559,0.150559 0.13795,0.167642 0.13909,0.17703 0.0464,0.38992 -0.0803,0.184171 -0.24838,0.326495 -0.39905,0.337734 z m 0.24195,-1.398478 c -0.0685,0.02874 -0.1831,0.04291 -0.25472,0.03149 -0.32595,-0.05195 -0.33845,-0.487403 -0.0205,-0.716906 0.13093,-0.09453 0.27124,-0.120791 0.47302,-0.08857 0.19491,0.03114 0.3232,0.279638 0.19293,0.373687 -0.031,0.02236 -0.0616,0.0619 -0.0683,0.08787 -0.0232,0.09154 -0.19674,0.259683 -0.3224,0.31241 z m -2.83245,0.138396 c -0.19627,0.100078 -0.30977,0.111828 -0.49865,0.05156 -0.18976,-0.06054 -0.26691,-0.142149 -0.24103,-0.254941 0.01,-0.04209 0.005,-0.09409 -0.0106,-0.115583 -0.0363,-0.05026 0.0175,-0.257112 0.0783,-0.300988 0.0256,-0.01852 0.0637,-0.07452 0.0844,-0.124397 0.0342,-0.08214 0.0632,-0.09877 0.30803,-0.176318 0.44124,-0.139741 0.6058,-0.06864 0.62952,0.271986 0.0193,0.277731 -0.11657,0.529651 -0.34992,0.648656 z"
       id="path1-5" />
    <text
       xml:space="preserve"
       style="font-size:7.64001px;line-height:1.25;font-family:Sans;-inkscape-font-specification:'Sans, Normal';text-align:start;letter-spacing:0px;word-spacing:0px;text-anchor:start;stroke-width:0.159166"
       x="76.535477"
       y="71.68869"
       id="text3"><tspan
         sodipodi:role="line"
         id="tspan3"
         style="stroke-width:0.159166"
         x="76.535477"
         y="71.68869">GlowForge</tspan><tspan
         sodipodi:role="line"
         style="stroke-width:0.159166"
         x="76.535477"
         y="81.238708"
         id="tspan4">40W Laser Cutter/Engraver</tspan><tspan
         sodipodi:role="line"
         style="stroke-width:0.159166"
         x="76.535477"
         y="90.788719"
         id="tspan5">Proprietary controller</tspan></text>
  </g>
</svg>
